/* XPM */
static char *b837c29cee4d4270ee94881c86d84068gXnEdZnNoshjQTqO[] = {
/* columns rows colors chars-per-pixel */
"128 128 86 1 ",
"  c #100221",
". c #110221",
"X c #110223",
"o c #130223",
"O c #130324",
"+ c #130325",
"@ c #130327",
"# c #140326",
"$ c #140327",
"% c #160329",
"& c #14032B",
"* c #15032B",
"= c #17032B",
"- c #15032D",
"; c #16032C",
": c #17042C",
"> c #17042D",
", c #18032D",
"< c #18042F",
"1 c #170330",
"2 c #170431",
"3 c #180330",
"4 c #190431",
"5 c #180433",
"6 c #1A0532",
"7 c #1B0434",
"8 c #1B0435",
"9 c #1A0436",
"0 c #1B0536",
"q c #1C0637",
"w c #180B34",
"e c #1A0C35",
"r c #1B0538",
"t c #1C0438",
"y c #1D0538",
"u c #1D073A",
"i c #1D073C",
"p c #1F063F",
"a c #1C0C3A",
"s c #1F083F",
"d c #1C0D3C",
"f c #20063C",
"g c #20063E",
"h c #20073F",
"j c #1F0640",
"k c #1F0840",
"l c #1E1440",
"z c #210642",
"x c #230747",
"c c #240747",
"v c #220843",
"b c #220944",
"n c #240846",
"m c #210E44",
"M c #230A49",
"N c #250849",
"B c #25084A",
"V c #27094C",
"C c #27094D",
"Z c #260B4C",
"A c #270C4F",
"S c #28094F",
"D c #241D4E",
"F c #270A50",
"G c #2B0B57",
"H c #2C0C56",
"J c #2C0B58",
"K c #2D0C5A",
"L c #2E0D5C",
"P c #2B265F",
"I c #300F62",
"U c #310F62",
"Y c #330F64",
"T c #330F65",
"R c #330F66",
"E c #330F68",
"W c #34106B",
"Q c #2D2761",
"! c #2D2763",
"~ c #302F6A",
"^ c #302F6B",
"/ c #312F6E",
"( c #322F6F",
") c #353778",
"_ c #363778",
"` c #36387B",
/* pixels */
">>>>2>>*;;&&;&;;@@***##*##oOOO++o@o@o  o o oo ooo.O Oooo@ @ ooo  o ooo oo  ooo oo o o o o oo@o@@@@@@@@#*=#=***;;>>>>>>>>>2>>>2>>",
">>><>2>;;;;;;&;@@;#@%%#=##@@++++@o@x oooooo oo o.ooOoooo@+o  ooo@oo o @ ooooo    ooo o Ooo oo@@ooo@@@@###*#*;=**>>>>>>>>>>>>>>>>",
">>>42>2*;;**;&;@=#***###**#@++++o@@@oooo O oo O o OO++o@+@@+@oo  ooo @o@ o o oooooooo O Oooo*oo@@@@@#*<#*#@*;**<>>>>>>>>><>>>>>>",
">>22>2><=*<<&;&;=*###*=*#<2@++++@oo  @  O o  ooooOOO+o@oo@@+ o @@o oo@  @o9oo o  o   o O O o@o@o@@@@###=#*#;**;;>>>>>>>2>9>>>>>>",
">2>2!d2>**<;***;4###=*#=*+++@*$$@ @ooo@  Oo.o.o o@@@++++o+++ @@@@#@oo  @oO o O O @oo@X oo ooo o@o@@@@@@#@@@#&;;;/>>>>>>>>B>>>>>>",
">>2>m42>4>;;***#=#*#%##***++$*$$ooo  o oo oo.oooo o@++++@o++@o oo@ o@oooo o o O o o  XX  ooo o @O@@@@@**;&**;>>>a>>>>>>>>2>>>>>>",
"2>22>2>2>*******hq#*%#=%*+++**<O @ooo@@oooo o.o  @o ++++o@o@@oooo @  o @oo ooOo @o @oo@@O OOo@ o++@@###*;;&;@>>>>>>>>>>2>2>2>2>2",
">2>2>>2><********==%*##***++$$+ooo  o@@o o o.o oo@44++++@o@@@o @ ooo@o@ o o@oOoO @o@ o@@OoOooo@@@@@>y#*#@&;&;>>>>>>>>>2>222>2>2>",
">>2>>>2>*;>&;;;*#*<%*%$**++++@ o@  o @@  o o @oo@9Sn;*@o+++*@@o@ @@o o @ ooooo @@oo +>9;@@+X+X++@ @#q###==*<&;>>>24>>2>2>2>2>2>>",
">>>>>>>*;;&;=***=##$$$%***++++@   ooooo@oo@ o o opTL9@o@++++@o  o@ o@oo  o oo  @ @ +@;r9@>X+X+++o@#*$$#*#*@*;&&2>>>>>>2>>>2>>>>>",
"2>2>>2y9>>;;4,=##*%$%$$%+$$+o@ o @o+@@o  @ooooX@o2vz;ooooo++ooooo  o oooooo o o@@  +@@;&@ +X++++o@#@**$**;**;>;>>>>42>>2>2>>>>9<",
">2>>44j9>>;;,,#=%#$%$%%$$$+o@ @o++++@@@ooo@ o  o+ oo  @  **+o  @ @@ ooo y#ooo @o@+++ @@o @+++++++@#*<<***#**;>>>>>2>>222>>2>22>2",
"2>>;>;>;&&=*#**####,$%$%$+o@ o @o@o*##@# @oo@ @o@o o @ @@@;@ooo o o  @oo@  @o@ o@ @ + oo@ @o++++@@#;<<*$@#;***>>>>;>&>>>>>>>>>>>",
"2>;;;;;&@&,#*#%#=###$$%$***o@@o@@o++#*##o  ooo @ ooo @@o@@@@ o oooooo o @o@  @ @ @oo@+ @o@+@-@++$@#*44**@;#**=>;>>;>>;>>2>>>>>>>",
">>;;&;&;@@**###**#=#$*$*$$@@@@@oo@##***#@o@ @ oo@ @@oo @o@  @ ooooo oo@o@oo@o oo+@oo@ @ ++++-@-+@$*6Bv<*#***4yy;&;;;>;;2>;;;&;>>",
";>;;&&;@***##**##=#**$$$$$@@o@o@@o@@o**o@@@@@@ @o@@o@o@  ooooo @ o o @ @ o@ @@@  + @ @ @@++++-++@@*qSv>*;*@*,hy;&&;;;;&&;;&;&M2>",
">**<*$%$%%%$$*$$##=#@@#@o*@@o+++@@o+o+++XX+++O+++++++o @@  o @XXo @oo @o+X+X+XX+X++X+X+Xo +++++@$$$<64*$$*******;>2>>**;;;&;1;&&",
"@**%$*%%$uu$$$$$#=##>+#*++@@**+@@@+++o+++++++O+++@+-@o@ o@ooo@XXo@   o@oX+X+X++X+XX+X+X+o@X+X+++$$$%*$$**$******;2922><*&;;>;;&;",
">;%*%$$%$%%*$$$*##,#*++o@>@@2r+>>*$O+++++X++@oo*--- ++@@o @o@@X+o@ o o @+X++++++XX+X+X+Xo @ -++-*O$$$$$**$******>224<><;;&;&**;&",
";@$$%%$*%$%%$$$$#*#,++*@++@@@@&2q*O*+@++++++o@@#-+++-+++ @@@ o+X@ @o o@  +++++++++X+X+X+@@@@+@-+*O$$%$*$*****>**>2>44<<*;&&;@*@;",
";;@@$$%$%*$<*$$$#*#*###*@@$$@@*9f<$O$$$$++#o#@o@++@+++++@ @@X+X+ o @@ ;@@@@+OO@@@@@@+ +++@+@>++*$$$$*$***>*%44<>>>>442<**=<**;@#",
"@@***$$$$$$*$**$#@*#*#*#@+$*@@+<<*$$$$*$-+_@o#o*p+-+@+++o@oo+X+X@o@oo@@o ooo++oo@;11-+-++*+>@+@+*$$$+*$*$%*>%<***>>2><;**#*#@##*",
"*#@#@@@@@@$++$$$#;@@####@@$%%$@$$$$$$%%*+@>@@@##-X++++++X+ +X+++@@o @ o @o@ ++o@o*r9-+++@o@@@@+@*O$$$+#><****%******2***##**#*#*",
"##*#@@@@$@+++$$@###;#**#@@*%$$*$*%$%$$$%-+@@**#*@- --+++@X+X+ +o@o@@ @o@ @oo@+@o@*&1>-+@*@@@@@o*+O*$o@*#*#**$**********##=####*#",
"#*#@@@@@O#@++++@@@@@+$@@@$@@+$$$%%*$%$$$*$$*****--#*@++++++o++++o@o@o @@oo +oo@**@@4f*$$%$%$#*@@+**@#@*#=**=*#%****=%%=##,#@@###",
"##@#@o@@@@o+@@+@@@@@@*@@+*@@**%$$%**%$%$$$$*$***-@@@o++*o@++++++@o+o@@@o@o+Xo@@@**;34*$%$$%$*@##++@@#*#**##***%*#*#*%#*O####o@o@",
"O#O#O+oO@o+*+@+@@@@@@$@@@@@@$$%$%$$*<%$*$*******--+>@@++#@o#+++++-++o**@-++Xo@###***#*##$$$$*@>+@>@@###**###*###*###*#@@*#O#++O+",
"#O#O$$+O@+ow$+++@@@@@>@+@@@@$$*$$$%%$$$%$****>**@>@@@@>@**##+*++++@+@bo#++++@*#**#*#;##*$$$$@@@+++@@##@*4*#***#=*##*##*####O++++",
"++++$+++++O+++@@@@@@+@@$+*+$$++@$*$$$%%$%****<***#*#**@**#;*#*#*@>###**@+@+++*@###=###=#$$@++>o@@>@+*###@##@*##*##@@#*@@++++++++",
"++++++++o@++++@@@@o@+@@$$$*$$*++$$$%%$$*>***%%*$#@***@*****#,#=@@@*#####++*++***#=#%#=#=$*+O@@@*@+++@#@;@@*@@*=#=#@@##@@++++++++",
"++++O+++@@+++++@@+++@+$$$$$*+$+@$$$%$%$%**#<*%<>*****;*#*****##;**@**#*#-+@+++4@##*#=#=#*OO*@@@@@@o*###*@@#*##@#@@@##**+++++++++",
"++++++$*#@++++@@@++O++$$$$*@+*$$%$%$%$$****<<<*%****<4<**,<4******###**#@-@*+@@;*##*#*##$$$O@@@@o@@@##*@@@#**##*@#*#@<q@++++++++",
"++++X@@@ o@@oO+++++++*@***#o@@@#=%#%$$*A>*>2>>>>2>;&5r2;&;29,**;*=*#$$*$**##%%%##=##*#*#*>*o@@@;@++- ++@@@@*@o@+>o@+ +++++-j>+++",
"++++++o@@ o@@o+++++**+@#*<**@@@O#*#%****>>>>>2>>>>>;;r2&;&>>*;*###**%*$$#=#*##%%*#*=#*#*#+**@@@@-+++-+++@@*@+@++@@-+-+++X+++@o++",
"@++++oOoo@@o++++@o&;2*o#**++@@@@=#%%***>@>222>>>2&>;>;;1*****#;#*=#*$$$*##*=*##=#%=#==*##*##@@@;++++++-+@@>+>@@+@@+++++++X+X++++",
"+++o + o@ o@++++@@@@>*@@@@>+@@@@###****%>>>>>>>>;&>>>;;&******@@#***>%$*%=#*%%#==###*<*@@*#**>2-+++++-++@@@+@@@o@@@@@+++X+X+++++",
"++ o++$$++++@+$++++>;&@+@@+>@@@@#@****<*>>2>>>>2&>>>>&>;;;*********#$*<*;**##*4q#=#=>***##=#--5>X++++@+-++-@@@-+~@@@@@++@o@++X++",
"o@o@2y*o++++*44$++++@&>-@@+@@@@o@###*<*<>>>>>>>>>>>>>>>>>;****;##*#=******>%,;*<###*@*@@#*##+--@++++++@X@+++&>++w@@@@o++o@   +X+",
" ++@2h<@++++*9>*+@@*@@@+o+*+@@@*#@#>*<*<>>>>>>2>>>>>>>;>>>&;*****=**%***%*qzh,#=#**#+*+*#**#@+X+X+++++X-++o@&;+@o@@@o@o+@o@oXXXX",
"o++++$#@+++++o*@+oDw@@++++++@@@@*@*%*<<%>>>>>>>>>>>>>>>>>>;&@*@**#***$*<%*9Cn,*#%#=#+*+o@###+-+ +XX -+X +++@;@-+@@@@+>-+@oXX@XXX",
" ++++++++++++++++-Dl++++++++##@*#@&r&&;&->&&;;&&>>>>>;;>>**=**#*#;;****>=#4hq,#=#=#=####@@@@XX-+X+X+++++X ++++++@**@;y9+ @o@ @  ",
"Xo+O+++++++++++++++ @+++++++@##*;*@;&&1;;@&;;&1;&>>2>;;>>;,*******#*#;*#**#;**#######**#@@@@++X++X>-+++++-X+++++o<*@@;4+@@@ ooo@",
"X@o+++oo++++++++++ +@+++++o+#@##@*>;;&&>;&;>>>&;>29r>>>>>>******#******###*####=#=#=@>o+@@@@++ Xo@@o+++++++X+X++$*>;@@++o@@oooo ",
" o@+++@@++++++++++++o+++o*@*@*##**@>>*>>2>>>>>>>><9r2>>>>><****#,*#*#*=*,##;***#=#*#@++@@@@@-+++ + ++++++++XX+++$$*++o*+@ooo @ o",
"@@o@@o@o++++++++o +++++++*++#@****;<>>>&>>>>>>>@;;52>>>>>>>;****#*#****#**##*#*#*#**@@o@-+@@+@*++X@oo X++++++XX+$+++++++@o@@o@o ",
"o @ ooo@++@+++++@@+++++++++@@##****<>2>;;>>>rjr>&&>>>;;>>>>;******,*#=**#*###=####@@**++ -@@++++++ @X++XX+++X++++$++++++o@@o @o ",
" @o @@@o+   ++++ ++++ ++o@++*###****&;;;;>>2bIGr;;&&;;;>>>>;*******#@;#,*@*####*#*&@++>@-+++>++9r;@o+X+++X+X++++<zb4o+ @@o@oo@oo",
"o o@ @o @ oo++++--++@++++@@>##=*****&;;;;>>>BWL9&;&>;;;;>>>;******=#*#*#####*####*&;>@o@+X@-++*zFr@oX+X+X+X+++++9KRn@ @oo@o o o ",
"ooOO O   @ oooo@@44qp;#@o@#@#*=**#******>>>>9hy2>-******=<<4=;<<>*##*=####;#**os@@*@+>o+@@@@+@rBj>o@@ @o+X+X+X++4BHq@o  @o ooo o",
"   OOo O oo oo@ ;49xC9+oo#@*##*#*;***<<<>>>>>>>>>@;@*@**,=**;*;<,*@;#**=#;##O#>9@@@o@@*@@@o@@@9y;9+@@@ oX+X+X+++@*** @@o oo o oo",
"@ o o Ooooooo@ @@@*yz2+o*#*##;***;***<>>>22>22>>&;@&****qh<*****,*#;#==#*###@@+@@*@@@@@@o@@@+@@+@@+>o+@o+X+X+X+Xoo##@ @ @@ oo  o",
" o Ooo o o @oooo@o@*;++@###**#@*@#**<*>>>2>22>>>;@;;*;;;hn6*****>,#*=##*@**#@@@@@@@@@@@@@@@@+@++o@+@++@oX+X+X+ + @o@o@ @o oo oo ",
" @oooO##oo   oo@+o++&*@o##,##***@@&;*;;>>2>>>22<********6y****$*4***#=##$$*@+@@@++>@+*#*@@+> @++++++@*=O++X+@@o+@@+++@ &oo oo o ",
"o o o#t=@ooo@@@+++++@@$+#**##*#*,&;&*;;>2>>2>>>;*#******%$$*$*%****#*##***$+@@@@@+@@+o@#@@++@@o@++++#@*#++X+++o+@o++ @ oo@ ooo o",
"oo@ o,g3@@++@o++++++++**;@#=*#*9h4>>&;;2>>2>2>*;*****##*$%$%$%$$##*#####$$@@@@@@*+++@*##@@o+@@@@o@@+#*@@>++++@##o+-@@o@  o o @oo",
"o o@o#**@+OOO+++@++*+$$*#*;**=*1y92>>;>>2>24>><=;;****#@%$%$%$*$***@=#=#@+@@@@@@++*+***#@*+@@@@@@@>+*@;&@@+-o*##@+++ @ @o  o@ooo",
"@o@ o++++++@+@@$+++-#=**#*#;*@**;444<;*<22>2<<**;<4**#*#*###$*$***%%$$*@@@@@@@@@*###;*#**###=##*@>##***###*####*-+++o@,3@o @ @o ",
" @ @++++++++++@@+-@+**#;;*;#****<**<<*;<>>>*=*%<*;;*=##=#=#=$**$$*%%**$+@@@@@@@@###***=##*#*####@@,##=**S##*#=#=++-@o@49*ooo@o @",
" @@ooo@@+++++@$$+++-*#*,*##***;;;&*;=**y;;**=*******#*##*##**+$**$$%$$$$@@@@+@@@#*e###***###*##*@*@#*#*#**=#=#=#-+++o+**#o@@ o@o",
"oo @@@o#++++@++$-@@-*#*#******;;;;;;****;*;*****#**#=#=#####+$+$*$*$+$@@@@@@+@@@*eP=,**###=##=*#*#===**=,##*#*##++-++  oo@@o+@ @",
"o o@o@@o@@+++$$$>@#******#*#**;;;&&;&@;****#**#=*#*#=##=*#+++>o*$$*%$+@@@@++@@@$*#*#**=#**=##,#*=#**#**###*#*#*@@o+@+X+@+X++@+X+",
" @@o@@@#+@++$$$*@@**#*;#*=*,**;*;;;&*;#*****#*=####*#**###@+@@@*$$$$@@@@@@@*@$*$##******###=*#****#****=,#**#*@@>@++X+@@X+XXo +X",
"ooo@o@@#$++++$$$*p**;@***#*#****&;;;@#;*******#**#=#%#=#*#@*@@@@$*$+@@@@@@***$$$#*#****#,##=****#;#*,#*#*##*=*;@>+-++X -- X+X+X+",
"o o@@@@#$$@@@**$*************,**&;;&*@@*#*####=#*##*(e*###@o@@@@*$*+@@@+**<<%*%*=#*#*##**;#*,#************=#**;@@+-+ o@+XX+X+X+X",
"oo@@@++*+++o@;;@$*******;;&;**<**=*%##%#%*##=###$*****+*@@@+%4<h*$++@@@@@>q<*##**@#*#*#;***#@;;*>*;@;;&@**#***;@##*@@o@@o @ o@oo",
"  o@+*>+@*+@@@@>$*$***%*&@;;;***#*#*#*%=##==##**%%$$$*@$@@@+%4%f$$@+@@@@**<$#**#@@*#*****#**;b9*;@@;@;*;*#,##*;;;@$o @ @@@@ @ @ ",
"o  @+++*+>@@@@++$$$*****;&@;**#****#==##*#*##=##$%@+$$@*@@$$%**$*$@@$+$$*$%$*##*@;&;#****#*#;&@;;;&&*@*@**=#,;#;*+$+o @oo@oo @ @",
"o@@o*>++@@@@@@@o$**$*$#*@;;*>4*****##**#%%###=*#*$+++*+$$@$%%$*%$*$@$$$%$$%****#;@;&=*=;****&;;;;@;;****,##*##,,**++o@   o @@ oo",
"o @@qq@*@@@@@@@@$%*$==*=@;@;4b***=*#**#*#==####*$@@@@@@@$*++$$$$$%*$$$$$*##*##**&&;&;;;;**;;;;;;**#****@#*##;#,94*++X+oo@o@Xo@ @",
" o@*92o+@@+o@>@*$$$%####;;*@&;*##*=#########*#=#++@@@@@@*$*$<4%$%$$%$$$%##*#=*=#;&&22>>><<,3;&;;**,*#;**;##*##***@X+XX@  o  @ oo",
" @oo@o@@&>++++*@%$$**##<#***@;+-*=**#@##*#<<**@@@@@@@@++$%$$<f#=b$$$$%$%*=**=q4*&>>>>>2><<qy12*;*******#,##*,###@#o Xooo@ooo @ @",
"@o@ o@@@&++@@+o*$$%$=##=#%*#@>+>*###*#*@#qqq*@@@@@@@@@@$$%$%*#*=*$%%$%*$*#**3hq*;>>2>2>4<<qzr;>*;******;##*;#**@#@oo@ o o @ @o@ ",
" @ @oo@o++++++o@$$**##*#>+@+**++#####@@@@2y4@@@@@@@@@@@@$$$$$%*##=#=##**#==#=,3,;>>22>2>>29r4>44;***#;#=#,##*@#*@oo@@  o @oo  @@",
" o@o @o@+++++-@@O$###=%%@@@*$$@+@@###*@@>*>>@@@@@@@@@@@@*%$%%$*#*#*##*##*###**;;;>>>>>>>2>;>>>>;;*;#*=*#;##,*@##@ o  o@o#*@*@oo ",
" o o@X@o+++@>>>@####*##*@-++++*+o@@@@@@@@@@@@@@@@@@@@@@@$$$%$**#*=**,*********;;>>>>2>42>>>>*;***##*=#*##***&@@+o @ooo@ o**@oooo",
"oo@   o@b+++22@@#O@@##@#+@-X++++@o@@o@@@@@@@@&@@@@@@$@@@$$%$%<******#*;***#=****;22>>44>2>>>;;@@#**@###*#*,*@>++@o @ ooo@o@oo @ ",
"ooo o @o@+++@>++@+@@###*+@+--+++++@@o+++@@@@@@@@@@*$$++@$*$%@;;;*=****<<*****#;*>2>22>>22>>>;;&;=*=*#**##;%y**++@o o oooo@oo @oo",
"  ooooo ++++@+@*++++@@@@+--+++@++@+++@@@@@@@@@@@@@++*$@@$$$$@&;2<<#***<***@;****>>2>>2>>>>>;@;@;*##*,##**#%v*$+  @@ o  o  ooo o ",
"o oooooo+++o@@*$+@@+++@@X++@++-++*@++@@@@@@@**@@@@$+$*@@y*;#@#;4<<**;******#@*@*;>>>>>>>2;>;;&@;**#=####@@**%+ O @ o o  @   o  @",
" o o  @ o++@*>%<**@@+Oo@-X-++-++**@++@@@@@@>4>+**@*$$$**#***@;&>4<*=4********;#*;>22>>>>>&&&;@;&***##*,###**>o+@o oooo@ooooooo o",
"   oo o@ o@@*;;;>&@@++++2@@@++++*+++@@@@@@$<9<***@**#*******&;;;**=**#**&;&&;1&;&494>>>*&;;;&&&;%*$%*$*o@@@o @ @o@o o ooo o O O ",
"    o@ @@o @o*;*+@@o++++@@@o+++-$$@@@@@@@@*%4*$*#*****#***;;;&@;*#*=****;>;&&&;&>944>>;;&;&>>>;;>*%$$*+@@o@@@ooX@  oo@ o o o O o",
"    o o#@X@oo@#@+++++++-@@++++++@@@@@@$*@*$***$****@#***;;;;&;&&*#*#*,*=&&&>;;;&;>2>>>>;;;*4yr;@*#$$$$#*@@@o@ XX o@oo o o o o oo",
"O O  oooo @ oo@o++++++++o>++@++o@@@@@@+$$*$%**%*@********;;;;&;;*******<>>>2jbr;;>>>>>>>><;qr4&;*#*$$*@@@@o@ooX+@@ o oo@oo ooo o",
" o o ooo+X+X@+ ++++++++++@++++o@@@@@@@@+$*******&;&*;@;&**&;&&;&&&&&****;;>jIWx;;;>;&>>>*;;;<,**#*#=@@#oo++oX++X@ o @@o o o.o.o.",
"o ooooOoX+X+oo+Xo@++++++++++++@@@@@@@@+*$$*$$**$&&@;;;&;**;;;;;&;>;&**;;;&;rHKj;&&;;;&;&*******;=###@@##++o++XXXo@ ooooo o.o.o.o",
" o o.o o+++X++X+@ ++++@o+- ++@-@@@@@@@@$%>******&;;&;&;>>**&&2&;@;>>>;*;&&>>992;&;>;;&&&*****;=#;##*@o@o@X+ X+X+ @oo oo ooo.o.o.",
"O o o.o X+++XX+X@+  +oo@++++-++`@@@@@@*****$****&1;2>&@jp*;;;;&>;;;;&;;>>&>>>>&&&1&;&;&;****;*#*####o@o@@+XX+X+Xo  @ @ o o.o.o.o",
"oo oO O +X+X+X+Xo@;1@@@ +@>sO*$$@@&@@@&;$*******1&;22;;jj;&&1&>>;;&;&;1>>>>>>>;;>;>>>&>>>>&>*###*#*#@+++ @o+X+X+oo o o  oO##@ oo",
". oo oOoX+XXXXX+@9Bx*@ @@+++O$$$@@@@;&;&**v*****&&1>2;&2;&;;&&;&;&&&&&&;>>>>>>&1>>>>>>>>>&;&=#*#####o+++@ o +X+X@o@oo @o#=z,oo o",
"o.  Ooo +XXXo +X@;Mj*o@o @o+@+$*******&;**q*****;1;;;&&&&;1&&>&1;&;11&;;>>>>>>&>>>>>>>;;&>>&###**#;**+++o@ oX+X+ @@#    O=t,o o ",
"..o  oooX++X@@@@@&;-#@ooo@@@>+$$@*;*;*;&***>$***;;&&;;;;;;&&>>>;1&;&;&&&&>>>>>&;>>>>>2;&;;;&***###@#++++@ @o+X+Xo ooo o oO## ooo",
"o.o.O O XX@@@@ooX+X+o@ @+++++*+*****;&;;;;>;**$*;&;&&&&>2>&;>>;;&&1&;&;1&>>>&1@>;>>>>>>;&&;>4>*#*+*+@;**@@o@@o @o@@o o     @o o ",
".oo. O O@ o+o@@ +X+Xo @@+++++o$$#***&;@;;;;;****;;;;;;;>>>&&>>>&&&;&&;&&&>>>&>*>;>>>>>;&&;@>42@***+o+2z9@o@  oo  @o@@  o    ooo@",
"o o.o  @ o++++++X+++++++++++#@##@*#*&&&&&;;;**$*;&&&;&&2>>>>>>>&;;&&2&&;1>>;&2j9>>>2>>;&;;&;;;&*+$@*>yCz*o@ @ ooo@@ooo oo  o@ @ ",
"oo o@ o oo o+-+++X++@++@++++@*##*#**&;;1;&;*>***;&;;;&;>>>>;;;;11&&;>;;&&>>;&rj4>22>2>>&2&;@;@@@*$@@@4h9*@ @o@ ooo@@ o   oo@ @oo",
" oOoOoO @9;&@@@@@o+o+++>9r*##o*@*$%**$*;;;;;&&;;&&&;1&&;>>>*;*;;;;&;>>**&2>>&;;>>>2>>;;***%$$$$*$$@@@$$$- @ + X++++++XXXXX@ @@oo",
" o o O o@qy;@@@@@*+ +++*jHq@@@@o$*$*>%;;;;;&;&1&&F&&&&;&*<>>&;&;&&;;@;;*&&&1&&;&;;>>;;;*$**%$*$O$$@+$*$$+@@o@+++-+++++>X@X oo @ ",
"O O ooOoo2>@@o@@@+++++o*5j1@o@@@$$$*****;;;&;&;&>>&&;;;&**;;;@;;;&;@;&**&;&&;1;&;&>;;;**%$$$*$$$o$+$$*+@++@ @++++++++++X @ o@ o ",
"OooOoO O@@&oo@@@++-++o+*&&@@+@;,$$$*****&&&;&&1;&&;1&&&;*;;*&;;&;;&;&;*;;;;;;&;&;&;;;&**%$$**$$$O$+$*$@@+o@@o+@+++++-+++o @@ oo@",
"oo @o oo@@@*@@+++-@#*@o#@++X+++-o***&;;;;11&&;;&;&&&;&&&;;4*****24>;**@42&;&;;;&1&&;=***<$$%*$*$$$$$$$++@oo@@@@@++++++++o ;;@ @ ",
" @  ooo@@@@@@@>@-+@@####X+--+@++@***;;;;&&&&>>>>2>;;1&1;;*******292@*@**;`;&*;;;&;&&**,***%$$*$$$%%$$$@@@@++@@@@++++++++oo@ o@@o",
"o@o @oo@@@++@**++@@;*#*#-@++-+@+*@@;**;;&1&>>>>>>>1&;;&;**%$$***;4;;&;;;;@&;=*<*&;;1<****%$%$$$$$$**++$@@@@@@@@@++++++++@o @ @ @",
"@ o@ @@@@@>@o@+o+@>&*#*@@@@+++-+@@@;@;**&;;>2>>&&;;&&&&&**>$***$;@;;;&;@;&;&***<;&&&%$$**$%$$$*$$*$***$@@@@#*@@@@X++++++o@@o@ oo",
"oo  oo@@@@@@*##**@@;*;*;*+@@@@@@#@**#*#;;&&;1;;;;&;;**,**;#;***$@@+*****=***#*==&;**#=#=@@*+*++*%O%%***@@@@@###@+-@+++++@ooo@@ @",
"@@@@o#@@@@#*####@@@@@>@bb@@@@@@@@*#*****&;&;1;;;;&rr*,***#;#+*+$@;*++**$#*******;@*#*###-94*$$O*%$$*<###@##***@@+++o++++o@@ooo@o",
"@o@@o*####*##*#*o*&;*<*@*@#@@@@@@#@@#**;;&;&>>;;;&>&***=##@#+++*@@#o*$$*****#*#=;;@#*##;++++$*++$@$+*@*@*##=*=@@@+@@++O+@#@#@@o@",
"o*@o#z*#**@*#*##@*;;@;*<@@#;#@@@;##*#**#&;&&;;&;;;>&**##=*@*+*++#*@***$$#*#==*;*@@@*##*#-+-@$+***@@+@@###=####@#-+>++@*+@*##@>++",
"@@@o*@#*##*#*##****%<***#*@@#@@@+>@@*##*;@;@;;&;&1****#=##*@o+++@+##$$$$=#*##*,hq##*##*#-+-++@*@*$$++@#*%%#*Z#*#+++@##o*=###@;@@",
"*@####*##=##*=***><>=###=#@#@@@@+@@@o##*&;;;;@;@&&*;****#;#@++++@*y<$$$%#*#=**4ch**#*###++++>++@+$*$@@#**####==#+-++*#*+##*#@@;#",
"@##@*#*###;*****;>*>#*####*##@@@++o*@@@@*@&@;@>@&;;@@*##*##o++++++%%$$$$##@;@#;q<*@@+@#@@+++X@+++@$$@@@####=#*#=@@-+#==#=#%#*#@#",
"#****@#*;**>=*,*;;@;*%=*#**##@@@*++@*@@#@**;;@&-@@@@#**###*@++++++#O$$$$@*########>+*o*@++++o@+++@@@>@*#%%#==*##++-+=##=#*#*#*@;",
"#*,#@@@;#*#**;*;&*>;*##*#=;<*@@*@+21;@++>@;@+@-+$$*$$@@@@@@@++++++++o@o*@o++@-++@@@@#@*++o@@++++++++#;#*=######*->@@#*@*#####=**",
";#*#*&;;;*;**#*#;@@;=#=##**,*@@@+-ry*@++@@@@-++-$$$$++@@o@oo++++++++#@#@@@++++++@o@@@o*++@Oo++++++@+*##**=#==#=#@+^D@*##@;*#=##*",
"***@**;@****#;**@;;;#=##*=6y;*>2-+2*@*@@+o@@+--+$+@+@@+@*+@@++@++o++qz4@@+++++++@@o@@@o+@@++++++++o*##O*#**##=#*#@@;**@@**#***;*",
"<*****;&**;#***@*&;&*****4SJp*;;@o@-@oo++@@@+@+++O+++++$++ @ @X+X @+hSh;@o+o++++o@@oooo o@ O+++o++*##*<#=##****#;;@@;;;>***<**<<",
"*<<<<>*;*%****#*********>rKTp*@*+++++++oo+o+>@@+++++o@@*+;@@+X+X+X++9z;@++@@o+++@@o@@oo# oX@@@o@+++>**<**##,*#,***=**<42>>2k*#<<",
"%F<$%<@><<4%**;***;#*@***>yj2@@oX+++X+ @++++@&++++++@ooo@4;*+o+++@++@+@o++o@@-++ @@oooo + +Xo@o@++@@#=<<=##****##**<<%4>>>>@*<%<",
"*>*%**<*;;***@*;@*@**;***@+@@+@o+X+X+Xoo@+++@ @+++++o@o #99*+++++++++ @@o+@@1;-+ooooo oO@+X+o@ o++@@#*=<<=**#;#*;*,<444*;&*>*<*<",
"<%<<<<%!;*>****#*****##**o**++O++X++X+@o+-++o@@o++++@o@o@*;#+*+o++-++@  X @&;2++@o @ oO o +X o@@+o@*#*=44=********<<>44>>>>>><*%",
"<*>>>>>Q;;&;&;****$*@++-*+**+@o+@ooo @ @ @o o oo++ @o @o@ @@@@o@@o@@o@@XX@o@@@@oOoo OOOo@ o   o+*9y2;**><=*#******244<4>>2>2>>>>",
"%<>>>>>>;;;&;@#*h%***-+@*@+@+>+@@o @ ooo@ooo@o@o++@@o@o X o oo@oo@@ @ o o @ @oo@O o OoO  oo@@@++4HIz;@#@#***#**,**>><42>>>229>>>",
"<::>>>>>;;;#;@@*O***@@@@++*+++++@ooo@o   oooo oo@o o o @oo @o@@@@o @ @@oo@ @@ o@ o.o#O Oooo o@+@4FLb#@;@#*#==******<>>2H>>2>92>>",
"<*::-*2-;;**@;@@$O+@@@@@$++++-++#o@oo oo o @ o oo @o@ oo@ @oo @o++oo@  @o oo@oo ooo.OoO  ooo o@@*9r>#**##=*##;#,**>>>>>222>2<>2>",
">>>>>>2>*****%$%*O+*+++@++++--+@#o@woo o  @  o  ooo ooo o ooo @@++o+ooo  @oo  @ooo.oo o @;oo@@@@#*;##**@@#*#@;>@**<<>2>>>44>>2>>",
">2>>>>2&****$$%$O*$+-+- --+++>++O#@zoo  o  oo  oo@ oo o@o@ @ ooo++ oo @oo o o@o o o. o o ooo+@++#*###;#**@**;&&>*><*2>>>>>222>>>",
">>>>>;;&;****$$$$$*$@++-++++++++#O#Oooo   o  o    ooooo o @ @oooo XXX@@ooo o o @ oo O o  o o*@@@o@*##=#*@;;@;&*>**%<>>>>>2>>>>>>",
">>>>>>2&*<%*<%****$$+-++@+++++++O#o## O OO Oo oooo o @ o ooo o oo@ X oo @ oo@ oooo O Oo@ oo@o@@+o*####*#@;@;&;>**<*<>>>>>>>2>>>>"
};
