/* XPM */
static char *_c54185e896642e2c2737fd50c234cdbcK6E5tMoCXI3mev3[] = {
/* columns rows colors chars-per-pixel */
"128 128 59 1 ",
"  c #081021",
". c #081022",
"X c #081122",
"o c #091122",
"O c #091123",
"+ c #091223",
"@ c #091225",
"# c #091325",
"$ c #0A1324",
"% c #0A1327",
"& c #0B1427",
"* c #091428",
"= c #0B1428",
"- c #0B142A",
"; c #0A152A",
": c #0B162B",
"> c #0B172B",
", c #0C162B",
"< c #0B152C",
"1 c #0C172C",
"2 c #0C172D",
"3 c #0B182E",
"4 c #0C182F",
"5 c #0C1730",
"6 c #0C1830",
"7 c #0C1A33",
"8 c #0E1B36",
"9 c #0D1C36",
"0 c #0F1C37",
"q c #0E1B38",
"w c #0E1C38",
"e c #0F1D3B",
"r c #101D3A",
"t c #101F3D",
"y c #10203E",
"u c #112040",
"i c #102140",
"p c #122142",
"a c #112243",
"s c #122243",
"d c #122346",
"f c #122445",
"g c #132548",
"h c #142549",
"j c #14274D",
"k c #14274F",
"l c #15284F",
"z c #152850",
"x c #162952",
"c c #162A52",
"v c #172C56",
"b c #172D5A",
"n c #182F5C",
"m c #192E5D",
"M c #1A3262",
"N c #1B3364",
"B c #1B3466",
"V c #1B3468",
"C c #1C366B",
/* pixels */
"2242422,<<3<<::%&%,,-%%==%+%&+&+%+%+%++ + + oooooo + +++ +%++++ + + & +&  oooooooooooooooo+%&#&+&&#:##:&==,=2<::44,4,4,426222422",
"2246444:<<>:<:::&:--,-&&&%&%+&+&+%+f++ + + +oooooo++o&+&+% +++ + + + ++ ++o ooooooooooooooo+ :+&&+&%&&:&&&%,<<:<4,4,4,4,22222222",
"2246444:<<::<:::%,%%,==&,&&&&+&+%++%++  ooooooooo+&+&+&+&,,++++ ++oo+ ++++  oooooo++ooooooo+:  && &>%::&:%%,<:<6,4,4,4,424222222",
"22644662::443::&2&&&===&%56&+&+&+%+++ ++oooooooo,+&+%&+&+%+ +++%&&oo+ %++ r+ooooooo+oooooooo& : &&&&&#&:&&&%<:<<4,4,4,4,28222222",
"44444444522<:-:-2=-%&=-%:#&&&%&&%+%+++ +oooooooo+&+& &+&+&+&+%+%&% = =% &oo oooo ++++++ oo+o% &&&&&%#&#:%%&:::,,,4,4,4,46h222222",
"2444w64452<:::-:==-===-=:&& &,,%+% +++++oooooo&o ++&&+&+&+&+%++++ + % ++ oo+oooo  +++++ oo++++ &#& &&#%:-:,,:,444,4,4,4464422222",
"444444442<<::::-p8,=,%==:&&+:::%++++o% #oooooooo%++++&+&+&&+++% &+++%%+% o  % =+ : &+++%% ++++% &#&%%%&:,-:::4,4,4,4,4,444444464",
"444444442<<-:-:,=2&,,%=,:%+%%&%++ +++%:#oooooooo+=52&+&+&&+&%%+  ++  ++ oo & &++ : # &%% %% %  &#&&:9:&%%::::44,4,4,4,4464444444",
"22444442<<4:-<<-%-=,&%:::%%%%&    +++&& ++# +++++8kh5,+%+%%&%%+%%+%+%++ooo= =%+&% & ::93:  &#  :# &39&&%&:::<<642262244464444442",
"224222,2<<:,22<%&-==,%%::%#%   &% ++&  &  &+ +++%tNm8++%%+&++%++  %  +++oooo  +  % # <99&3#  &#  &#&%%&,,:::::<>22444444444,2222",
"444244r822:282&&====%&%%%&##&+++ # #&%  #+++++ +%2pu=++%+&%+ ++ ++o%+o% o  o +% # # #<33## &:&& #&&#4:%-:--::,:42226446442444464",
"444266t822:222=%===%,&:&&&&#  &+###&#%: ++++++ :+++% %+ +%,&%+ +o+o+ooo+u&oo+ %+# :## & % & &+####&<4,,:-::%:4,,22224464,4444446",
"444:4:22::2==<:%====:%&&&&&##  :& &#&:: &#+&# & +++++%+%+%:& %+ o+ +++o -  %+%+% : & # # #&&& &&&#%:<<::%%::::4422222222,4444444",
"22<<::::%:==-=,&====%%&&&:&##:& +&&&&&&     +& #%+++++ %+&%%++  + + +++% %++& + # # : & & #&&:&#&>::39:%%:-:::4<22222::24,442,,4",
"42:<<<::%=2=-,%&====&:&&&:#&:  :&+%&&:3:: &   ##++%+++++%% ++% %&+ +% &+- %++++% & # # : # ::::#&#:7gp3-%,:-2eq<:3<<4:<24:<<<2,4",
"22:<<::&&===%%%&====%%:&%&&&&&& +& &%%<& &+&&:  +%+%%+%++ ++++++  +  #  %++ %%+ # : & # & #%#:#&#:&9zf7:&,-:2tr<:<<<3<:::::<3f4:",
"<::,:::&&2&&&%3 -,,%&&:&&#&#&% :%%+%+ +&  :&&&  #&#:: #  &&+    +  +  ++ :  ##& +#  &# # : :%%&#&&%252:%%:-:-:::<64444,<<3:22<<3",
"<:-,%:%%&ww&::%&%%%%3 %%#&#:::&+&+&++%&+ &&#& &&&#&#&&##+#  #&#% &+ +&%+ : &# + # :# # &### %+#3&&%,2%%:%-:<::--:68444,::::2<<::",
"<::%%%:%&::%%%%%%,&&&:%&:#:#79&:,,%&&& &# +&&&:#>:#&+& ## > &&& +%%% % %*  && :&:&  # ##   #&&: &%%&%,-:,,-::-::4666445<<:<:::::",
":::%:&&%&%%:&&:#%%,2&+:+#&#&&&&793&&&%&#& &+ %#&#&:#&#: :###+  %&  +++ %  &&&+& + +##&# &#&:+&&&%:%&&&%::-::22::2666445<<:::%,%:",
":===:&&:&::2:&&:%&:%%&%::#%##&:9w62&%%%%&# & &&#:&&##&##  *&%+% %%+ +%,+ :&&&+&+ &3<  &&&#:#&#&&&:%%&&,:-,::225<2425562<:-,,=,%&",
"%%==&#&#=-%%&>&&&&&&&&&&#:#:&#&<::-%%,&-&&&&&&#&w<#:&#&  &#  + %  %%++%%&   +&+&::7<<:&##:#&#:##&&&&&&%::%-:222<,,2266:,::,%-%&&",
"%,==&&%&%&%&&#&:&&,%&:%&%%:::#&&&&&&&,,=&&&&&+&#&#&##&:##  :%++%&%++%+ %: &&&&&+ :77:&#&&#&#:##: :%:%&%,2::::::,,::,6<:%%%,%=&=%",
"&%-=&+:+:&&&#&+&+&%::+%& :#:&&&:%%,&%%==>&:&:&>&::#:&& &&&   %++& %+  %+ # +++ %&&:73:#&%#::#&&#&%&+%%,%:-:--:-%,:-:,,::%,&%=&%,",
"%&&&+%%+#&+&+&&&&&#&%#:#&&:#:&&:=2===-====%:-::<3:&&% &&&+++%+ %++&+  &&  ##+& &:#<9y,%%&%,%&:#&&:&&&#&:%:::-:::-:::::%:&&&+&%&&",
"%&&&%&%&&#&+%& &:+::%:#&#:#&&&%#===,:2===&%-:-::::%%&%#&&%+&+&+&&&+&&:+&: &  &::&:<<4,&:&:&%&:-%&#:&#:%::%%::-:,::%:%&%&-=&&+&++",
"+&+&&+%++&&&&& & :&#: :#&#&#:&&:==%,-,%==,::::::::%:#:&#%&%+&+&+#&&& <&&&#&  :&&&&>:&&&%&&%,&&#:#&&#&&%%:&#:%:%&%%&&%%#:%%+&&+&+",
"&+&+&&+&&##3&+&&:+#:#:#&#:#:%&%%=&&&%%&&-=<-::::::%%&#&:,%%%&&&%&#&&%f#&#&: %%&%&%,%%%,-&&%%&:&#:##:&%%:7&&::%%&%%&%%:&#%%&++&+&",
"&+&+&&+&+&+:+&#:#:#&&#&&&&#&%&&#&&&%&%%%,::-:-:-%%%%::&::-%%-%&%&&&&&&%%>#:#&&:%:%======&& 3&&#&%:%%&%&&&: :%:%:&&&&&%:&&+&+&+&+",
"+&+&&+&+&#&+&#&#&#: #%#:&&:&&& &%%,%&,&-:--:-::-&-:::&&:::,:,,,%:&%%:&:&#&#&#::&%&======&+&&> :#&+%##:&&&+:+%&&:&&:+&&%%+&+&+&+&",
"&+&+&++&+&+&+&+&#&#&&#&#&:>&&3:%%,====%,-<:,22,::::-::::<::2:-%,::%:%:%&::&#&#3%%%&=====,&%&#&#& &#:#&:%&&%%:%: :&%&&&,&&+&+&+&+",
"+&+&+&+:>+&+&+:#&+&+#&#%-#& : &&======--:-222222::::<8::::22:::-:&%&%:%%&&&&#::#&,&&====%%&+:#:#&::#&&&%&&&::%&: &:+&86&+&+&+&+&",
"&+&+ &  #& &#&+&&#&&#&&:::&&:#:&:&:%&&:l:<24444,24<:6r62::692:::-,:-====%-%%====&&&%&%%%:::&&&%%+:#&#&#>#&#&&#:#&#:##&+&+&#a> &#",
"+&+&: #&# : &#+& &#::#& :3:##&&&%%&%::::<2444442444:386:::26:-%,%%:-===&&=,2=====%::&:&:%&%&+&%%&#&+&#&#:#:&#:&&#&#&&#&+ #&&#& &",
"&#&+ &++&& &&+&+ :&37&&&:<:&:#&&%%::::::<24444,44:4:2<<:::,:-:,%%,-<==%&=,,===&===&&:::%%&%%:%::#& &#&#:#&&::%% :#:##>& # # &#&#",
"+&& & &+ #: +&+&&#&3::&%: :##&##&%%::::44242,,4,<:,,2:<3::::,,%%%,2==2%:-,,===%-==&::<:%%,:%:37:&#&&&#&#:#&##%%&+&#&&#&+ & :+&+&",
"&& & &+&&+  &&&& &&#:>>&#&#:#&#&%&::::,:2224,,44<<44222::::::::-,,,:%,:-:-:%=-2r====::::&&:%:37: &&+#&#:#&#&&&#>&#:&#&+&&+++ && ",
"& &+3w3  &&&:7>&&##&&3:#&#&#:#&#&&&%::4,222,4444224,22222<:::-,%%%%::-::-:,22,22====&:&&&&,%#:::# +&&#&#&#:#::>+#:#&: &+# & # & ",
" +&+797&:#&&:93&#&&&#<>&#&#&#:#:&%:&:<7422,4,442222222:222<:-:%-%:,:,:,,%,5pt2==%%==+:+&&&%%#:: +&&#:###&&#%::#:&#:# &&&#  &++ #",
" &+&&&%& & &%#&&&+&: #+&&#&#&#&#&&:::<<<224,4,422222222222<::-,:,-:-%::222wzh5==&,-=:&&%&&%%&+& # ++&# # #&#:#&##&#&&>3+ : &++##",
"+%&+&+&+&#&o&#&#&&+: &&+&&+:+%&&%%:8::<::::<<::<2224,::42<<::::-:-:%,:%2,:2tw6==&===%%%%#:#:++3& # &+&++&#& & &#%::%&w9&&  ++ #+",
"+++&+&+& &###$#& && + +&& & :%:&&,%<::<:::<<<33<22544<:,2<<:::-:%:-::-:,&&:%=2======&,&&&#&#&  #: 3>&+&++&: #&#&&<:,&44+ :: +&+ ",
"++%+&+&+& &#$#&o&+### &  &&&%&&&,,:<:::::::222::,5684,44222:-::-,:-,:-%%%&%:-&======&+&%#:#&&+ ## +&+&+&&# + #&#%,4&&++%&+&&++++",
"o++&+&+&#&#&$$#& &: &&&& &&&:+%%-::2224,2222224426r944,4222:::-::-:%-,,&,&&%&&======::%&&#:#&:& :#++&+&  : #&+ &+%&%&&,++&+++%++",
"o++%%+&+&+##&$&o# ##& &#&#>#&&&::-:24,442222444,:3644422222<:::--::-::-%:%%%%:%::&:&&&&%#:#:#:#&   & # &&#+&   &&%&+%+%+%+%%%+oo",
"+%+++++&+&+#+&#&&+&&#: &&&#&&&&,::<244,:22224tr2:3442:<5224<:<:::,%:%,:,%::%&&%&%%%%&& :&#&#&#&:#& : &:  &&# :#++&%%+%%%%%++o+oo",
"o+%o+%&+++#oo#&o &&&& #&&#&#%%%:::<<<<<<,222fMv8:<<<:::2222:::&<%,,,%,%,:%:&%&&&&%:#:#&&#:#&#:369<-   :  #&&&&  3ip7+++%+%%++ oo",
"oo%++%++++oo#&&o&>+&& # #&#:%%::::::::3<<546hVb9:<<2::::252::::<::%,%%-%%%%&&&&%%:::&:#&&#:#&#<yzw% :  &&  +&+&&9bBp%%++++%++%+o",
"o+++o%oo + ++++&336rr<%+%&&&&&%,-:-::-<<4,4,0yr4,,,:::-:<4,64:22,<-%-%%:%%,%&%:w#&::&&#&#&#& :9hi7#& &&#&     %:8fzt& #  ++ooooo",
"oooooooo+++ +& &:78fz8+%+&&&&&%::-:::225>,,44422::%:-:::664:::<2:-%,,,,,,&&&&&,w:##&&#:#:#:#>#9w<7&#&#    :::&  &<4< : :++++oo++",
"oooooooo++++ &++%%:8y7%%%%&&,%,:-,::262244444442:-:-::-:qt2::::::-%,==%,%&,%& &&#&#:#&#&#%#&+&&##&#&&&& #&    %+%+&+  & &  +oo++",
"oooooooo++ ++++++%%:<&+&%==%%-:%%--:2<2244444442-:-::<-:rf8::::-2::,==&%%&%&&:%&:#&#:#:#:#&#&: &: &#&#&&+ &# & ++++&%# # #++oooo",
"+  +o%%%&        #&&:&+&%,,,=,-%%%::<<3444444444:-::::::58,,-:::22,==-%%:&&&:#:#&: &+&&&#&&#&#&  :+& <3 # : +% ++%&  :+:+ ++oooo",
" ++++:8,& &#&&:&& # &&%&&&%%-&%:2::,:<:444>4444<::--::-:,,&:%::%-2==%-,&&:#:#&#&&+3#&&&%%##&#&#&& #&&&>&:  &%%%&%%3   ++++ +oooo",
"++%+%:wq&#&+&#&+&&& %%::%%-,%=:8t622:::444444,<::<::,=%%&=&&%%%:%%%=&==&#&&#&#:#&:&&%:%%% &#&&##&#&&%%&:>#&&&%&%+&&&&& + +++ %% ",
"+%+++%:-+&+&+&+&&#&&+%:::-:-,,22r8424:444444446<<<<-,==&&%,&&&%%,:&====%&##:#:#&&+&%:::%:&&&#:&&#:#&:#::&&&&&&&&&&&% # #+   & %+",
"++%++%&+&+&&& ::#>#&%,-:-,:-::-:25565<<66444262<<44<,-%&,&==%%%-::<##&:##:#:#:#&&&&%::,-&%,&&%=&&:&&&::%%&&%&&%&:+%:+%37%%+++%++",
"% %++&+&+&%+& &+&##>,%%,:%%%::::22242<<6444:<<:::<3<,=-%%&==::::-:<&&:&&&#&#&#:#%%&:-:&%,%%%&,%&&&%:&<::k%&,==%=&&%%+%39, %+%  %",
"+% +%+ &+&+& :#&&&:::::%-:&&::<<<<,2::2q::::<<:::::&===&&&-%:#&&%%::&&:##&#&#&#&&,==:-%%%%=-==,%&%&%%,-:,:,%====:&&&+%&>,+%+% +%",
"+++%+&&&&+&+%#:&#&&:%-::::,,::<<3<<,-:::<:::::--:&:&===&&&&&#&&&:%&&:##&:#:#:#:#%%,=%,,:&&====&%:&::%%:-===%====%%&%++ :++%% %+ ",
" ++&+&&%&%+&+&&%:::-:-:-%,%,::<<::::-%:-<>::-:,,%%====%&,%&& :&:%&:%:#&##:&&#:#&==2%::,%&%&,%,%%&&,%,:%,,%&,&%&%& &&  :    &%+& ",
"+ %+%%+&+&%+&&:#%:-:-::%-::-:-<:<<::2=--::,,%-===&====,%%%:+:+&&%%&%&&#:&#&%&#:&==:-:::,:%%::-,:,%%:,:-:%%&,:%:%:#&&:  &&:  % : ",
" +&++&&%&%+&&&:&%e<:::-::-:::::-:<4:%%&,:::&%&========--+&+&#:#:::&&: :##:::#&&&&==,-:-%,%&&-::-,-:-%::%:%:%:::%:&#:&  :#  : &  ",
"+ %%&&&&&%&%&&&&::::%::--:%,:2::::::,%=,&&%%&&======2,%=,%:%&#&#:&&&%%#&&:7<<:::&%-&%%-:,:%,:-::::-:,-:,:%::-::&%%:## &# : : # &",
"   &#%&&:#&#&::&:,:-:-:,:<-::::::-:,,:,&%,%:%%%%%::::%#&:%&&,52u%&&#&%%+:3464%,%:%%%&&%,:,%,::-:-::%,:%,-:-,-:::%,%% #& : :   & ",
"# &#&:::&&#&#%%:%-%:-:-%:-::<:-:-:-%%&%%&&%&&:&:%%%:%::&%&&&:82r%&#&&&%&&:<::%&&&&&,,,::-%%:2f8::--::--::-:%:-::%%%+&  &&+  : ##",
"++ &#&#&&#:#:#&#%%,-:%-::-::<:%::-,-%&:%&=%%:%%&%:&#&&&:%+%&%,==&&:#&&%=:&:%&%&&&:::-:<:,%,::&:3:<:-%::%,,&&%,&,:%&%: #  +&&#  #",
"++&#&:&&&: :%%#:&%,%%,:--:::<7:-%:%,-=&&==:&&&-#%%&#3 #&%:%&%%==::#&%%,&&%%:,,%,&:::::<<:,%::::<<:::,-:,===%%&,6:,%+  & #+ #&&# ",
"+#&&ew&&#&#&&#:#,&,%=,=::-:%9p::,%&&%&&%====&:&:&&&+#:#:&&&:%&==%%&%&:%&=&,%,%,::<<::,,,::2<<<:<::-::%,:,=-,&%64<<&  :+&: &    :",
"& :#37&&:#&+#:&&%&&&==-,-::::&%::%,,%,:%====&&&&&&&&&#&#+:&%28==:&&&&%:&=&%%:-:-<<<4224,52253<:::-:--::-==%%,:,::: &  +#  &  :  ",
" #  & %&::%&&#&&%,&:&=&2%-:%::&:&&--&&%,%,22&&:#&#: &:&&%%:%2r==p#-%&%&%=2%,2822:2222244269844:::<:::-%,%==,%::%%&+ ++++ & #&#& ",
"## &% &:+#: #:#>%%&%&%,&%,-%&:#:=&%%&&%%%8t5::#&#:#:& &&&:&%%-2,:&%::%:%==:25tq::244444466wf944:<<::-:-:--=&&%&&&+ %+++   ##  ##",
"&   && :&&+ &&&#&&&&:&:%:&%&::#&=-+,&&+::7w7:&:#:#&#:#:#%&&%&&&&&%&%==%:==%&,25<:444444444886622<:::=2-,=,%&&,%&+%%++ +  # # & *",
" #:  #   &#&&&+&+&,+&&&%&&&&& :#%%&&&%&&#:<:&&#&#&#:#&#&%%,%&&%%&,&%=&&%==%:,:<<:2,4444444:46522<:-%,=%%-%%,%%%&%+ ++%+%&<%:& # ",
"#+& ++:&:#&+::::&&&%&&:%&::#%&#&%%&&#& 3#&#: &&#:#:#&#:#%:&%,-::,2-:,,<:,-:-::3<44444444424,<<,,,%%&====%-,,:%%% %++++ ++<3:+  #",
"   &&#  y&+&37: &+&%&&&%&:#&&+&#+&+%& &&:#&#3: >#&#&&:#&-,&,,:-:==::-:5<,:-::::<<444444442,4:3%%%,,=====%:2-%%%%   %++%+& # # & ",
"oooo +++: &&%:&&&&+:&&&##:&#&#&#&#&##&&+#&#&:#&#:#&%:#&#%%,&%,222<<<%,22:-:,:::-264644444222:-:-,--:%,=&&,:q:%%%%%++ooo    %+&  ",
"oooo#  +&&+&%:#%% &#%%#::#&&#&#&#&#&&##&:#:##>#<#&#:&&#:--%%%:,552&<::2:::-%::%:22422444224<::-::-,,%-%,%%2p,%++++++ooo%+&+o++++",
"oooooo+# && %%:&&&#& &&#&&:#:#:#:&&#&#&##&&::&: :&&#%#&&8==%&&<582:::-:--:-:,%,::222224,4:2<:-:--%%=%&&%&&,::%+%++++oo++& oooo++",
"ooooo+++:  %::::::&#:& :#:#&#&#&::#&#&#:&&&373#&:#:#&:::=,=2==<262::8::::-:-::,%244422,4,3<<-:-:::==,%=%&&:::++++ % oo+++ +ooooo",
"o +oo% % +:%::<<3>&>+&&#7#&#&#&#& : #&#&#:%396::%%,%,:-::::::-<:2:::--::<<3<<3::,2864,,2<<<<>:::::&&#&>#&&& + ++%% ++ oooooooooo",
"o   oo%  &  %:::&& &&+##&##&& +&#:#::#:#&#::3<&::,,::-:::::::::::--,:::::2::::::2896,4<,<<<64,:::::&::&&&&&:&:   ++  +oooooooooo",
"    ++% & *% :% &+&&+#&&&#&##&&#&#:##& &#:&%%::::%%:%:--<<-<::::-%%-<<::,,>64<::<262,46<<<29w92,--&&:%&+#&&  +#++%%    +oooooooo",
"oooo++ % & #&  :+& +&# :#&#&:& &#:#&:#:&:&%:,-::-:,:,:::<<<<::::::,=:<-2,446pf64<6224,4,22,496,,%%%:%%>:&# : # &++++&++ oooooooo",
"oooooo++&#+  #& &&+&+&+&&# &#&&#:#&#:#&:%,-::-:%::::::::3::<<3::::&::::<<<6rMCp3<<2<,44,:<<42:::%:%&&&&   &  : +%  +% %   oooooo",
"oooooo %  #&& :  &&+&+&+#&&&&+#&#&#:#&#&%%:,-::,::&::::::::3::2::4:::::<<:<9vny<<<<<:<::::::<:::&&=&#&#&:&& &  +++%+%+++o&oooooo",
"oooooooo#&++ &   & &+&:&&#&+&:&#:#:#:#::,,:%:--::<<<<<:44::<<4::::442<<<:::,9r4,3<2:::::::><<<-%%%%&+&+&#&  :   %++  ++ o&oooooo",
"ooooooo% #& :  : : &   &+&#&&##:#&#&#&:&-:-:-:::<:362<:yr:<<<3:4<:<<<<<22:44,4<<3<:::::::::<<:%,%,&&&+&& # *  :& %++++ + &oooooo",
" oooo+++# #+&#+& :<7-+  &#3e+&+%&%:-%%:::%:-<<<<<33464:yy3<<::44<3::<3:44,4,4::<4:,44,4,44::,,%&&&&&&& ++%  +% #++++oooo &<%++++",
"ooooo+++ : #  # &3gf:+%% &&#:%:%&%%%,::::,u:::<<<<<64,:4:<::<::<<<<:<::<,4,4,4::,44,,4,4,,::&%%%%&&%&%&  %+%% & +%%%oooo 5r5++ +",
"o oooo++  + # # :7fa< %  :#&&&&:&,:::::<::8:::::::<<<3:<:<::<4<<<<<<3::34,4,4,6322,44><<:24:%-==:%%%&&& ++%%%&  +%%  ooo%=r-+ ++",
"o oooo +#&+&&& : >33%% % &&&> &&%:::::<<:::<%:::43<:<<:<:3::442<3::3<<:<,4,4,4><244,44<<::::,,==%:&:##&&%+   + :++&&     +2%+++ ",
"ooo + + &  :#% #  &  + #&&& %&&,:::-:::<:36<,:-:::::3<:,44::22::::3::::<:44,::<<:222222<-<<266==%&:+:&>:%% %+++% +&+%      + +++",
"oooo + +  & #%: : +#&+&  &#&+&&&%:-::::<:<<<:-,%4<:::<:44,<:222:<<<<3<:3:,,4<2<,:22242<:::<282&%&:&&#7i9=+% +&+  &+%=       ++%+",
"oo+o  # ++ &:  & #&#&#&#&#& %&&%%%:-::::<<<<:::-:::<:<<4,46,44433<<:4::<<42:<6y4224442::::-,2,,,:%&&<wkp<%&+% ++ +&++  o o++&+++",
"oo+o&+++++&++&&&& #&#&#&#&#&%&&%::%:::3:3<<<::::<<:<:::,4,4::::<::3:2:<<<44:<9p92444422:5::%%%%%&%&&:6y9%&  &+++&&+% &   o++  %+",
"o+oo%+oo%75%%&#&#&# &&&:994&+&&&:%&:-::<<<<<3::3::<3:<3::3<,:::<<<<:22:::444<<:4444443<<::&&:&&&:%&#::&&#& ## ##& : #oo#o#o+&& +",
"o%oooo%+:98:%&3 :#&# %#:iz9+&+&&&%:,:-<<<<>3<<<<4k<::<:::34><<:3<<:::<<:::::<:::::24:<<:::&%%3 :& #&#&&#:##  :&##&#&&o>#Xo&o +%+",
"o+ooo%oo&39#&%+&#>&  &&:wy7%+&%&:%%:-::-<::<::<<:<<:<<::3:<<<:<<<<:-:::-::<33:<3::4::::::-&::%&%&&&#&:#:#&### &&&+&+#&& #X&o & +",
"ooo%ooo+%&%& :&&&+&&:  %<3&%&+&7&&%%::::<:3<:3<:::<3<:::<<<<::<:<<:-:::22:<3<:::<:<<<::::%%&:%&& :&&&#&#%## &&&##&+&##&+Xo##  %o",
"++& oo+%&#:#+&&+#::%&&#%#:*&+& 3&:::<<<<3:3:::::><::<::<:-5::-::664,-:-22<<3<<<<<3::<<:::%&&%%:&&%&%:&#&###&> :+&+& &&+&+ :3&& #",
"++  +++%#:#&&:%%:&#&&&&&&#&#&&&&&&::<<<:<:<:,4,446<3<33<::::-:-:696,:-::<<::<<<<<<<<<<<::%==%:%&&%:%%%:#&#&#&&&&+&#&&#&+%#   +: ",
"+& %% %%&#&%&::%&&:::%%&#:#&#: >%&::>:::<:<444,,4,<<:::::::-:-::224,-:-::::::<:2::3::-::,,==%%&&&:&:>&#%#:#::&&%&+& #&+&++#: &  ",
"+ & ++%%#:#> &%:&##<::%&&#:#&#&#%%%:::::3:<4444:::<::3<<:-:%-::%:%:::-:::-:::::2::::,%--:===:#:&%%&:& :%&#&#&#%&#&#&&+&++% #+# &",
"& ++# :&#&&+&&&%&%%:::<-:&:&%&#&: &:::-:<::<<3<<::<<:<<<:,%-3:&%%&%,%::::-:-:-:2::,,-&,%:%&%:%:&&%&:::%&##&#:%%&#&&&&+&+%+% + & ",
" : & &&&:&&:&%&&&%%%:<:pp##: &&#%%:&:::::<::73<<:<r9-,:::%&% &&:==%:%:-:::-:-:-:-:==%%&&%97:%%+&:%%%7:%&&&&:%:%&> &++&+++%: +& &",
"&#:# :&%%%:&==%%&,-:::::3&&##&#::#%:%:-%::::33:-<:2<::,,,%,-&:&&=&&%%%%-&::::%,::,%=%:==:&&#%&&%:#&&:#%#%%:%-:&%#&&:&&%%&&&&&&:&",
"#&&&&p&&%::#===%%::::::::&#&:#&#&&&&%::::<::::::<:3<:-:%:,%%&+&+-%&&,,%%%%%:-::-%%&&%%--&>#>&&&:%&&&#:%:&:&&%,&%:#&+&&%:&&&&&:&&",
"&##%%::%:%&,%&-:::,<::-::::&#:#&&: &&&%,:-:-::::3:2<::,%%&&&+&+&%&&&%&,%&:%:&<9e8%:&&&&&>#&#&*&&:%#&#:&&:%:%k&==#:#&&&&%&&:% &&:",
"#:%:&&&%&%%%=,:-:<2<:%-%&&##&#:#&+3#&%&&::-::%-:::=2-:,%&&&&&%&++,9,%%&&%%%&&<<fw:%%&%&&#&#&#&#&&%::&#&&&%&%&&==&#:#&&%:,%%%>&#&",
"&&&#::%%&%,:2::::45<:##&&&#&*&#&%:%&&%%&%::%-:::::%=-==-&&&% &+&&+::%&%,&:&:&&:86,:%&&&%&#&+&#&#&#&###:%:&&%&%==:&#&%,,:%&:%%%::",
":&:&%&%::::,:-2-::::::<:&&::&#:#&+&+::%%%-:,::%:%&&&%%==%%&%&#&++&+&+&%%&&%&&&&:&&&:%%+:#&+&#&+##&#&:&&:%&&:&,==#&:#&%%&&&&&%:%%",
"==2%%%%-,%:--::--,:-,%&&:,<6<&&&&%73:&&#&::%&:&:> &:&+&&&#&#+&+&&+&+&+&&+:+&#>#&&&&&&%,&%&& +&+&&&%%==%%==%,===&&&&:-,%%&,,%&=2-",
"2=&%&:,:::-::,%:::::,%,%-::2&&::&&9w&&#&#: &:##:#&&&&%%&#&#&&+&++&&+&&&&&#&+&#&#%&&++&+&& #&&+&+ &+&=&&:,&&&===&:#&%=,%%%&&%&,-:",
"==-:,=::%,%,%,%,:-::-%%%%<89<:<3:&62&&%&:#3##:#&&#&&& &&:#&#+&#&& +%wp<%#&+:#&+&&+%&&%&%&&& #&&+&&&&-%-:=--%==,%&&#:&&%:,-%,::::",
"22:::2::::::-::--::-,=,:,2kbw:3<%%&%&%:   #&&#:##& &#:+&&# &  :  % &yzy:& &   &++&+++++    && &&& &%%,<2,%%-,,%%::&%,222,:%5-:2,",
"22222::::2:::-:::-:-:-:-<9bBp:%%%%%%+%%+ # ::3#&%&#&+&+:#>&+&   : &&9t3:+: &# &++%+%+%%%+& && &&#&#&&,22,-%2,:%::::::466226p:222",
"2k2262::222::-%,-:,%-:-,:3wy7%&%+ +++++%%:& &&&:% & &+&+&67:: &&&& +&:&+& &&3>&&%+%+++  # : #& &&&&#%,22-%%,%:,-::<74,622<:::222",
"<<<<::4:<3<<-:,%:%,:::-,:&&&&&+&+%+%+%+%+:&: #: +&#&+&%+%89:+&&+  ::#& + & ::3&#++&+% +& # #+&++& #:,%252:%,:--:%::<4462<:::<<<<",
"2222,4,4<<<<:-::-::-%,%%%&+:%&&++%+++++&&&  #  &&#& %+%  :&%+&&&&&&##  +# &:37#&%%  + + : & +  &+&:&%%282:-,,%:-::<7446422252222",
"224,4,42<<<:::-::%::::&::%::#:#%&++%++o&%+++++++#&&#&& ++%  %+&+%:&: &%+#+ &&#% &++ooo &#+++ & &:7q5,%,222<-:--::246664426442222",
"225<,44:<<<>::%,w:%:%:#&&%&#&#&%+&++%+oo  %%+%+%&o&   +++++%+%+%% # %+ +++&  : :oo+ &&&o ++   &#7vMf,%%,=,-:-::2:222464444648222",
"222<:2,42<:-:%&%<&&&%%#:&&&%%%#&&+++++ o+ o+oooo &  ++++% + ++%+ && %  ++o+  &++oooo& oo# +++&#&3zmf,%%,==%-:,,:::22424v44448442",
"2222<26:<<:::%=-&%:%%#&#&&&#&#&#+%+++ +  +oooooo ##&+++++ %%+%%%: # & %++++&& &+ &oo  oo++++ &&#:796%&&%==&%%%-::-,2244444442442",
"44,4426<:-:-::%:&%:##&#&#&&&&:& %++roooo++ +ooooo+%+ &  ++%+%++%++++++% %o+  & +oooooo ++:+%:&#&%:,%&,,%===2:::>:<22444,46664622",
",44,246<::-:::&%&&&%:#&#&+&&::&&&+&p&oo   + oo +o+ +#o &+o ++++%&+++ % % o+%#+++ooooo + ++++ >&#%&%%%&,%==,=:::<:<2244,424464222",
"4,,42:3<-:::%,%%%%:%&&#>#>& &#&# & && o  o +oo+ ooooo++ o++o+oo++o+++ % ++++&++ oooooo + + %: +&&&,%==%&&&::::<<<<22222224425222",
",44,444<::::::::&:&&:#&#&##& & &%%=+&+ooooo ooooooo+o++#%+++oooooo++++ %+++  +# oooooo+ ++++&%&%&%&&%==&%%::::<<<222222224222222"
};
