/* XPM */
static char *_04a7e7d660c4e1b9acea5f54c556177w9BDqy0caObdKyFM[] = {
/* columns rows colors chars-per-pixel */
"128 128 40 1 ",
"  c #09001B",
". c #09001D",
"X c #0B001D",
"o c #0B001F",
"O c #0C011F",
"+ c #0E011F",
"@ c #0D021F",
"# c #0A0020",
"$ c #0B0023",
"% c #0F0022",
"& c #0F0222",
"* c #0F0026",
"= c #0F0028",
"- c #110024",
"; c #110124",
": c #110224",
"> c #100026",
", c #130226",
"< c #110029",
"1 c #140129",
"2 c #15012B",
"3 c #14002D",
"4 c #15022C",
"5 c #14002E",
"6 c #18012F",
"7 c #150030",
"8 c #170033",
"9 c #180130",
"0 c #180035",
"q c #190036",
"w c #1D0137",
"e c #1C003A",
"r c #1C003B",
"t c #20003E",
"y c #210040",
"u c #240045",
"i c #260047",
"p c #28014B",
"a c #2D0152",
"s c #320159",
/* pixels */
">>>>>>->*%**$%%%*%%$%$$$$Ooo$ooOO%oOooOo o Oo o o   o  o o...o    o oo   oo .. . oo o o.oo.oo$$o%o$$o$o%$%$*$%*$%$*$$*$$********",
">*>2>>>%$%$%$%$%$%%*$%OO$%$oo$$oOOO$OoO OOooOOooooo oo oooo..oo o  o. o    o.  oo  o o.o.oooo%o$$%%o%$$$$%*$*%%*$****$%********>",
">*>9>>>%$*%$%$%%%%$%%$%O$$$o$oooo$%oOoooOo oo oOooo *oooooooo.o$o.$ .oo   o    oo o...o.oo$$$o$o$$$$o$$%$%$%$$*$$%*$$*$*****>><>",
">*>>>><%%%**%*$%$$%$$%$$$%$$o*$%%oooOOooo oOOO Oooooo oo.oo$oo.$55oo oo.o   oo.oo.  .o.ooo%$o$o%o%%o%$%$$%$$$%*%*$****$**%**>>>>",
">**->>>%$*%$%$$o$o$%$$$$$o$$$$oOo@O%Oooo Ooooo-Ooooooo $o.o.oooo00o oo.oo .  o .o oo.o.o.o$oo$$o$%o%$%%$*$$$$*%*%$$**$$%%**%*>>*",
">>>*%**%%*$%o*%$%%%$%%%$%%oooo%O$o-OOOOooOooooOOooo$ oo..$.oooo$o$$ .... .  o..oooo.oo$..oooooo$o*$o$@$%$%%$$$*$%**%%*****$***>>",
">>>>*****$%$$<****%%*$*$$*$ooo$ooo-OOOOoOoOooOOOooo.oo.$o oooooooo ..... . o.$oooooooooo$$oooooo$<$$$%%**$**%$***%$***%*=****>>>",
"*->*%*%*%%$$$%*$$*$*$%$*%$$%o$oo%OOOOOo%OoooooOOo@ooooo.oooo$ ooooooo.... o.o.o.o$.oooooo$$o$o%oo%o%$$%$%$$%$*$*******$*8*%**>>>",
"%*******%**%>>>%*$$$%$*$$$$o$oooo$OOo%oooooooooo@oo$ooo..oo.ooo oo=oo  o o.o..o.ooooooooooooooo%oo@%%o%%$$%$%%$$$*$*$%*$%*$*****",
"**%***%*%<*0q0******$*$***%oO%o$oo%oO$$ooo$oo%Ooo@@ooo.oo.oooo ooooo  o  oo.$ooooo$.ooo$o$oo$$oo$oo$$%$**%$%*$*%**%***%%$*%*****",
"$***%$$*<5=ear%*%**%*$%$$$$$o$oo%$%O$oooooo$$$%$oooooooo.oooOoo ooooo o  o.oo $o$o$oooooo$o$o%oo%o$o%$$*%**$%*%*$%*%***$*$***=*%",
"**%***%*5r<0e0***%%****$%$%$%%$%<*o$O%$%o$oo$%O$@o$ooooooooo oooo.o% o oooo..oo$o%>*o$oooo%$@$$o$o$%$$***$%**$*****$****%*%**$%*",
"%***%%%*><<<>*=*%%*%*%$*%%%%$$%**$$$$%%o$$o$o$OO%oo$@oo@ooo oo @oooooo ooooo$oo$o@%%o%@o$%%$%$o%$@$%$%**$***$*%**%$***%%%*%*$*$%",
"*%*$%***%****%**$*%**$*$%$$O%$$%%o%ooo$$oooo$o%$$$o%%@oooooo@ o o o ooooo$oooooo$oo@o@o$%%$%$$%$%o$%$$$**$*$*****%%*$**$5%***%%*",
"%%$****$$****$*$$*$**%%$$%O$Ooo$%$$%$Oo%8o%oO%$$oo%oooo$o$oooo ooooo$ooo.oo$ooo%$oo%$%o%%$%$%$o$$%oo%@%%$**%$%$***$***%$**%$$%*%",
"****%$$**$*$$%$%%$%$$%$%*$$%OooooooO$O$oo*%$o$o%%$$$o$oooooooooo.oo..ooo$.oo%$$o%$ooo$$ooo%%@$oooo$%$$%$%$*%%$*$***$$%**%**$***$",
"****$%*$*$**$*$%$**$$*%%*$$%ooo$oo$$oO%$o%o%$%$$$$%$%o$ooooooOooooo.$o$oo$o$$o$o%$$o$%$oo$%%$oo%ooo$$%*$*$**%$$%*05<%*$*$%$*****",
"%%%>%%$%**%****$****%$%$*%%$%$$%$%O%%%O$%$%$%$$%%$%%$%O$o$%OOOOoooooooooo%o%%%%$$%%$%%*%$$$$%$@$%$%8%$*%%*%5=***%9t<$**%%*%%$%%$",
"$%%$$%$*$*$**%**$**$$%$*%%$%o%O%$OO$oO%%$%%$%*%*%%*$%$$o$O$o%OOOooooo%$oo@@$%%$%$%%%$%%$$%$%$$o$$o@%$*%***$****%>55<$*$*$$**$*%*",
"%$$%$%%$%%*****$%**%*$%$*$%$$%O$%%o%%$$%%%$%$%$$%$%%$%%o%oo%%OOoooo.$ooo@o$%%$%$%$$$$%$%%%%$%$%$%$$$$%%*%*%*%$%*>>*>*%$%*%%%%%$$",
"$%$$%$%%$%$***%%$**$%$$*$%%-$$$%$o$%$$%%$%$%%$$%%%$$$$O$oO%<$ooooooooooooo$%$$$%%$%$%$%%$%%$%$$$$$o$%$%***%*$*$$%*%$%$%$$%$%$%$%",
"$$%O$%$******$*$%$%*$%*****>%%%$%$$O%%*%%$%$*$%$$%$%%$%%$O$$ooo$ooooooo$$$%$%%%$$$$%%$$**%%%%$%$%o$%$$$**$*$%$%%$%$%$$$%%$%%%$$$",
"$%$%o%$*%%%$*%%*%%$%******56*%%%%*$%%*-*%*%%%%*%***%O%$%%O%oooooooooo%%$$%*%%*$%%$$%*$*$$*$$%$*%*$%%$%%$****%*$%%$*$O$o$$%$$$%o$",
"ooo$$$%$5*$%*$%%$*%*%*%%*%<>%%$%$%**%%***%*$*$$55<%*$%$$%$%$$O$oooooo@$%%$%$%$%$$%*%$%$****%*%%$%*$$%$**%*$%$*%$$%$%%o%$%$%ooOOO",
"ooO$OO%$5$$%$$%$%%%**%%$%*%%%%$%%9*%%*%-%-%%%**5t<*$%$%%%o$oOOoo@oo@oo$%$$o%$%**%$%*$$%$**%**%%**%%$*$$%*%***$%*$%$%$oo$$*%ooooo",
"oo$%%$$%%$%$$%$%$$$*$*$%%%$%%**$*$%**%>>>>>****895%$$%$%%O%$%%%%%%%%%o@%%$%$%*%$%**$*%***$*$*%$%*$*$%**%%$%$$%%$*$%$o$o$%ooo$ooo",
"ooooooo$O%%O$$o$%$%$%$$*$$$*$%$%%%****>*******<*****$%%$%$%O%%oO%*%$$%$%%*$%*%******$*%***$**$*%%***$%%*%*$%*$%%$o%$o$oooooooooo",
"oooo$ooo$$$o%$%o$*$%$%%$$%%$$*%$*%*%*%**********%%%*%$%%$%$$oOOO$$%%%$%$$$%$$******%%*0%$$%$*$*$*$*%**%$%$%$%$$o@ooooooooooo ooo",
"ooooo$oo$$$$$%%$%$*$%$%%***%%*$$$%***%>>>>>>>>*%**%***%*%*%%%%%Oo%%$%%*$%$$***$%*%%**%*>****$$$%%%*$**%***$%%$$$ooooooooooo$Oooo",
"o$ooo$$oo%%$$%$$$%$%$*$*55=**%%%%%%**>>>>>>>>>*******%*%$*%$%%$$%$$**$%%$******$*$********%*$%%$$$$%*****$%$$%o$@%$ooooooooooooO",
"oooooooooo$$$%$%%$%%%$%*585***$%%*%*>%>>>>><<<<>*******$*%*%*%%*%$*$%**$%$*$$%$***=**********%$%%$$****$%$**%$$%oooooo%ooo%o$oOO",
"$o$oo$$oooooo$%$$%*$$%$*<5**%%***>*>*>>><<<<<<2<>>**%%*%%*%**$*%%*%*$*$****%*******=***<***********$%**%%*$>*%%$%$o$ooooooooooo$",
"oo%o.$oo$oo%$$$%%$%$%$$%%***-*>>>>>*>>><*<*2<<<2<>>>--%*%%*%%$*$****%***$*%**%**>><<<>>>>***%**%%**%***%*$$$%$$%$$o$ooooo%oo$oo$",
"o$$o$.ooooo%%$$$$%$*$%*$****>>>>>>->>*>><>2><<<><><>*%*%%*%**%%*$%**%$%%*%****$*>>><>><5>*>******$*%*%**%*%*$*%$$o%oooooo*ooooo@",
"o$oo.ooo*$o%$%o%%$*$*$*%%>>*%>%*->*>>>><>>222>2*>>>>***%%**%*%$%%$%$$*%$%*****%*>*><err>>>********%****%$%%*%%$%o$$oooooooooo$@%",
"ooo$ooooooo%o%@$$%$%$%*****>******>>>*><<<><>2>>>>>>>>>**%**$%%%$%%$%%*%%***%***%*>>rp0<>>*******%*%%%*$*%$$%$%$%@$$*oo@oooooooo",
"o$$..$o$o@@%@$%o$$%$%$%$%*$****%%******>>>>>>>26**>>>>>>**>*%*%$%%*%*>2>*******%***=ee0>**********$%**%*%%$%%$@$$o$$oooooooooooo",
"oo. ..oooo$oo%%$%$$%$%$%%$%*%****%*%****>*2>>>>>>>>>>>>>>*%**%$*%%%*%*>>%*%$**%*%%*<**><*%%**%%$$%**$%%$$*%$$$%$o$%oooo@ooo.o o ",
"ooo$$$oo@oo@oo$$$%$%%$%$*%***%*%*%***%**>>>>>>>>><<>>>**>>-%%*%%*$$**%%*%*%$%$%**$**%$***$%*>%%$$%%$%**%%$$%$$$%$o%$o$o$oo.o o o",
" *.o..$oo$o$@o$%%O$$$%$%$$$%$%$*%****$**->>>>>>>>>>>*>**>>*%$*$*%%*%%%***%$****%%%*%$*%$%%*$<5%%*$$%$$*$%o$$$%%$o%$oooooooo o.. ",
".$..o$oooooo$$o%oo%$OO$o$%$$$%%*%%>>***%%*>>>>>>*>>>>>**>>>***$**$*%$*%**%****%**%%%*%*%*%$*%%*%$$%$$$%%$%$o%$ooo%$$oooooooo  o ",
". $$.ooo$o%@o5%$%$$o$%%$$$%*%****>>>>**>**>>>>>>2>,>*-$***>****%********%$$%%**%*$*%%$*$%******%%%>$%$$$$6$oooo%$o$oo ooooooo ..",
"$....$ooooooo%%$%$$$o$$$%$*%**%>><>>>>>>*>>>>>>2>:>>*%*****%%***%***%*%***%***%******$%*%%***%***%%%$%%$%$%o$oooo$%ooooooo$oo...",
"..$.oo$oo%$@@@%o%O>*$%o%*%%%*%>>>>>5>>>>*>>>,2>>>-4<**%**%*%->*%$%%$$%%$$*%****>****%*$%%*%*%***$$%$%$%$$%$$oo%$o%$$oooooooo.ooo",
"o$o.o$ooo%%@%o-%oO%%$$$$$$%*>%*><<>2>>>->--2>>2-->:>***%*>>:&>%%$%%%$%%**%**>>>:>>>%*%*%%*&&>%%*%$%$%$$%%%$$o@o%$$%$ooooo%*=$ooo",
"o.$. oooooooo@o@%O$%O$%%%%*%%*%>>>>*2>,>--,,2-,-*->>*$%**%*%%%%*%$$$****$*$*>,:>>>>*%**$%**%::**%*$%$%%$%$%o$%$$o%ooooo$%OOooo o",
".$..ooooooooo%%%$o$$%$%$$%*%*%*<<>>2>>>->>>>2>--****%%**%-%*>-%%$%*%%$$%%**%>>:*>-****%$$%%--%%**$*$%$%%$%$$$o%*<<%oooooo$ooo oo",
"....oo$oooooooo%o%O$%%$*$$*%%-<25<>>>>>>->>,>>>-*%***$%%**&-::%-**$$%*%*$*%->---->%*%%*%%%*-:>**$%$%$*$$$%$o*$*58*o$o oooooooooo",
"$.o..$$oooooo@@o%%$o%%$%%%$**%>22*>>>>>--*>,>->>->**%$%%%*:%:&462>%%%%$%$*8$%%*&*%:%%:>&%*%%%****$%$%$$%$%$o$%==>$%ooooo o$.ooo.",
"$.o..$ooooo@o%o$%@$%%%$%%**%****<>>>>>>>--->--:>--%*$%$%:*%:&:2w6>%%%*&*$%%$%*&*%:*:&*&%&%%&&*%%%%$%$%$$o%$%%**%%%%ooooo$..oo.oo",
".o.. oooooooo%o%$@%%%%%%%%******>->>>->>>2>->:>:%%%$$*%*>:%%*-<65>%$$%&$*%***%%&%>->%:%&&%&*&%***%*$%%%%%$$@%$%oo%$o$oooo.o.o.oo",
".$.o..ooo@ooo$$oo%%**=**%***%*%*>>>>->->->>>:>>-%$$%%%*%&%*%&::<>>*%%%*%%%%**%&*%**%&>:%%&%&*&%$*$%*%**$$%$$%%$o$$oooooooo.o.oo.",
"o.oo..oooooo$o%o%@$%*5>*%%*$%****%>>>-->>>>>>***%$%$%%*%*%%%>>%*--*%%$%%%**&%%%%%%=*%%*%&%%%%*%%*%*$*%*%$%o$%$o$o$o@$oooo.oo$.o.",
".o.  ...ooooo$oooo$$*%*%$**%$%**>*>>2>%>**>>%*$%$$%*%*%*%o$O%%<%*%%*%%%$$%%%%$%$$**$**%%*%$%$%%$$%%$%$$$%$%$o$$ooo$ooooo.$...o.o",
"o.oo.o..ooooooo$$o$%$%%****8***%55<8>****%*$8%%$$$*%*%%%o%$%%%%%%*%%%$%%%$$%%%%$$%%$%%*%%%$*%%$%%%$%%**$*%$oo%$o$o%oooooo..o.oo.",
"o ooo..ooooooo$%%$$$%$*$%***%*$*>ti8*%*%****%*%$%o%$%%$$$%o$%$%%%%%$$*%$%%*$%%%$$%$$$%$%*>*%$$$%*$<=**%%%$%o$o%oo$o$ooo .oo.%* o",
"ooooooooooooo$$@$$$%%%**%%**%$**<ti6*%%%*%*$%*$$$%%$$%oo%o$%$O%$%*%*$%%$$$%%*%%$%$%%$%%**>*%$$$%*%**%**%*$$$o%o%$$$%o$o$$o.$o%o.",
"oooo$.ooooo$o%%$$%$$$**$**%$%***5555*%****%*%$$%%$$%%$*$$%$o%%$%*%$%%$%$$%$$%$$%o$%$*$$%%$$$%%$$$**%*=*%%*%$%$$$o%oooooooooooo.o",
"oo.o.$o$oo.oooo$o$%$%$%$%$*%*$****>***%$%$%*$%%%%$$$o%%o$%o%$$$o$%%$$%$%%$$%O$$$%$%$$%$%%$$%$*%**%**%%**%$%$$%$%%$o$oooo.o.oooo.",
"....ooo=*oo oooo%o%$$%$$**$***%*%$%$$%$%%%%$%o$Oo%ooo$o$oo$o$%o%$$%$$$$*$%%$%%$%$oo$o$$o%$o$%$$%***%***$%%$$o$%%%ooo$oo$oo$.o$  ",
"..o.o.oooooooo@%$%$$$%%**%*%**%***%*$$$%*$$%$$o$$oO$%o%$%$$o$O$O$$$o%$%$$$$%$$O%$@%o@$$%$$o>*$%****%****%$$$$%%*$o$ooo$o$o.oooo ",
"..ooo$oo$oooooo$%$%*%$$%$*%*%****%*$%$%$$%%%%%$$ooOOo$ooo%%o%%$$%%$%$%%%%%%$%%o%o$$%%$%$%o%<%%%$**$%$*%**$%$$$$%5$o$ooooo.$.o.o ",
"..ooo$$$oo%o%o$$$%*$$$***$*%******%%$%%%$%$$o$oo%%$$%%oo$$o$$%$%%O%$$%%O%%%%&*%%%$$%%$$%$%$%%$%>*****$*%%%%%$%o$$$o$o$oooo.$o.o ",
".oooooo@%oooo$%o$$$%*%*$%*$%$**%$%$*$O$$%$$%ooO%$OO%2%$%%o%o%$$Oo$%oo%%$$%*%%%$%%%$$$%$%%$%$$%*>>>*%*%****$$$$$%o%*oooo$oooo.o o",
"oooo%OO$%oooO<%$%$%$%**%*$$%*******%$%%$%o$%$o$o$o%$$%$%%$%oo$$o$%$o%%%%%$%**%%%%$%%$$$%$%$*%******%*%****$%$$oO%$oOoOOoOOOo$o o",
"ooo%OOO%%%oo%$o%$*$%*$%******%**%%$$o@$o$$ooo%o$@%o%@%%$o%$%%%o%O%$%$%$O%%$%&%$%%$$**%%%%$%$$%%******%*%*%$$$%$oo$%Oo$o%o%Ooooo ",
"o ooO%O%$O%o$o$*%%*$$%%*****%**%%$%$*$%$o$o$%$@%%%o%%%%%%$%$@%$o%%%%%$%%%$%*%&%%%$$%%**$%$$%%%%********$%$$%$$o%o$$ooOo%OOO%ooo ",
"ooo%OOo%%%ooo$o$$%%%%%*%%*<*$***%*$*%oo$$%%@$o$o%o%@,oo%&%%%o%%@@@&%&%&&%&%&&&%&%%****%*%$%$$*%*%**%*%**%$%Oo%$Oo%OOo%OO%OOOoooo",
"oo>%$OOo$%oo$oO%%%%$%%%***>****%*%*$%$$$%%$o@%$%$o%%%%o%%&$@$@%%&&&&&&%%%&->&%&*%$%%>>%**$$%*$%*%**%%**%%%$$$%$o%$oooOo%%oooo oo",
" ooOooO%oOoooO%$$%%%$%*%%**%%*$*%$*%%o%%$$@$o$$o@%%@@%%%o%$%%%o%O&%OO%%%%%%O%%%%*$*%%****%*$%%*>**%*>%*%%$$$$O$%$o$oOooo@ooooo o",
"oooo$oo$oooooO$$$%$$$*%$***%%*$*%$<*$$$$$%%o$o%$o$$o$oo$%%@%o%$%%%o%%%%%$<%$%%%**%%$%*>*%$%%***>**%**%*$$%O$%$o$%%$ooooooooo$.o.",
"oooooooooo$ooOO%$$%$%$%*%$%*$%%*%$%$$*%*%%o$%o$$%%@%%@%%o@$o$%%$$O%$$O$O%-O$*%%$$%**%*>>*%$%<55**%*%***%%%%$%O$%oooooooooooo.o.o",
" o$$ooooo$%oooo$O%$%%$%$%*%%<8$%*$$%$%*$%$$$$$$%$%%$@o%$o%$o%$@%O$%$o$o%$%$%%%$%$%****>>***%<82>%%*$***%$%%o$O%oooo$.o.ooooo.o.o",
" ooooooooOoo$oo$$$$$$%$*$%$*$%*$%%*$%%$*$%%%$%$%o$%%%%%o%o@%$%$%%%O%%%%$%&*%&*$%*%%=***2*%**><*>$*****%%%$$*%$o$$$oo$.$ooo.oo.o.",
"o ooooo$o$$oo$oOO$$%%$%$$%%o%$%%$$%%%*%%*$$%%$*$%$%%%%@%%%%%%$%%%5%%$%%%%%%%%$$**$***>><**>*>**%%*%$%**$*>%<%$$oo$oo.ooooo  .o.o",
" ooo$ ooO$oooooO%$O%$%$%$%%$o%*$%**%%$%$$%%*<8$%$%$%%%%%$%%o%*%%&-*%o%%$$*$%%%$%%****>>>**>%*>*%%%*$$*%%%<t5%%$$oo$o$oooooooo.o.",
".o.ooooooooo%$Oo*$$%%*$%$*%*%%$%*%$%$$$%%$%$**%*%$$==%%%%%$$%%55>5<-$%%%$%%%$%$O****>>>>>>*%*****%**%**$%<82*%%%$o$o.ooo.oo  o o",
"o.o. oooooo$o$%$$%**$$%$%$$%$%$*$$%*$%$%$%$%%*$$$$%%*$$*%%$%%-<qye%-%$$%%%$o%$$%%**%%>>>>>**%*%%%$%**%%%**$%*$O$$oooooooo oo o  ",
".o.oooooooO$$$<*>5**$%$%$%%$%%$%%$%$$$%$%$*$$%$*$%$$$*$%$$%$$%<ise%$$%O$$$$$%$%%******>>>**%***>>%*$$%$$$%$%ooooooooooooo$$o oo ",
".oooooooooooO$>9q0*%$$%$$%%*$%*$***%%%$%$$*%%*%%*%*%%*%%%%**%$<ree%%%%%%$o$$%*%*%****>>**%**>>>58<*%*$%oO%$$$oo$oooooo.o.%$.o.oo",
"oooo.o$oooo%$$*qi5*5*%$%$*$%$%****$**%$$%$*$*$**%$***%$*%*%%%*<**%>>$%$%%$$%***********%**>***<805%$*$%$$%o%%o$o$o$oooooo.$.o.o.",
"oooo$.o$$oooo%*055*$%$*$%%%*%%$%**%*%$$*$%%$%****%***$*%*$%$%*$%$%*%%$%$$%%%*%$%*%%*%*******>>*45****%**%%$o%$ooooo@oo$o.$....oo",
"ooo oo.**oo@$%>%$%*%$$$**%$*%$$%$***%*%$%%%%*********$***%*%*%%$$$%$$%%%%$%%$*%***%*%***%***>>>>**%**%%$$$o$$oo%oo@%$oo.oo..  .o",
" ooo$$$$ooo$$%$$%$%%%*%%%$*%$%*$***$*$%*$%*$%****%*****$$%$$$%$%%$%o%%$$%$*$***%%**%***%****>****%*$*%%$%o%o$%o@$%oooo$oo.$.ooo ",
"o@o oo.oooo$o$o%%$oO$%*%$**%$*%*%****$%$$%*%%***%****$*%$%$%%*%$%$%%$%$%$%**<5*%*%%*%%**>%*>>>*>*%*$$*$%$@%$%$o$ooo$o$$o.$.....o",
" ooooo$ oooo$oo$O$$$$%$$%%$%%*%*******$%**%**%%%*%*%***%*%%$%*=%***%%$$%*$%%*%$%***%****->>><>><***%%%$ooooo$ooo%o%o@oooo.oo....",
"oooooooooooo%o$@o$$o$%=%$*%*$2<*$*****$$%**%***%**>**************%****%%%%%******%%****--->>><>>**%$%$%$o$ooo$ooo%*@o$oo$o$...oo",
"oo @oo$o$ooo$$o%$%o%o$%$*%$*********%**%$***%*****5>**********$**********%**%*%**%*****%>->>>>>>*%*$$%$%%o$oo$ooooo$ooooooooo.o ",
" O OoOOOooooo$o$$o$oO%%%**$%***>**<****>*%****>>%*><******%**%%*%*$******>*%>>***%>>>>->>>-->>-*%$$%*$%$%o$o$oooo%$oo$oooooooo@o",
"OOOooOOOoooo$o$o%%%$o$$%$%****>**>>*%%*>***>>>>>*%>*%**********$*$*%%***>%>*>>%***>>-->,--*-***%***%**%%$%@%$%oooooooooo$o@ o oo",
"OOOO OOO$ooo$ooo$%$%%O%%%%%***>>>**<**><<<<>*<<*****$****>*****%$%%**%**>>>>>>>>>>>>-2-,>--**%>********%%%%$%%o$oooo $ $ooooo oo",
"ooO oO Oooo$o$oo%$o$$$$$$$%***<>**>*<=><*555<***%*%%*****>*%*$*$*%*$**$%%>*>>>>>2*2>>>->>-*--*->%***%%*%%o$o$$$ooo$o$.o$oooooooo",
"ooooOOOOoo$<%oooo$oo%$$$%$%****><><<<><<<208<><**>-%%**%%%**%*%%%%*%**%****>>>>>>><<>22*>>->>>>>*->>*>>>%5$$$%$ooo$oooo$ooooo.oo",
"ooOOOOOOooo%$o$o$o$%$$%$***$%*><*<<<>>><<555<*<*>>*>>>>****%*****$%****%*%><>>>>><<>>>>>>->>>>>>*>>-**>-$%$%$$ooo$$o$oo=o@oooooo",
"OOOOO+o@o@oo$%o$$$%$%*%****%**><<><2>><>5<<<<<<>****>>******<2*******>*%%><>*>>><<<<2>2>>->->>><**>>>>>-*$%@%%$oo$ooooo@@ooooooo",
"OOOOOO@o@ooooo$o%*$**%**%**$>>>><2<*2*2<<<<2<<4<><*><*******>5>*****%*>>>>*>>><422222<>2,->>>>>>**->,>*-%%$$%$%$%o%$$ooooooooooo",
"ooooOOOOooo$O%$%%%$**$*$***%******>><>*2<<<<<<2<><>><<**********>>>>>>**>>><><*22222,22,,*>>****%*%**><>*%$$%$$$O$$oooooooooooo ",
" oooooooo$oooooo$%$$*%%*%*<*%$%*%*><><2<<<<><>><>>*<>>*********$**>>>>*$**<*<><2>>,,>,*2>2>**%*%%%%***<>*%$$O$%o%o%o$oo$ooo$oooo",
"ooooooo ooo$$oo$%$$%$*$%**><%$%***>><><<<><><<*<**>*****%*****%*%**%>>*%%****<<<>>2*>22>2-*>*%%$$$%***<<%$%$%$$$%O$o$oo%ooooo.o ",
"ooooooooooooo$$o$%$$%$****<***%$*%>>><<>><<<=<>>***==**%***%***%%**%*%*%*%*6<>>>>2>>2>>>>**=***$%$*%%*%>%$$%$%%$o$o$o$oOoooo.o.o",
"oooooooooooo$o$o%$%$*$$*%%*%**%$*8*>>><=*5<*=<><<***********%*%**%*%%*%*%*%$*>><2>2->>><>>>>***=%*$**%$%%$%O%%%$$oo$oooOoooooo.o",
"oooooo$oo$$o%$o$%o$%*%%%$$$%$***%>**><*=<***=<<<**<<***********%%$%**%***%%*=><>*,,>**>>>>>>**%*$$%%$$$$$$$$$$$$$%%$$$$o$ooo.$oo",
"oo$ooooooo$oo$o%%%$%$%$$$$%$$%$%***>>>*=*****><>*>***$******%*%$*%*%%**$%$*$%*>5<*>>*******%*%%$$%%$$$o$$%%$$$O%o%$%o$o$oo$o.o.$",
"oo oo>>oooo$O$$%$$$O%$%$%$$$***$*%***<=**=*******=***%*%%%$$%$%$$$*$%*%*%*%%*>>5<%*-*$%***%%$%*%%$%*$%*%%$%%>$$$$O$oo$$*@$o.$.o.",
"oo $oooooooo$$$$@$o$%$%%%$$%$%$*%********<**********%*%%*%%$%$$$o$%$%%*$%%*%*$58<**%$%$***%%$%%$$$%*08*$%*%$<%$$o$$$o$$*$oo$oo.o",
"oo.oooooooooo%o%%$%%o%$$%$%o%$$*$********>*******%***8*%%$%$$%O%O$OO$%$%o%$%%***%%%$*$*%$%$*%$$%%%$*pe$%$**%$$$%%*%*%$$$$%o$oo.o",
"oo$$o$%oooo$$$%$%$$o%$%%$$o$$%%$$%$%$*****%*%*%******%%%%OoooOooOOOOoooo%$$%**%**$%%$%$%%%%$$o%%%$$<<<*$**$$*$$*$**$$%$%%o%o$o$$",
"%$$oo$oo$o$%%$$$%$%o%o$%*$%o$o$@%$%%%**%*%*%*%*%*%**$*%OoOooooooOOOO%%$%o%$%$%$$$%*%%$%$$%$%$$$$$$%*$%***%$%**%$%****$*%$o%oo$o$",
"o$ooo$$$o%$%$%%$%$%$o%$%o$@$$%o$%$%$*%*****%***>>>**%$OOoO$OoooooOOo$%$o%$%%%*%%$**%$$%$%$$$$o@$$$$O%%%%%$%$***%***$**%$%%%o$$$o",
"%o$$o%%oo$%$$**%%$o$%@@%%$%$@o%o$%%*$%$%%**%%**>*%**%OOoOO$%oo oooOo$%$%%O$O$$$%*%*$%%$*$%%$%o%o%o$$%$$*%*$%$%%*%$$****%%@$%o$o$",
"$$%oo$$o%$%%*5**$%%%*$%$%$%o%$$$$$->**$*%*********%**%$$%%$oOooooooo$%%$$$$o$%$$$%$%$%%$$o$$o$$%$$O$$%%***$$%*%%*$**%**$$%$$%$%%",
"%%%%%%%$$%$%%*0%%%$$$%$%%$o$$$%%%%%*5<%%%%****%%%%*%%o%o$oooooooo ooo%Ooo%$$%$%$%$%$%%$%%$%o%oo$%o%%**$**$%%*%%**%$***%*%%%$%*$%",
"*%$%$%%*$%$%*%%**%$$%$$%$$oo%$%%%%$**=*%$%*%%%%*%%$%o$@oooooooooooooo$o%ooo$$$%$$%$%$%8$$$oo@%%%%@$$%%%**%*%%$&*%%$**%***%*%$*$%",
"$$%*%%$%%$%%%%$%%%*%%<5$%%$o$$$$%$%%***%*$%$%$$%$$%%oo%oooo.o.o.o ooooooo$o%%$$%%$%$%$$*%$$%$$$$%$%*$*$%**$*%*%&$*%***%$%*%%*%*%",
"%$*$$%$*o%%$%$%%%%%%%$$$$%$%$%o%$%%%***%$%$$$%@$$@%$%ooooo.$.$.oo o oooooo$oo$$o%$$%$$o%$$@%%$$$$%$%%***$%*%*%%********-**$$$%%$",
"$%%$*$%$@$$*$%$**%*$$%%$*$$oo$$o$%$%%*%$$o$$o%%%ooooo$ooooo.o.o..oooooooooooooo%$%$$$o$@o$o$$%%*%$*%*$$***$***%***$%*5555%%***%*",
"*$*$$%$%%o%$%$%%%$%$$%$%%$$%oo$oo$$$$%%$oo@o%*$oooooooo.oo..*o...oo.oooooooOooo$$$$$$ooooo$@%%%*$%%*%$*%$*$5*$%*%$<<<8pe*%%%*%*%",
"*%%**%%$%$$%$*$%*%%%%$%%*%oo@$$oooo$o$$ooo oo$%oooooo..o   o*o$ooooooo.oooooooooooooooo$$ooo$ooo%$%$$%$*%$$*****$*50<8e0*%*-%**$",
"***>**%$%$%$%$%%$$%@$%o**$o$o@o$o$*oooo$oooooooooooo.oo.  .ooooooooo.o.  ooooooooooooooo@%$$o%o$$%$%*$*$**%****%%*=<5<q*<*-*>>**",
"%*%**%*%$%$%$%$$%$$$%oo%%o%@$ooo$oooo$ooooooooooooooo.. ...oo%ooooooo.o.oooo%%ooo.o.o$ooo$ooooo%o%$$$%$%$$*$$$%***%***>-%<->>**%",
"**%****>%*$%%$$%$%$%o$%$%$$o$o$o$oooo$$oo.ooooooooo ....o oooooooooooo.o oo$o$ooooo.o..$$o$oooo@%%%$%%*$*$**$*$*%%*$$$$$**>>>>>>",
"%****%*<>$%$*$%$%$%%%%$%%$$$oo%ooo$oo$$o.o oooooooo. ... o oooooo.$$.oo.oooooo$o$o.o.$$ooooo%%@$%$$%$$$*$%%$%$%%$**%$%%***>>>>>-",
"***$*%*<*%*$$$%%$$$o$oo$$$oooo*o$o$ooo oo.   o.oo....  oo o oooo$oo.oooooo oooooo%ooo.o.oooooo%$$%$@%o$%%$$$$%$*%*%$%%$****>>>>>",
"*$*****%$%$$%$$o$o$ooooo$ooo$o$ooooooooo.ooo...o .o..    o o o**oo.$.o.o oooooooo*o .o.$ooooo%o$%$$$$$$$$%$$$$%$$$%$*$$*%*>**>>>",
"><*****%%*$%%*$%%$$$$$o$o$%@o$o$oo$$$o..o$ ...o.o$..   o     o$$oo.$=oo   oo $oooo oo o@ oooo@%%$*2$%$$$%$%%*$%$%%$*$*$*>5<*>>>>",
">8**%**%%$%**$%$%%%%%$$o%o$$$o%o$o$o=$$$.....o.oo....   o  ooo oo.oo oooo ooo.ooooooooo oo o$%%$o%%$$%%$$*$*%%**%**$*$*$>>>><>>>",
">>*>***%%%%%$%%%*$%%$%o$o$o$o$$oo$o$$o......ooooo... o oo   o o o. oo.o o  oo...o o o oooooo%$$%%%%$$%$%%$$%*$*%%*%$$*$*>***>*>>",
"**%****$%$%$*$$%%%%$%o%oo$%$oo$%%o$ooo$....$.oo...o o    ooooo o.o o.oooo o .o..ooooooo oooooo%$%%%$%o$$$$%$*%%*$$***$%*%*******"
};
