/* XPM */
static char *f27a9f43ff114028e1ea98d0daf3e84bO9uSUE2WCU0zg8Bf[] = {
/* columns rows colors chars-per-pixel */
"128 128 79 1 ",
"  c #17123D",
". c #1A143E",
"X c #1C1644",
"o c #1F1847",
"O c #1F1748",
"+ c #1F184D",
"@ c #1F1950",
"# c #201749",
"$ c #20194E",
"% c #221A52",
"& c #251E5A",
"* c #261E5C",
"= c #271E5E",
"- c #261F5E",
"; c #281F5C",
": c #252152",
"> c #252252",
", c #262254",
"< c #26205C",
"1 c #2A215F",
"2 c #29245C",
"3 c #29275E",
"4 c #2C2C5B",
"5 c #271F60",
"6 c #291F60",
"7 c #291F61",
"8 c #272061",
"9 c #2B2160",
"0 c #292063",
"q c #2B2262",
"w c #2A2164",
"e c #2B2367",
"r c #2C2366",
"t c #2C236A",
"y c #2E2668",
"u c #2E246A",
"i c #2D256C",
"p c #2E246C",
"a c #2E256D",
"s c #2F2C6C",
"d c #31276D",
"f c #30286B",
"g c #333767",
"h c #33376A",
"j c #34386A",
"k c #2F2670",
"l c #312773",
"z c #332A73",
"x c #322974",
"c c #332A75",
"v c #342976",
"b c #342978",
"n c #352B7A",
"m c #352A7B",
"M c #372A7B",
"N c #362C78",
"B c #372D7C",
"V c #362C7D",
"C c #3E447C",
"Z c #3E467F",
"A c #392E84",
"S c #3A2E84",
"D c #3A2E85",
"F c #3B2F88",
"G c #3E318C",
"H c #3E328C",
"J c #403391",
"K c #423493",
"L c #45399C",
"P c #483B9F",
"I c #483BA1",
"U c #493BA3",
"Y c #493CA4",
"T c #424D80",
"R c #444F87",
"E c #455089",
"W c #49588C",
"Q c #4A588C",
"! c #4A5991",
/* pixels */
"%%%%%%%%@@@@@+++OO++O#OOOOXXX.#.XXXXXX.................XX.X.........X X....................XXXXXXXoXoX:XOOO++++@%%$%$%%%%%%$:%%%",
"%%%%<%%$@@@@+++O#+OOOOOOOOXXX#XXX..hX.... ..........o.Xo.oX ... ..... X X..... ............X.XXXXXooXo+O#OO+@@+%%%%%%%%$%%%%$%%%",
"%%%*%<%%@$@$$@++OOO#O+OOOOOX.XXXXXXX..............#.o..oXOO..X. . ...X XX ........X .......X: .XOXOoX+@XOOO++@@%$%%$%%%%%%%%%%%%",
"$%%%%%%%$$%%$@++$OOOO+#+O%%OoXXXXX.X..X .......XXX.#Xo.oXXXXX XXoo.XX X  X3....... X........XXXXXXooXX+XOO#++++%%%%%%%%%%1%%%%%%",
"@,@<Z3@%%@%$%+O+&#O#OOOO$#X#o##XX X...  .........X#X..oXXXXX XXXoo.XXXXXX.... ..      XX.....XXXXXX+XXX+OOO+@#O%R%%%%%%%%M%%%%%%",
"@@&@s<,%*%$@++$+OOOOOOO###.X###XXX..... ...........XoXo..XX.XX XXX XX. X .......X X  X X.....XXXXXXXO+o+O+++@%%%1%%%%%%%&%:%%%%#",
"&@@<@<@&%$@++@++u*#+OOOOooX.X$$XX....oXX........X.X.#..oXXXXXXX  ...XX.X.... XX.XXX  XXX.X..X XXooXXoXo+++++@%%%+%%%%%%%%%%%%%%%",
"<%@,%%%%%@$+++++#+++#OO++oX#X##.X.. XooX........X#%:Xo.XXXXXXX.XX X  XX .. XX.XX XXX XXXX.XX.X XXXX@3oX+O++++%%%%%$%%%%%<%%&%%1%",
"@%%%%%%%@@%+++%O##++##+o@+X#XX... ..XXX .X..... X<SB<XXXXXXXXXXXXXXX.XX...X.XXX.XX  XX<@XX XX XXXXXo<ooOO+++@%%%$%*%%%%%%%&%%%&%",
"%%%%%%%%@%+$%%+OX#X#+#X$+XXX.XX....XXXX ..X .X.XXuPK<X XXXXXXXX  .XXX.X....... X XXXX@83o+XXXXXX.XXoOOOO+++++@+%%%%%%&%%%%%%%%%%",
"%@&@%%w*%%$%;%#X##$#X#X$+#XXXX..  XXXXXXX.X. X..X%zu+XX XXXXX  XX .. X... ....XXXXXX @@@XXX  XXXXXXo+OO++++++%+%%%%<&%%&%%&%%%;$",
"&,%%%*i8$%+%%%##X#X###o#XXXX..XXXXXXXXXXX..XX.X X..X  XXXo+XX........  Xs ..X X  XXXXX XXXXXXXXXXX+@<%+++O+++%%+$%%%%%%&%%%%%&%%",
"@,%%@@%%++$+#+$##+X#######XXXX.XXXXXooo ...Xo.XXX...XX XXX+XX....... .. : XX XX XX  XXX   XXXXXXXXX+@@+OOO++@@%%%%%%%%%$%%%%%%%:",
"%@%@+@++O+OOOOX###X#X#X#XXX+XXXXXXXXoooXXX X..X.XXX.X.XXXXXXX...X ..X XX X  X  X XXXX XXXXXo@XXOooo+<<++OOO++%%%$%$%%$@%%%$%%%%%",
"%%@@@@+OOO$OOOO#####$#X#$XXXXXXXXXXoo+:XX XX.#.X..XXXX  ..XX.X .X... X X XXXX XXXX X X XXXXX+@+Xooo<Bk%+O+++%ew@+@$%%$%%%%%%%%%%",
"%%@@@++OOO$OOOXXX$X#X###$X+XXXX.XXXXXo@XXXXX.#..XXXX XXXXX..X..X.... XXX X XXXX  XXX XXX XXXXXX+ooo8Ac%+O+++%iw+@$$$++%#%$$$$v%$",
"+@$$$$$####XX+oXX##X#+XXXoooXXXXXXXXXXO...XOXXXXXXXXXX XXXX     .X...XX X XXX  XXXX XXX XX XXXXXOXO$&&+OO+O++$%O%%&%%%%@@+@%%@@+",
"@@+%XX#X#93#XX+o$###X+X+X+oo++X+XXXXX.XXXX#.XXXX+X+XXXXX  X XXXX X XX XXXXX XXX X X X.XX XXXXXX+OOO+OOO+O++%$++++%5%%%%+@@+$+@+@",
"++$X####X###+XoX#XoXXXX+XXXX%3X+++XXXXXXX..X#.X$@X+XXXX XXXXXOX XX X XX X XXX XXXX X X XXXXXX+XXXOXOXO++++++++++%****%%%+@@+++++",
"++$#X#$X##X$##ooX#$%+oXoo++XXX+<9%+XXXOXX.XXXXXX++XXXXXX XXXXXXX XX X XXX XXXXXXX XXXX XXXXoXX+XOOOOOOOO++++%%%+%%%%%%%$@+++++O+",
"+######$+#$%###ooX#+XXXX+XXX+X$1w%+XXXXX#XXXXXXXXX+XXXOXXXXXXX   XXX X: XXXXXXXXXX++XXXX+XXoXXXXOOOOOOO++++$&%%+%%%%*%%%@#%#+##+",
"+XX+X+XXXX+X.##oo##X$X+oXX++XX+%,$X+#+#+##QX.#XXeX+XOXXXX  X.XXXXX  XXo X.X.XXXXX+&@XXXXoXooo+o+OXOXOX+++#@$%%%#+%%%%%@++$$#X##X",
"#X##XXX+X+XXX###X$X+###XX++$XXOO#X+X#o###X#o#oooXXXXXOXX XXXX.XXXXXXX X .XXXXXXXXo<<@XX++XoX+XXXX+XOOOO$%#@+#%++O+%%*%++++#X###X",
"###XX+XX#XX+#XX#oX###XXoXXX+#OOOX###X+#XXooo#$Xo@++XOXXXXXX X.X.XXX XXXXXX.X.XoXXX@<>+XXXX+X+X+oXXoXXOO++++++++#+++++++O#X#XXX+#",
"X+#XX.#o##X.oXoX+XX++oX+X#XXo#+X#$#++X###XX++++@@++XXXX#XXX XXXXXXXXXX XXX XXXXX@X+8y+OOOXOO##XX+XOOX+OOOO+++++O+o++$$#####XX#X#",
"XXX#X#XXXXXXX#XXXX+XXXXoX++o+X##X##$$##X#+#++++%@@X+XXXX#XXXXXXXXXXXXXXXXXXXXXXo@o@@3#OOOOOO$XXo+X+oXoOOOOO++++++++o#Xo##XXXXXX.",
"X.#XX.XXXX.#XXXoXo+XXoXXXXXX##X###+##+X##++++++@@++XXoX$X#XXXXXXXXXXX@X+XX XXXo+X+++X$XOXXOO$#X+XXXXoXOO$OX+O+OO++#oX#X##XXX.XXX",
"X#.X###.X.#,#X.ooXoXX++X+X+XXX$XX#X#++##X+++++@++O+X$XX$+#XXXXXXXX>XXhXXXXXXoXXX+X++##$X+XOOXX+XX++oOXOO,#X+++OO#XXo#X#.XXX#oXXX",
".o.oXXX.#.##XoXX+oXoXXXX+ooXoXoXOOO#OOOO#+++++++++X+$$o++####+X#X>XXoX+XXXXoXoXoXOX###$XXX+XX++XX+X+XXoXoXo+o$#X##X+##X#.oo.X.oo",
"o.ooXXXo.#.XXXoXXXXX#Xo+XX##+XXXOOXXOOOO$$+++++OX##++X++++++#++#XXooX>XXX@XXX@@oXO###XX#+XXXXXoXXXXX+OO+XX+XXX##XXXX###Xoo.o.oo.",
".oo.o..o.X#.XXX+XXXXXXoX###X$X+XXOOOOOO++++%%%%$#++++$$+++@@+++#+@XX++X++X++Xo,oX#######XXX+++XX+XOXXOOOo+X##+X$XX+XO##oo.o..o.o",
"o..o.o.::..#XXXX+XXX+XXXX+$XXX+XOO#OOOO+O%%%%%%%$++$%<%+@%%%++#+X@X@+X+X+XXXoXooOX+X#XX$#XX#XXX+oXXXOXOOXoX$$XX+o+#XO%1o.o.oo.o.",
"o.o..XXX.XXX.#.#.#.oooX#$$+X+ooooOOO+X$B@+%%%&@%%%%$*7&++$*5@+++++OOOOOOX+#X#XX##X#X###XO@+X+XXoX+oXXX+Xo+XX+Xo+XoooXXX#.#Xs#XX#",
".o.oXX.X.XX.#.XX#.#$oXX$$%$XXXX++OOO++$++%%&,@%%%%%%%*&$++%%++++O+#+#O+####+###+#+###X#+OOoOXX+oXXoXoXXoXXX+#XXXXoXoXXXX.XXXX.#.",
".ooo.XX.X.XXo.XX#XX%,+XX$+#XX+XoOOO+++++@%%%%%%%%$%$%$$$@+++++##O+++OOOO##++#XX##X###$$+OO+oX++oXXXXoXX+o+#Xo+XXXXoX#oXX..XXXX.X",
"oo..XX..XXXX.XXXXXX%@+XX++X+XoXXOXO+@+@+%%%%%%%%%#%%%%$$@+++++##+OO+++O++++#######X+%%##OOoo+@<@XXXXXXoXX#X+XoXXoX+XXXXXXXX..XXX",
"o...##X#X..#####XX##o$ooXXXo+XoXXXO+@@$%$%%%%%%%$%%%%$%$$$+@+++++++O++$++++XX#*9###X$$#XOOOO+@8@.XXXXX+XXXXooXoXTX+XXoX.XX.XXXXX",
"o.#.%1####.X#,:XXXXXo%@oXXXo+XooXOOO@@%%%%%%%%%%%%$%%%%%%$+++++#O#++++$+++$%%##$X###X+++OOXOX@@oXX.XoXXX#XoX+++o,+XXXXXXX.X....X",
"..##%r$..X#.$<%#XX+XX+#oXXXXX+XooOOo@%%$%%%%%%%%%$%%%%$%%%$@++##O++O+O+#++<cu%#X$X#+++XXX+X+XXXXX.XXXXX+XXXX%%oXXX+oXXXXX..XX...",
".#..####XXXXX$XXXXj:XX#.X#XoXoXoOOo@@%%%$%%%%%%%%%%%%%%%%$%@+++++++++++%$+1SB%#O###XXX++XXXXXXXX.XXXXXXXXXX+XXXXXXXXX@%XXXXX..X.",
".#o.o#.oXXo.oo.o.#g4.#.#XXX#XXXXOOO7++%$$$$%%%@%$%%%$$$%%%@+@++++++++++%%#,uw%OO#XX$XXXoX+XXXXXXXXXXXo.X.XX.oXXoX++oX89oX.o.X X ",
"...o..o..X.o.#o.#Xo.X.XXXXXX++##OOO++++%%$$$$+@+@%%&%%%%%@O@+++OO++OO++#$XO+##OO##o#X$oXX+X@XXXXX @oXXo.oXX.X..oX%&OX%,oXo.o.XX.",
"...#o..oooo..oo.X.X...oXXXXXXXX++++%+@++$$$%%%+@@%5&%%$%%%%$+@%+#+++O++OX####OOOX#o#oX+XXX+XXXXXXXXX XXXo.X.XX.XX+%#XXo..#.. X..",
".#.o.oo.X..oo.ooXXXXoX.oX##XX+X++++%@%%%%%%%%%%%+&57&$%%$%%@+++++++++++O++#X+OOO##X#+X+X+XXXXXXX  XXXXX .XXX.XXXXO#XX#oX#.#.XX..",
"..#.Xo.o#.o.o.o..XXoXoXoXX##XX+#++%%%%%%%%%%%%%@+$&&&%%%%%%$+@+OO+++++++#+X#$X######XXX+X+X+X+OOXX XX XXoX.o.XXXXXXXXXXXXXXoXX  ",
"...X.oo..o.#.o.oXXX...XoX##.XXX$++@%@%%+%%%%<u9%@@$%$$$%%%%$+@++#+++O#++X+###o#XX#XX#+XXX+XXXXo+XXXXXXX X.oXX. XX##.XXXXXXX. XX ",
".XXX.##..o..o.o..X.Xo.X..XooOXO++++$@%@@%%%%nLG*+@@$$$$%%%%$+@O++++OO++++XXoX###$XX++XoX+X+X+XX@8@X XX XX XXXX.X%uz3X.XXXXXXX...",
"..X..#.......o.oo$#XXXX.ooXoO+#+@++++%+++%%%nYK7@@@%@$$%%%%$+@+++@OOOOOOX+oXoXX$X#++++oXXXXoXX@kA8XX XXX.XX XXXo*JPvXX..X.X X...",
"...XX.......XX.X:<&8t@XXXXOOOOX$++++@@+@@%%%8it%+++++$++%%%*++%%$#+O++O#OO+XOOXtXoo+oo+XXXXoX+9mc@XXX  XX  XX XX%nFuXXXX  ......",
".... ........XXX+%8nA<XXXXXOOOO++++@+%%%%%%%%%%@++++O++@%%%%O+@%%+O+#++#OOOXXO+<X+ooXXXX+X+XXX5w+<X+XXXXXXXXXXXX#%%O X XXX....X.",
"........X ...X. XX@wl%X.XOOOO+++O++@%%%%@%*@%&%%+++++++%8u*+++%@$+O#OO#OOOOOX+XXXXX++X++X+XXooXXXXXXXXXX XX  X XX.OXXX X X .. .X",
"........X....XXXX.X+@oXXOOOOOOX++O+$$%%%*%@&,%%%@+++++@+uc*$+$++$$O+OOOOOOOOXXX++oXXXXXXXXoXXoXXXXoXXXXX XXX XXXXX.X XXXX   ....",
".....XXXX...XXX.X.X.XXXXOO+OOOOOX+++$@%%&%%@@&%%++++++@%<1$$+++o&$++OOOOO+oo++XXo+X++XXXX+XXXoXXXXXXX@@XXX XXXX. XXXXXXXX.......",
". X..%w%o.X.X.XXXXXXX+X+OOOOOO+%%$+@%+@%@,,@%%%%@+++++++X+X#++$$++OOO##XOXooXXX+XXoXXX++XX+XXXXXXXXXX++oXXXXXXXXXXoo XX  .......",
"X.X.X@w<oX.X.oXXXXXXXX+#O#O$OO+*d%%%@@%%%%%%&%#@+++++OOO#+##X###OOOOOO#OXXooX+X+X+X+X#XX+XXXoXXoXX#XXX+XoXXX+XXXXOOXXXX ......X.",
"XX.XXX++o.oXo.XXXX+XX++++O++++O*77%%%@%%%%%*%%%@@@@++OOO#X#X##X+++O#OOXOXooOXXXXX+XX+$#+oX+XX+oXoOX#oo+@XX+XXX++OXOXX X .. XXXXX",
"  XXXX.oX.#o.ooo#+XXO$++++O++++@%%*%%%%*%%&@%%%%@%%@$$+####X###+O+OOooo++XXX+X+XXX#X#%#XX+#X##X#+XX###o+oOOOOOXXXXXXXX@,XXXX X X",
"XXX XXo..#..XoXoXXX$OOOO++OO+++@%%%%%%@%%%%@O%%@+%%$#X+XX#X#X#o+++@+X+oX+X+XXX+X+X##++$X#X+##X+#+####$+onOOOXOXO@@XXXX,3@X XXX X",
"XXX X.XXXX#.XXooXX$$+++++O#OO++%%@%%%##w%%%@@@@+++++######X#+X+#OO+oX+XoXXXXXoXXX#,X++X+#XX#X#X#X#X#X+++++oo+OOO+XXXXX@@X.XX XXX",
"  XXXXXX#XX#XXoo#X+++O+o++++++@$+@+@++@@++@@+%+O+OOO#X#XXXX+oXXXOOo+XX+XX++XoXX@#:Z+++$#$XX+######%$#++++O++OOOOXXXX X XXXXXXX X",
" X.oo.XXX#XXXooo##++++++++++++@@+@+++OO@++O+++$+OOX####+$XXoXo$#OOOO+XXXX+XXXXoX+X#+++$##X+$#++X#X$##++++o+ooXooXXXXX XXXXX XXXX",
"  XXXoXXXXXXX#.o+o+++++++++++++@@@++++O+++++OOOOOO###X##$XX+X+XXOXXOXXX+XXoo@XX@X#$$@++$#####+++#+++$+++ooo+o++X@XX+X XXX XXX X ",
"  XXoooo##.X####+u$++#$+O#++$++++%%+OOO+++++OOOOOOO###+XXo+XXX+++OOOX+X++X++oo+oX##$+++X#$X#+++++++#+$+++oo+@o+X++XXXX @X  X X X",
".XXoXooX#.oXXo##X$$++X$+++++@%+@+++++OO++OOOOOOOOOOXE,+XOXXXX+XX+OoOX+XXo@<@++++++#X+++++#X$$++++++++#X+++++o@@X+X@X XXXXXXXXX X",
"..XX+XXXoXXXo$$XO++++++++@+%%@@+$++$$###OOOOOOOOOO+++++X+X#X#%$uooX+X+XXX@<*++O+#X#X##+++#$+++++++++++O+++O+O++OOOOXXX XX.X XXXX",
".X.XX$%++oXXXXX+OO+++++++++++@+++++##X+#XOOOOOOoOOOoo+ooXX+X#<$9OXXXXoX++@%$X#OO#X##+++++X+++z<+@++++++++O++++%##OOX XXXXXX X X ",
".XXXXX##X++Xo+XoOOO++O+++++++++++++X+X#X+OOOOOOXOOX+XXXoXX+X+++OoX+XXXXO++X##X#X++++++@+++X$+++@@@+++OO+++OOO++$+OXX X X.XXX X X",
"X.XX#$XXXXXX+XX+OO+++#+OO+@+%%+o++++###XOOOOOOOOOOX+XoooX+X#X+#O+o+XOOoO+XX##+##+++++%+@+++$++++@++++O++#OOO#O$%@XXXXXX.X  XXXX ",
"..X+u<XX+XoXo+XXOOOOOO#+++++&u+++##X#X+#OOOOX+ooXXX++XXo#Xo+###OOOXOOOOOOOOO#++++@++$@@@$$%@+@@@@@#O++O++OOOO#%*%+XX.XXXX   XX X",
"XXXX1%XXXXXXXo+XOOOOOOO++++O+++++X$###X#OOOOXo+oXOXXoXooX#X#$*#+OOOOOOOOOO#O++++@+@%%%%%%%%%@++@$+++++++OOOO##$%+X.X...XXX   XXX",
" X.XXXXo%#XXXXX$OOOO#OO%O+O+O+O@#X###XX#++$$+oXoXX+X+XoX#X##$9O$kOOOXOOOO#++%8%$@%%%%%<%%%8w*%+@@@@+++O+OO#X+O+X+XXX.... XXX X X",
"XX.XXXXX+X#X+oXXOOOOOOOOO+OO+oXo####X+#XX*w*oX@X+X+XXX+oX#$XOO+$+OOOoOOO##++%iw$%%%%%%%%%<ti<%%%@+@++++++##+O+X+XXX.X .. X XXX X",
"X XX XXX#.#.o#+XXO+OOOOOO+OX++X++X##Xo+X+&8,XX@XXXX+XXX@OOOOOO+O####OOOOX###$*%+@%%%*%&@%%**&&%%%+@+OO++O+OOOOOXXXX. XX  XXXXX X",
" XX X XX.#.#oooXXXXXOOOOOOXOXoX++XX#XXoXX@@@X@XoX+X+X+XXXOOOOOOO#X#XOOO++##X+++@@%%%%%%,%%%%@%%*$OOO+OOOO#OOOOXXX X.XX X :X+XX X",
"  XXX X.#..#$$$XOXOOX#XXOOXoXXoXXXXXXXXoXX++XXXXXX+XoXoXOOOOOX$#+%++X#+++++++++@%%%%%%%%&%%%@@@#+OOOOOOOO+O#OOXXX X  X XX:XX   X",
" XX XX.of.##:%oXXXXOX##XO++XoXXXXX#XXXX++XXo@@Xo+XXo+X@XO#O+++$$++$+$$%%#+++@+++%%,%<%<%%%%%@+OOOO+OOOOOO+%$OO+XXXX...X.X XXX   ",
"..... .X#XX.+ooX#.XX+#XXXo+XX+Xo#XXXXXXoX@XXXoX@XoXXXXXoOOOOX+%+$%$++@%%$++++o++$%%<<%%%%&@%+++OO$+O+OOOO++<#XXXXX.....X ..X X X",
"........XX.#XX+oX#X#XX+X+XoX+oXXXXXXXXX+OXXo@oXX@X+oX@oXOOOO#++%%%++++%%++++++++%%%%%%%%%%%++++++O++O+OOOO%l$+.X.XX....X.XXXXXX ",
"........XXXXX+$XXX#.XXXXXoooXXoX$XXXXXXo@XXXoXXoXo@XoXX@1XO+#X+*9%++++$+++++$X++%%%%%%%%%%%@++++OOOOOOOOOO++#X.XX. .. .XX..... .",
".......X.XXX+$$$$$XX#XX+ooooXXXX$$+XoX+XXX+&*@+X@XXX++X@+++$$#@,%%+#*+++++++$+++%%%%%%%$%@@++++@@+O##OOOXXO++XX. .X.............",
".....X..XXXX+:+@$$X$XX#X:X##XXXoXXoX+XXX@Xo@e<+oOO+O+++++@@+++$+@+$+++++@@++@@++%**%%%%$$@@++++$@@oX+XoXXXXX XXXXX X............",
".    XXXX  XX+@@X#XXXXXX#X#.XXXoXo+oXX+XoXX@@@o+O+++O+++@+@@@++++++++++@+@@@@++++***%%%$@@@%%%+@@X++X>Xo>XXXXX XX X ............",
".   ..XXXXXXXXoX#.OXXXX#o#.#XXXoooXXX+oXXooo++@++++O+++++@+@@++++X#++@@+@$+$%%++@%%%%$$@@$$&9*+++ooX+XXoXXXXX    XX  ...........",
". ..  X.X X  XXX.O.XXXXXXX#.oXXXoXX+X+Xo+o++++++O++++++++@+@@++@++$#++@%$%%*kc*+@%%%%%%%@%%&5*$+oo+oX+XoX XXXX XXX XXXX.........",
" ......XXXX X XXXXXXXXXXXX#.#.XXoX@XXoX+O++++++++++++@@++++@@+@++++++@@%%@%iLYl%$@%%$%%$$$@%%$++oooo>XXXXXXXXXXXX XXX X.........",
"......X. .XXXXX .XX.X.XX.X.#.#XoXoXXoXXoO+O++O+++++++@+++@@@@@%++%++++++@++7GKu@@+%@%$%+@+@+%@++oo+oX..XXXX  X  XX XXX..........",
"...... XXXXXX X .XXXXXXX#o..#$ooXX++XX@++++++++++@@@@@+%%+@++%++@@%$%+@@@@+%w9%%+%%@@+++@@++@@O++XooXXXXXXX  XXXXXXX X ..X......",
".......X XX XXXXXX..X. XX#oXoooQ+XXX@X+X+OO+++@+@@@%%@@uu@@@@%@%%@%@@+%%%+%+%%+@@+@@++++@$+#$+OOXoXoXXXXX XXXX       ....X......",
" ....XX XXX XX  XX@@OXXXXX$f+XXXXXXOX++++++++@@++@%%*%@uu%+@@@%%$@+@@@+%%%%%%$$@%+%%%%%%$%$$++XXX@XX+oXXXX X XXXX.X......XXX X  ",
"...... XX X .X XX&Ac@X XXXXXXX+X++X+$+++++u+++@@@@%%%%+%%@@@@%#%%++@+@@%$%%$%%%+%%$%$%%%%$$@OOOOXXoXXXXX XXXX X .XX..... 4e:X  X",
".......XXX XXXXXX,nz+XXXXX+XX+##X++++++++@*+++++@@@@%@@@++@+%$@+@+@@+@@@%%%%%$$%$%%%%%$$%$$$+OOOooo+XXXX XXX X XXXXX ... :3>.X X",
"...  ... XX XX XXo@+XXX .XXXXX#X++%+@+@@+@@@++++%@@+@++@@@@+%%$%@@@+@+%+$%$%%%%@%%%%$%%+@$@%#+OO+oooXXXXXX  XXXXX XX   . XoX  X ",
"... .....XXXXoXXX.XX..XXX#.XXX++++%+@+@+@+%%+++++++@@@@%%%+@%$%$+@@@++@@$%%%$%+@$%%%%%%%@@@%&%OOXOOOX@@+XXXX.XX. XXX.   .   ..X ",
"......... XXXXX .XX.XX..XXXXXXX#X#++@++@+%@$+O++%@@+@@$%%%%$%%$%+@+@@@+@$%%$+$@@$%%%%%%#++@%&%#OoOOO+@i8XXXXX....XXXX  .  ..XXX.",
".........XX.XXXX.XXX#..oXXXXXOOOOO++++@+@@@@+@++#%++@+$%%$%$%%%@@@@@@+@@%%%$@<u*%%%%%%%$++++$+OOOOXoOwAc: .X.X...XXXXX....X  XXX",
"....o... .XXXoXoX.Xoo#XXo#.XXOXOO+++++@@@++@@+@+@@@@++#%%%%%@%%+@+@+%%@+$%%%@<i*%%%*%%%$&+OOOOOOOOOOX&i<XXXX.XXXXX.X X.  . XX X ",
".XX XX..X%*XXXO+XXXXXXX+<w%XXXX#$#$$+#+@++@@@@++@@@@+++%%%%$+@%++@@@%%%@+%%%@@%%%%%%%%%@++o#$X#XOXXoXo+OoXXX XXXXXXXo.....X.XX  ",
".......X+w8+X+X#XoXXXXX%uHwX#XXXX#X$+o@@@@+@+@@@@B+@@@++@%$%+%@@@@+++@++++@@@+++%%%%%+@++++####XXXXOX+OXoXXX XXXXXXX.o:...X..XXX",
"......X X<%+XX+X+XXX.XX$<i<XXXXXX##$++@+:+@@@@@@++@@@@@++@$%@@+@@++++@@++@+@+@@@@+%$+@@+++X#o+X+XXoO+XXXXXXXXXXXXXXX.oo..X.. X .",
".X.XX.X.XX+XXXXXXXXXXXXX++XXXOO3#X#X++@@+@@+++@+@@@+++@@+@+@++@+@@+++++@@@@%@@++@@%%@+++#X+#$XXXXXoOO+XoXXXXXXXXXXXXXo.o..XoXXX.",
"X  X .XXXX+o+XXXX###XXX+XX+XXXX++$$++++@@+@++@+%@+@@@@@++@%@++++%*%++++%&@++@@+@++@@@@++$X###X#+XOOOOXoXXXXo+O+XXX#.#.X.X o:XX X",
" X  .X X+XXXXX++X+X#+ooXX+XXOXXXX$+++@@@@@@@@%$%%%@+@++:@+%+++++%8%$O++++!++@+%+@@+@+@@+$+X###X+XOOOOX+XXXXXXXXXXX.#.#o.XXXX X.X",
"XXXX XXX+XXXX+XXXX#$+XXXo++XXX+XXo++@@@+@@+@%%%%%%@@+@@@$@++++++%%%$+++@++++@@@%+@@@$$++$$###XOOo+OO+XoXX+oX+X+XX#X.#XXX XX X.XX",
" X XX >oXX+X+X+Xo+X$++###XXX++XXXX+++++@+@@,%%%%@++@@+@+$$X+++ooO++++++@+++++++%%+++$X+++X#++XX+OO++oX+XXX+X+XXX#..#.oXXXXX XXX ",
"XXX XXX+XXX+X+XXXOO+O++++X#XXo+X+X+$++++@++%%%@+@+@@@@+%++X###oo#++X#+++++++O+%%+++++##+$##OOO+XOOOO@@+ooXoO$X++XXXXXXXOX XX X X",
"XXXXXXXXX++XXOX+OOOO+%@tfXXXXXX+OXX#+++++@@@%@@@@+w<+%@+++#X##oo#X#X##++O+++++O+++##X#OOX<,OXOXXOOXo@@XooOOO#+XXXOoXXXXXXXXXXXXX",
"XXXXX@XXooooOOOXXO+++@@+#XX+oXXX#X#X+$+#+@++%%@@%+@@+++#+##XX#X#X#XX+#++++++O+O%+###X+X#X+oXO+XO+XX++XoXOOOOOOXXoXOXXXoXooXXXoXX",
"X@XXXso+ooooOOOO+++++@@@$+#XXX+o#X##X#+++++@@@@@@%+@+++#+#+#X#X#+XX+X##XOOO++++++X+X##XX+X+oXX++oXOX+XXOOOOOX+XOX+oooXXOoooooooo",
"X@XXo++XoXooo+++++@@++++@o+XoX+X+XXOOOO+++++++@@+@++++X#X##XX+X.XXXX+##XOOOO++%u3X###XX#Xo+XXoo#+XXXX+X+OOOOm+OOXX+XooXOOOOOXXX+",
"XXX++XXoX+o++++++%%$++OOoXo++XoXXX+XXXX+++++O++++++$+++##XX#XXXXX#9:X###OOOOOO*nu$#X#XX+o#XXoXo#OO+oXXOOOOOOOoOO+XXooX+XOOOXo++X",
">XoXX+oo+oo@+@@++%%%+OOOooXX+XooX++XXXXO+O+++++++$###$##++XXX#.XX#$#XXX#OOO+XO@<%+##X+X+XXXXXXXXXOo++X+oOoOOO+OOoo+XX++OOOOX+ooo",
"XXo++Xo++++@++@+++#++O+OOO+XoXooXXXX++XOO++++++++X+X+X+XXXXX#.XX#.#XX+XXOOXXOOX+Oo#$XXXXXXXXXXXoXXXX+XooOXOOOXOOXo+XOOOOOOOOooo+",
"+#$OOOO++O+++++++#@@O#OO++@%+XOOo++@ooXXX+++++++#X#OoXoooXo.X.XX.XXXXXX+XXXX#oXooXo+XX$XXXX.X.o.XXXOOOOOOOOOO#OO+X+OOOOOOOO#O#%O",
"+##OO+O@+++++O+++%%#+O#OO+@%+OO+X+eeooX++XXoXoXoX#XO+XXOXoXooXXX#.XXXOOXXX#.OoXXXoXXXXXXXX.#Xo.oXXOOOOO++#OOOOOOOXThO#OOO+OOOX++",
"++++#++#+++++OO++++++O#O+#*7%O@&+X%:o+XXXXXXX+XoXXXXXXX#oXo..oXX#..X<i<X#X##XOXXo..oXXXX.o#.o..XXXXXOOO+OO#OOOO#OOoO+OO+O+O+++%+",
"#+@@+++@++@++#++++++++O++&AGw+%@oXo#XXXXXXX+X+XX.#XXXXXXXXo.X..X...#iAuXXX....XXo.oXXXXXX..#.oooXXOXOO@$#OO+++O+o+OO+%++++O%++%%",
"%%%%$@@@$%$$+O++++++#++++*GIiOOOXXXXXXXXXXXX+@Xo#.XXXXX$XooXXXX.X.XX<u<XXXXXX.X.X.ooXXXX.XXX.XXX.XXXO+%%#OO$#++O+++@+%*%%%%i+%%%",
"%B+%%%$$%%%%+$+++++++++@+%tk&XXXX X..X XXXXXXXXX.#XX.XX.o3<XX.XXXO.XXoXXXXXX+$X#XXX. X  .XX XXXXXOX+O+%$#+O++O++++@&%%<%%%$+@%%$",
"$$$$%$$@@$$$+++++++O++O#+OXoXOXXXXX XX XX+XXXXX.o.XXXXXXX<<oXXXX.oXoXX ..XXX%%#XX.X.XXXXXX X.X. XX##OO$%*#O++++++++@%%<%%++@%$$+",
"%%%%$%%Z%@%@+#+++O++++OOOXX++XXXX.XXX XXXXXXXXXXoo.XXX XX++XXXXXOooXXXX ..X+%,#.XX..   XX.XXX.XXXX#XO+%&&$O+++++++@&*%%%%%$%%%%%",
"%$%%%%%Z%+++++O++++#o$X$OOOooXXXX..X.X.XXX X XXX.oXo.X..X XXXXXXXXXXX.. .X.XXXXX#......XXXXX.XXX#9w&OO+%%$#+++#@O%%1%<%%%%%&%%%%",
"%%$%%%%%%@+++++#u+o$+#X+OOOOXoX+XX.X.XXX XXXXX.Xo.X.X.X. X X XXXXXXXXXXX..XXXX#XX...O..X......XX*GLcOOO++#@+++$%O%%%%,%%%%%%<%%%",
"%%%$%$%%%+@++X++X###XX+XXOXXXXXO.X......   . X...XXX.X.. XXXXXXXXX.X.XX...X..X......o........XX#%AKlOOOOOO+#O++++@%%%%*G%%&<<,%%",
"%%%%$$&$@@++++XX+XX$XXXXoOoXOOXX#X#................XX...X   XXXXX.XX XX X..XXX.X............XXXX$<w%OOOOOOOOO++#++%%%%%%%&%%%%%%",
"%%%%$%&$@+++oo$XX+XXXXoX#X#XO@oOX.o3...............X.X.XX XX.XXXXX.XXXXXX.. X X .........%..XX#XX++XO++O#OOOO++$@%%%%,%%%<*%%%%%",
"%&%%%%%++++++$###XX$X++XXXXXo@XXo#.fo..  ..... ...XX....X. XXX.XX....X XXX.X.X.X.......... XXXX+X+XXOXOOOOO++@@@@+%$%%%%%%%%&%%%",
"%%%%%%$%@+++++X#####XXX+XXXXXXXXo..oX. . ..... ......... .X.....X... . X  .XX .............X+XX+XXOOOOOOOO+++@@@$$%%%%%%%%%%%%%%",
"%%%%$%$@+@@@++$#X$X##+XX#XX.XXXX.Xo.XX.................XX.X......... XXX.X.. X............XXXXXXX+OOXOOOOO+++@%$$%%$%%%%%%%%%%%%"
};
