/* XPM */
static char *d4d1162b5dc14e71ecdb02f0586742675d4jinkeSrUp6GEi[] = {
/* columns rows colors chars-per-pixel */
"128 128 40 1 ",
"  c #05010E",
". c #06020F",
"X c #060111",
"o c #060210",
"O c #070210",
"+ c #060211",
"@ c #070211",
"# c #070313",
"$ c #070314",
"% c #070216",
"& c #080313",
"* c #080214",
"= c #080317",
"- c #080318",
"; c #090318",
": c #0A0318",
"> c #0B031B",
", c #09041A",
"< c #0B031E",
"1 c #0C031E",
"2 c #0B041C",
"3 c #0A041D",
"4 c #0C041F",
"5 c #0C0321",
"6 c #0B0420",
"7 c #0C0422",
"8 c #0D0523",
"9 c #0D0424",
"0 c #0D0525",
"q c #0E0524",
"w c #0F0526",
"e c #0E0527",
"r c #0F052A",
"t c #0F062A",
"y c #10052B",
"u c #12062F",
"i c #130632",
"p c #140634",
"a c #150738",
"s c #1C0A4C",
/* pixels */
";;;;;;;;-:--:-&=&**-*;%**%##  #  # #  ............ .. ..  #O O ............................&# ## #%# #%#%#***-=======:==:---::-:",
";;;;;;;;-::-====*****%****#########2#   .......... && ..#   ..#...........................O #  ## ###** ###***-%=&=====::-:--::-",
";;;2;;;;:-=::-==*-*:*;***;%# # ## *O # O.........#  #... #  ... .........................  O-# ### %#%*$##&*-*-;======-:-*-*-:--",
";;;;;;;;--:=:-=&:****%;***#%###  # &  * ....... .O#  . #  ##...#.=........-#.............  ## ###%*####$&&&***;%&=&==:=-:4-4-=*4",
";;;;;;;;*:-*--;*-*****%*%%###%##& &  & #......#   # .  .## #   #--.# ...........  &.O   .. O.&.=# ####%#*****&=-====:=:-=w:-::-:",
";;;;<;;;7:-4---%:**==*;-%###%<*#..OO    ......O..* ##=#. ##  ## .&..............   .  # ..     # ######%***=*==-===:=:=*:-::-::-",
";;;<;;;;--=--%;;41*-*-**%*##%2-;...O#=*#.......... & # .#   * ##................ ## &O# &   ....#%%##*%%**&===&:==-=:=:4=:---:--",
";;;;;;<;------****;*******#####%...  =*#..........--.. ## #=## &....# ..........# ## #%# #&#..#  #***##%***======-=:=:--4=:-::-:",
";;;;:-:----=*;;%**%;**%-**#  #       *# ...O    #-76-&.  #=O#*   ##.*&#......... ## #%--#&# #  #####-*$=*=**&====----:-:*::--::-",
";;;;-=*---*-;;;%*******;**###    # & #  ...   #  2tq- .&.. # &# .. .  = ........#    %-;#-#  &  # ##&&%%***-===&=-::-=:----::--:",
";;;;==*4-*=:5<%;;%;%-**-*%%    *   #&*##.. O#O  #$2$.#.. ###...... .# & ........# ## %* ####&##  ###*=-;==--======:-4*4*4:=-4-4:",
";;;;4-7-:7--;<****-******-%  #& # ##*=*#O. * *#   ##...  ===...... & #O.-.......# % ########## ##%#%77%*====:=:-=:=*4-:=*=:-*-:*",
";;=--=--*--:*****%******%## &&OO###%==%$O .&# ###    # & --=............&....... #%##  # ###**$$%#;;<<;%&*&=====::==:=:==:=:-:--",
";;=-==******-****;***=-*%%%#*  * # #=%%$& # #  # *##   # -==............ ...&...### ########**$$****;;;***===-=====:====:=:=:--:",
";;-%===&**-:;**%;*;%****&&## ## # #%#-4*= #  # ###  # # * *&.............. .# &  #%  # # ###=-%%%#*;5<%**-*=-=:=====:===:-======",
";;-%=&=&*:****;%%*******%##&=# ##  #&-:=#= *#### ##= *  #   .............. # *O&## ## ## ###**##%#*;5<*%*----77==&=====---=&=4:=",
"-;*%****%%;***##%**%***%###### ##   # ### #########% ## O... O #........   # ## #  ## ### #### ###**--**&====-===4*-*--=========",
"%**;*****1;***#%%****#%#####*####%## ###########**#%%# #....*   #. #.... #### #  ##  #%  # # ####$$=-**-*=&:====::744*--&=-**=&=",
"***;;-*******%#*%***%#######*=##**####### ####;*--**%#### = O=    ......  ####### #######  #######%%*;*-=====&==>4:74*-%=*=***&*",
";****%#%********%%%2########$#**#%############%#-***### & *O&  #.## .. ## ######## #  # ###%##%%*%%*****==---:==**4:-4--=&******",
"%***%%%#***1%%#*#%**%%%#%#%;###*2*-##%%&##;%%#%#****##%# ## ## ##  #. =.########%*%%####***-##****&*****====44-=-:4:7*;-**-#*$##",
"%%**####%%%%###%##**&#*&###*%#*-**%##***##**##%;4***%%##&  # ##  ## .# # ########*%;%##%**-*##%**%#%=**=&==:---=:--:7:;;==*#*$##",
"##%*### # ####%%#******###--*%$*%$****=*%***%****;-*###&==###  #%-###&.# ####*###*;;#%%%*-*%########*&&=:=======*==-*-:**$######",
"##*%## #### #####%%**%%###*******-****==%%**#***;-**%%#=  # # #### # =. # # ####**-;*###******####%#&**=-=&==&==--==-:;***######",
"#### ##### ########%#####%###****;*;**&*====:=-:<*%*%##%*=& ####*##*## ## # # #%*;%<1%%*******%###**%&**-;*%*;==%;;*;****-## ###",
"#####  #### #################****;*;;*-%&==-=---;;;%*%****&&#####* ###########****;*;***;%;**=%$##*%##*****;*%--**%*%***%*###  #",
" # #### #  #  # #####%######**;%*-*-;%*-==-::==:;;%;********#####%**#*##### ##****-%**%#%*%***####*#$$****%*;%**;%***%#**# # # #",
"# # # ### #### #############%**%****%;;-=:::=::=%;*****=:***%#%##;#*#2######%%*****%***%%%*****###%#%*-***%#%;***%##%%#%$$#    #",
" #* # #  ### ############%######******&=&:=:-:-=****--*-=&***-*&%%*$$$######**%***%***;%##%&#%#########&##%#*****######### ## # ",
"#    # # # ######## ####***%%## *******===:=-:-=**==**-;==*=-**&#%-*%*=$##%#**<%%*;*;****##*#########%**####****%####%## #   ###",
" ## # #    # # #### # ##****####***-*:===:---=---==*==-%===:====%-*****%%%***;5%*;%*%****%#%#########***%#%;*-*###%#%%%## #  #  ",
" ##  ## ##   ##### ####%%**##%*&:*****====*4*4:--===--=-:=:====&******-*%##%*;%%******;%*%#*#########%*%###*#%%*#*%##%%#### # ##",
"### .& ......# .## #####%;**##%**-***;;7*-;;1;;;-7*--4-:-=::==&===***-**;*;**%**;**%;*****%-###############%######## # # #**=## ",
"  * .. ....... #  ######%*%-#%*******;-;--;;;;;;*4=:-*-:-=--=====*=-****%*%**;**%**;%**%****##%%##### ######%##########  #O # # ",
" # #....&.... .# ##%%###***%####*%*-;;;;--411;;;:-::44*=:=-====****-*-****;%**;%****;;;%;%**##;%#######%##%####  #######  #  & #",
" #  ....  ...#. # ######*%%#####%-*-;;*;-:;;;;;;-:--*-=:===&==**==-*-*&=%;**%;*****%;<<*******;* ##  ###%##%##########          ",
" #...# ...  #O   #######*%########;%;;;;;;;;;;;1:-::--:-:==:============*;%***;;;***;;;**%**%%*# ###########%#%######## ....O ..",
"  ..--= #.. ===.# ###*##$$####%#*#**;;;;;;;;;;;;-:--::-:=:===&*&**=====&;%%;*%;;%*%;*;*;*;%%#%%%############=-$######  #&... O .",
"O  .---* . ##=-&######%#########*%**;;;;;;;;;;;;-::--:-::--:======&==&=--*-4<%**;***#*##%##### # # # # #####--$$######  * ......",
" *O.&*&& #  #& *#### #  #  #####%**;;;;;;;;;;;<;:--:-::-=::-=&=&=&=====--**75;**%**%#########%## ###%# # # #%=#X###  %%#OO......",
" #....#...#   .. ## #  # ## ##;-***4*::-;%=-=-:-:-=>*-:-:=:=====&=======;*;<;%;%****%############# #oooXoX # #XX#&= *--#&    ...",
"...... . #& .= #### # # ## ##%%****--*-:*%==:--:==:4:-=:=:==&=&===&=&=&=**;%********%########  # #% ooo$o# X# XX#==* ==  && ....",
"......... .= #.=#     ## #%%#*****=:--:--2;%:--:=4744---:-=====&&======&%*****;*;**%*#########  # ##XoXX#  o # ##%= &# ###  ....",
".........## # ## ##### ###******--*4---:---<-::-*4qq>*4*:--=======&===**;**%**%*%**;*########### ## XXXXXoo#X # # =# ==##  *....",
"........ ##& ## # # # ######****4--4:-:-:-:-:>*-:-7q:--:--:-======--=&=&***;****;****%%############ ## #oo$#####  %#* =# #O&....",
".........  .#  #   ### #######***-*;-:-:--4:4444--=:::--:-::&=&*===-===******%;*%**%**#########*   ## # oo ##   ## #  & # #...  ",
".......... .  #  ##  # #####%%%%==--:-:-:-*-qyw*=:-:4*-::--:*=*-&=****==*%#%%%***%*;##########%1t%##  ##oX##  ##%<;; # ###...  .",
"..........#  # ##%%## ######***;===--:-:-::-7yy:-:-=:-::--:-4---==*-***&########%**;*##########ist# ## #ooX ##%%2qt9  #   ......",
"...............O=w:4-=&&=&&#***;=&-==:=::-:-7q1;*;====&=;;;6;;--==**-****;#*%##;##***%###### #<ip2## ## &&    **-6q-&  .........",
"................-7477-#&******%;==-::=--*:-::*;;;*======;-;;-%---=****--#%####*;##%###########%<-%### ##   #### %%*% & .........",
"................&&==4*# ******--=**-=*:--7-*4;;;-%-&--==<2;;%%;===***=**%#######################=###### &    # & #*$    ........",
"........... ....&&=*=%#%**-*-***&&:--4*4:*71;11;--===--=<q;;--%-=-=-***#####%############## ## ##  ##### # ##   ###$* #&........",
"..... ..   *     ###**%**-*:*-****-:=-4>7:177:4:-;;;:*:*<<%*;%*-:-=**:*%################## ####   # #%*%## ##    #%*###*........",
".....=-=##   #  # ##*=*********-----:-=*-:*-*-*--;**&&*-*%%*%;-*=-*****=##################### # ####$$**## #######%#    ........",
".....=--&  ### #####*-*=&*=-:*--74>*-*:47*--7*-:--:;-****;%;*******:***;###########=#**%############%%-**#############  .... *..",
" &.&..=&  # # ####*%-***====-*::444>44-*-*44-*:-;--:***:******-**=**=***#########%***-*%###########%******%*######### # ... &OO&",
"## # ## ## # ####%**=========:=:*77:-4*7-::7-:-:;6;*;%*%**;%****-******#########$#***-*%**=*-***#%%**;%*%****;%%%% ###-;O&  &=* ",
"#  ##  ##  ######%***&&*=====::=-::47-*--:**:-:-;-;;***;**%***=*---=%**#########%***--***&&*****#%;**;%;7;***%%*%***  %*=   # O&",
" * #  ## #   ###*-*===========-::-*--:*44----:-:;*;*;%*%*%%##&******%%##########***-*--**%*-*********%*;*****;%*##*## %%O#== ## ",
"     # *%  #####****=&=&&==&=----:-:----**4-:-:**;*****;*####%%**=**############*%-***-=*%***-*&**2**;*%*%;*****##*O# ##* O=## #",
" .  ### ## # %%#**-===========-::-========-===--*;*;%****%####******%#####%%####*%***;*%***-*=*=-****%**********##### #* ##  #  ",
"..# # # #%###*##**%-&==&&=====-:-:==*&*====-&=***********#######**-*#######;##***%*-;;;;***-====***&*;****;%**%%%# ##  ## ###   ",
"..&# O=#% # %#%%-<*-=&=====&=-==:-4-***==*=********%*;%*%######%**%#######*******;-;;%******=&==-===-*;%**;*;%**%### ###% #  # .",
".. &=*#* *###%%#;%--========-=:=-:*-=**-&******-;*;-;;*%########;%*#####%*---*=***%****;-**-=====-=--%;*%;%%;**%%%%### % ## #&..",
"  ###%##### ****=*&=&==-========-*-*-*=*;-************%#####%;;<*%%######*;;;********:***=**=&=--===&=&*%**%*;-**%%# O#=O## ##  ",
"#  ##*<#*####%%**&=====-:==&-===-%;*****%******=*-****&*####%<;;**######**;*%%****-****=***==4:-:==&===*;**;*%-**;## & &*  *# . ",
"  # ####*%######$*====*-====---=;*;%*******-=*%%**&#%%#&###%%*;%*%####%*;**%%;***-**---*====&=-:=--=====;%*%;**-### ..*O  # &...",
"   #*###&#######%*=**&;;====:----;**%-%**********%###%#&%#%*******####*%%**;;-**---:---4===-=--=::===&==***;%*-q*%##.. O# #  ...",
"O&&#4*%########%=*=**:-*&=&=;5;*%****%%*;***%**-%########%#***;****%#**;****%;%*:-:-:-:-==-4*-=::&==&=&=******;q7*  * .&O.     &",
"&  #=*##%## ##********;*====**%%-*-*#%**%*%;****$$#######****;%**********-****%;-:-:-:-*::--:-:=========**%*;*;-*%#   .O#..*.&# ",
" ## # #*%% ###%#*%*****4**=&****-*-**-**;-****########%#%***-7*-a**%**;*--*-*2;;:-:-:-:4:-7:---*:=====&=;%%;%****% # O .     ## ",
"###  # #%#######%*-****-***&**%******$***---**#########$$=******;%*;**%***%-;2<;-*4:*7*74*444:-4-::=&===******&%*#  * .... ## *=",
"  ..&...#### ###$$%*******%#**##-%#%#####*=*%%##########%*******:***********----:-:*7*4*7:*77-*1---=*--******=*%.... #..#   ### ",
"#  O ... #  #### ##%***-**%#%*####%######%*%#$##########%******%****-**&*-**-----:-7-::**-:-*--4:*****;**;;***$##...... &-=#   #",
"  & ..O&=  ##*%#####%***#%##%## #############%##########%****-;--:==*:*-**-;-=4*7*-::*-7-:-:-:*-****-***%;;;**## ......#==&O  # ",
"   O.. O*###%%### ##$*$%#%%###### #  ########*#####%####;**;*-%;*---*-4*--;;====*:7*717*7-:-:-&&*--****-**<**%#  #........# O  #",
".......&## ##%%* ########%%###### #### ######*#####**###*-;*****-:-:=::4=======&-:777*-**:-:====----*-****;1***#............ O..",
"....... # # ###*# ################## ###############%###******447=**==--=&=&&===:-*-*7:7:-:-=====*-******%;7;-  ............O ..",
"........# $*##-%%%# ##########%##%#  #####=***##*%%##%##-*-***:qq4--========*&=&-::-:--:-:-:=&==*:******%#*-;%  #.........# ....",
" .......   *;*-;%%### #######  #%%#########-*-#&-#*##****-*-**-:4-==:=::====-===::7:-::-:-:-===--:****:*%#**%### ....... #......",
"  .....  . .-47-*;*% #### ### #%##########%*=-*=**:****;;%*;*===**---===-:--:-==:4w4*--4;;;;;*-%;;**%##*### ###.................",
"    . .&O.  ----##%# # ###### # ##########%*--*******-*;%;;%&===;**--===-:::=:==:474=:==;;;;;;-;;%;*%;*#%= # . .................",
"      O&&& * =&& ##### #### #############********-***;**==%-===&;***-:--:-=*:==-:4>-=::=;;*72;;%%***##*# # ###..................",
"....#O O  O . &.#   # ######% # #########&****=***:**-**&&==&==-*--*--:---:>7q:--:*=:==:;;;-;;;;****%%#* ## # ..................",
"........*   &# # # ##### ## #  #########%**********:&=*&**===&--==&--=:==:-4yu7-:-=:--:-:-::--==****%# ### #.& .................",
"........  *# &#  # #     ## ############*%;*-*-**&***=====&===-=&==-===:-=-4qw4:-::=-::--:--:-*=;%;*%##  ##   ..................",
"........ &* #%#    # # ##### %%########%**%***;*&=--==--========:=:--:=:4*-*4*--:-4==&-=:-*--:***%%% ## ###  #. ................",
"........ =#  # # ## #  # %# %#########%#**;;***;==-:-=---===&====:-:-=:=-*44--:-:-:=:===*--:-***##### ##    #&. ..# ............",
" ....... O&  ..####%#  # #*;######*#******%***;%==*4>*=::=&=&=:==:==:-::--:---::--:-4*--::-:-*;#######  #  #= #  ###......-& ...",
"........ #..... ##<<### ##%########%****%;<***;*===:--==-==========:--:-:-:::--:::-:-::--::-*-*=###%#### ## ## &  = ... &--=O...",
". ...... .. ###= %5%# ### ######****-==&*%*%**%*-===-==&-=&=========-::-:--:-::-:=-::--::=--***-****###    # #  * &O .& .=-=&...",
". . .......O  & ##%### # # #####*-=*====*;;;**%;--=*=========:=-=&=::-::--:--:---*4---:-::-::*****;%#### ## # # & O.    .O&& ...",
"... ....   %## ## ### # # ######****====----******=*=&=&====:---=&:==:--::=:--=:-4*-:=:---:-:*****%%#*%%# ## #.. ....      .....",
"........ # # ##  # # #### #  ###*%*****==--*;%;*:**:=====&&=--:-=:-::=:=:-:=-:=*-*4-::=:=:-:-=*****##*;;&  #.... ....  O   .....",
".......O# # ## ## #####  # #####%--**=&===;%;*%**:*==&======-:--=:=---4:--4=:>>4:-4*44*-:==**-*:*%##%;5<= #.#  . #.#.. &.... &O ",
"....=.. O   #* ## ######## #####%*****===&**%%;****=**&==&==----:=::-:*=:->*:44*-:>>*--:4==&******###%<;&=  #.#....      ...   &",
"........#%*&######### #;qi<# ######******;%;==&=**:****:%**%*;===-=::--=-%--;;;;-:4::=:=--******%%###%%##### ## ###  # *# .....O",
"........&*-*####### ###*ist## ######***-*-*%==***7***-**;*;-%-=-==:=--:=-;%-;;;;4-*:-:=:;-****%#######**##     ## #  #;   .O... ",
"........#%%########## #%9p5## ####$*********=***************;*;%==&===-===;;*;;;*-:--::=*;-*-*## ####***### # ####  #     O ....",
"...... & ### ######## ##%*%%###%##$=*-**;*%;*==&***-*;-*%;**%*%;======--==*;;;;*=:--:-==*%****#$####*#%%### #### # ## # *  *....",
".. #....%#########**%$###### ###%***%;;*%***=-==*********;<**%%;:4>**-:---&:;;;;::-:---=*%***=**%%****%%######### # % ##...=....",
"......&=*####*%#&%***%#%#########*****%*%;--=-=&;%;*-*-***%**;**:w4****---&=;;;;--------;;****%$#;-****############ #  #&.......",
".# .   =#*##%**##**-**-*##########;**;;%**;----=%*%***;****#*****7***:*=-***;;--=::----;;;*;**#%***-*%%#####*%####   #   ... =..",
".  & *=&%*########***-%*%########%%**%*%;%%---==%;-;*****#%%%;**;-*****-*-**;;;*==--*%-*%**%*%*********#& ##%#### ### ####. & #.",
"## . ####**%%%##****;*;**%*#######****-;*%;-;;***%****-*%%#*%%#***%*****%**;%*-7***:**-*%%*******%*-*-*####%*%#####  # # ### ## ",
" . # ##&******##&**&;;;7<##%## ###**=****;%*;;;***;***;%##**#%%#***#***=;-*-%;****-*****%==*#%%%=*$*4-;*#***%%########   #  #  #",
"=*=#%#%*******&&#*==;---**%#####*%&%********;;;%;*;***####%#####*%##%#%***-***;******=**##O###%**#$%*%&%*-****########## #=##*#*",
" & =-2*****=***&-*=-%--***%#####*%*%**-*****%%*%%%;;***%*%######;%##*#%*******%*:*:***;*=*==##***##$###*******#%######%*$-#*;#*#",
"&=###$***-;%**==----;;-****##########*%%;***-**;****;%*%#*##### ###%##****=**-*<-****%#% *=  =*=*%####%*****5*%*#######****%#*##",
"= ##$%*-****%;==*-2-;-%%*&%#############%*%;***-**%;***%#%### # #&-*#**********54*=**%##=* #&& =%#*###%*-***%;;*#####%%***#%#%%%",
"& =&$****;%%--====;<*****%##%######%####*%*******%******#%## # # #*&#%%*****;%**%%**#### # # #=#######*****%*%****#%%;;**;****%#",
"===&%****-;;==--===%-**=***%########*###%;***=**;-**;%*%#### ##      ##%*%%%*%%###**%###%##  #. ####%&****-;*;**%%##**%**%%;****",
"**:**&*&====&=&=&---=****-:=*&&&= =-**######%***#=== ==*= =. ##.   & ###### ####%##%##***# # .######*%*********-#%************;%",
":**&*====&========-==*-**:==:***#==--$########%#* #=&# O#*# ..   #  #%### #### ### # # # #  #. .  ##%;*;*%;*-****#%**-*;*;*%;%*;",
":*==*--==&=&==&==&===**&-=:4%-*** ==$############# # #=&OO.## .# &# ;<%###  ### #  ##    * * .# # ###****;%*****-*#********-%-;-",
"--=:==-:=====&====:===*==-w7<**-=# ##### ########  # #.. #.....    *;5*#   #  #  ## #  #     O #####%*;;*%;--**=%***:---;*;;;---",
"4*4*:--:=:----======&===;;5t<### =&= =*O# ##*2##    * .=##* %    . #=2%#      # .O&#&... &.....O  ###*;;;**;-=&***;*--7=*2*4;;-;",
"*q4--::-:--:--=&&=======;*<<%###& # ## &#%&#%%####    .. -=&##* O& ####  * ##;* .. O .... ...... ####*;;;%**%-**%;*7--7;---;*22*",
"--*=--=*:::--**-=&=&&=&=%%#### ##  # # =%*%  ## # #     #===# ##O&O### # =##<1*#.........& ..... #####%;;*;%;-;**%-;741;--;--;;-",
"::=-:=:4--:--*-*======***##%###   #  ##.%##    ### ## #  *## =  * =&###   #*;<##.......... .....  ##%%*;;%;***%*;-2;4*;;--2*;2*;",
"-::-::-:*=====*--;**#%%%***;%####  .& #  #....#. #& &....#  .# # *&==  #O & &=# ..........*O#  #*;;%##**--;;**;%;;;1;44*4>>:*-4*",
"----:-4-4-==&=**<***###%*%###### # .. ........ .   O   #...#. ####  .#.. & *  . . ..=O....      ;5q<%*%;*******<;;;;;:>:=*4-4*--",
":--:-:*4:-;%=&&*%%#%%###%#### #  #. ............#   .... . ###   #.#.&#  OOO# .. &..&.....    ##*5q<%%******;**%%*;;;14w=-4::-=:",
"-::--*4*--%;==&&###### #### ##### &#............  * ....#... .=&#  #  . O &O#&..O&..  ....#  # #*;;%#***-***;%*;--;;;;-::-*=-:--",
"*>-::-4*---%-;**%#%####### ##%### #-. ...............= ...#..  ##  #..##..O   # .........O&  ## ##%###*#*-*:**&=-===:--:*4::4:--",
"-4---:4-;;--%****#*######%# #####  -##.  ..... ........... ..#.. #   O ..  ##  *............#%##  # ###******=*=====-::-4--=*--:",
":--::-*:;**%*;;%;***########## #=& # ..  ...... ......................&....O..  ...........O*% #######***-***-=&=-------*-=::::-",
":--:--:-;;;;;;**%***%##### #  #  #.. #...............................  .......... .......... ##########%****=====:--:-::=:*4--:-"
};
