/* XPM */
static char *_62415197e9b4c978e75feeee4e87ebenM7tj7Wy8YuVlbX0[] = {
/* columns rows colors chars-per-pixel */
"128 128 70 1 ",
"  c #000D0C",
". c #000D0D",
"X c #000E0E",
"o c #00100F",
"O c #001010",
"+ c #011111",
"@ c #001313",
"# c #021313",
"$ c #001413",
"% c #001414",
"& c #001514",
"* c #011717",
"= c #031616",
"- c #031717",
"; c #001817",
": c #011B1B",
"> c #041B1B",
", c #061B1B",
"< c #001C1B",
"1 c #041C1B",
"2 c #011D1D",
"3 c #031D1D",
"4 c #001E1E",
"5 c #031F1F",
"6 c #051F1E",
"7 c #041F1F",
"8 c #061E1E",
"9 c #01201E",
"0 c #04201F",
"q c #07201F",
"w c #022221",
"e c #012322",
"r c #002323",
"t c #052322",
"y c #042323",
"u c #072222",
"i c #022525",
"p c #022626",
"a c #072524",
"s c #052625",
"d c #092525",
"f c #012827",
"g c #022A29",
"h c #062828",
"j c #072A29",
"k c #062C2B",
"l c #032C2C",
"z c #072D2D",
"x c #082A29",
"c c #082D2C",
"v c #0A2C2C",
"b c #0B2D2C",
"n c #02302F",
"m c #08302F",
"M c #043030",
"N c #063433",
"B c #0A3130",
"V c #0C3130",
"C c #0E3635",
"Z c #073837",
"A c #053938",
"S c #073B3A",
"D c #083C3C",
"F c #133D3C",
"G c #113F3E",
"H c #084241",
"J c #094745",
"K c #0F4B4A",
"L c #194F4E",
"P c #175A59",
/* pixels */
"&&&%%%%@$@@@@o@@X@o@@@X@XXoX@XXoX@XXXXX X X X X X XXXXXXXXXXXXXXXXXXXXXXXXX X X    X XX XXXXXXXX@XX@XX&@O@@%@%%%&&&&&&&&&&&&&&&&",
"&&%:%%&@$@@@@@X@@X@Xoooo@oXoXXoXoXXXXX X X X X X XXX@X@XooX@XX@XXXXXXXXXXX X X    X X  XX XXX@&XOOX@@XX@@@@%%%%%&&&&&&&&&&&&&&&&",
"%%%i%%&@@@@@@X@@o@oXo@X@XoXXXoXoXooXXX XXX  X XXXoXX2$XX@XXoXXX$XX@XXXXXX X  X    X  X  XXXX@X@XOO@&X@@@@@@@%@%&&&&&&&&&&&&&&&&&",
"%%%%%&&@@@@@o@XXXoX@X@@o@XoooXoXoXXXXXX  XXXXXXXXXooXXX@ooooX@X@swXXXXXX X XX    X XX XXXXXXXXX@OOXX@@X@O@@@@@%%%&%%&&&&&&&&&&&&",
"%%%%%%%%@@$@@@XX@XX@o@o@@o@XXoX@XX@oXX X XXXXXXXXXoo@X@XX@XXXXXXmxXXXXXX XX  X X  X XXXXX XX@XXXoXX@@X@@%O%@%%%%%@&&&&&&&&&&&&&&",
"%%%%%%%%$$$@X&&@@@@@@@@@@oXooXXXXXooXXX XX@XXXXX@oXXXXXo@XX@@X$$@&@XXX XX XXX X XXXXXXXXXXXXX@@X@>@oX@X@%%%@%-%&&&&&&&&&&&&&&&&&",
"%%%%%%%%@@@X@:&%@@@@@@@@@@oooXXoXXXXXXXXo@XXXXX&XXXooX@X@XooXoX$XXXXXXX  XX X  XXoXX$XXXX@XXXX@@o>@Xo@@@%%&%%%%-&&&&&&&&&&&&&&&%",
"%%%%%%%%@@@@X@&%@@@@@@@$@@X@oX@X@XXXXX@XoXXX@XXXooX@XooXXX@X@XooXXXXXXXX   XXX XXXXXXX@XXXo@X@XX@ooo@@@@%%%&&%%-&&&2>&&&x&&&&&&%",
"%%%%%%%@@@:@%%:&@@@%$$@@@oo@oXXoX@Xo@XXXX@oo@XX@ooo@oooXXXX@XoXXO+8O. .   .. .O.XXXX%XXXXXX@@XX@XX@@@@@$$$@&&&-&&&&>-&&&&&&&&&&%",
"%%%%%%%@@@&jzz&&@@%%&@$$@@@oX@oXoXXX@o@XXoooXXXXoXoXoXX@@XoXXXXX....O. O X  O.O.XXOXXXX@XX@XX@oo@Xo@@@@@$$&&-&%%-&&&&&-&%&&&&&&%",
"%%%%%%@@&&&BLB&&@&%%&%$$@@ooX@oXXoX@XXooXooo@XoooXXoXXoXXXoXXXXX.O.. ..   OO.O..XX&XXX@X@X@X@X@XX@@@$@&&&%&&%%&%&&-&-&&&&%%&&&&%",
"%%%%&@@&&w:zBc&&&@%%%%$@@oo@XX@&>>XoX@ooX@XX@@X@ooXXX@Xoo@XoXXXX...... . O ....OXX6&XXXXXXooX@oXoX@@$&;&&%&&%%--%-&&-&-&&%%&&&&%",
"%%%%@@@$@&2:@&2&@%%%$$$@@XoX@o@::@XX@oXXXo@XXooXooXXooXXXooXXX   ... O O O..O.O.XoXXoXoXXX@XX@X@@@o@@@$$%%&&&&%&%%%%-&%&%%@%&&%%",
"%%%%@@$@@&&@@&&&&%&@@@@@@@@XXo@&$oo@oX@@oo@o@o@XXo@X@o@X@XXX X XO ........O .OO.oX@XXoXXooX@@X@o@o@oo@$$%%&&%%%--%&&&&&%i%@%%%%%",
"%%%%@@@@@&%@@&%&@&@@@@@@@@@@@XXX@X@XX@XofXXXo@@ooXoXXoooXoXXXXXX... .O..O.OO.OO.XoXXoXXXXoo@o@@@@@@@@@@$%%&&&%%%-&%&&&&%&&%%%%%%",
"%%%%@@@@@&%@%@@@$$@@@@@@@oX@o@X@@Xo@oXX@X@X@X@XXo@@@ooooXXXXXXXXOO . .OO.OO.OOO.oXXXoo@XooXX@XXooo@@@@o$%&&&-%%%-&%%&&&%&&%%%%%%",
"&&$$@@@$@&@@%%%%&%:@@@@o$oX@o@o@oX@XX@XXXo@XXX@@@X@@@XX@XXXXXXXX. O. .O.oXXoX@oXXXXXo$@XXooXX@o@@o@$@@@@%%&%$:&&&52>%%&%%%%@%%%%",
"%&$;o@@$$@@&%%%%&&&@$@@@$$@o@X@o@XX@@X@X@X@X@oooX@XXo@oooX@XXX@XO....OOOXXoXXXXXoXoXX$$XXXo@Xoo@@@oi@@$@%%-i6&&&%hC-%%&%%%%@@&%%",
"@@@@@@@$$$@&%%&&%&&%$@@@@@o@@o@oo@X@XX@@X@Xo@XoX@oo@@XXoXoXoXXXoOO.O OO.XXooooXXXXooX@@XX@@X@@@@@Xo@@@$@%%&&@&&&&552%%@@%%%@@%%%",
"@@@@o@@@@@%&&@$@%%%%@@@@o$@oX@X@@@ooX@XX@XX@XX@@@X@X@@@X@XX&XoXX.OO.O. O@XoXoXXoooXXXoXXooXXXoo@@@@o@@@$%%&&&&&&-%%%%%%@%%%@@%%%",
"@@o@X&@@$@&&&$&@@@@@$$$@o@X@@@o@@XoXXX@XXX@XX@XXX@XX@X@@XX$2XoX@O.OOO OOXXXX@XXXXoXXXXoo@X@@@o@@@o@@@@@@@%%&&&&&%%@@@@@@@@@@@&@@",
"@@@@&X@@$@&&&$&@@@@@$$@@@@@@@X@oo@o@@@ooo@XX@X@@@XX@X@XXXXXoX@oXOO.O OO XX@XXXOXoXoXooX@XXXoXoXoX@@o%X@@%%&&&&&&%%@@@@@@@@@@@@@@",
"o@X@@@@@%@&&$$$$@@@@$$@@@o@X@XX@XXX@@Xo@@@o@Xo@o@X@@XoooXo@XoXX@OOO.. O X$X@XX%XXoXX@XX@o@@XX@X@X@@@@@@@@%&&&&&&%%%@@@@@@@@@@@@@",
"@@@@X@@@t@&@o@@o@@@@$$@@@@o@o@@o@@oX@@@oooo@@@@2::@X@X@X@oXXXoXXO. OOOOOooXXX@XXX@@@XX@XX@XX@Xo@@X@@@@@@@%%&&&&&%%%%X@@@&X&XX&X@",
"@@@@Xo@@6@@@$@$@@@@@@@@@o@@X@@X@og@@X@o@@XX&@@@iA:X&X@XXoX@oo@X@OOOOO% ..OO%.OOO@o@oXo@@XX@XX@Xoo@@$@@@@@@@$$$$$$$@@@@@ooooX@o@@",
"XX@@@@@@@@@@o@$$o@@@@@o@@XX@@@@X@o@@@o@X@@&X@@&ww:X@@XX@@oXXXXX@O%%O...%%O. .%%OX@X@@XXoX@X@@XX@o@@$&&@@@@@$&$@@&$@@@oo@o@ooo@oX",
"oX@o@XX@@@@@$o$o$@@@@@o@@o@@@@@X@@o@@@@@@@@@@@@@&@@XXX@@oooX@X@o%%+O% %O% O%%.+%@@@@@o@o@oX@@@X@@@@@@@@@@@@@$@@@@@@@XXoo@ooXoo@o",
"@@X@o@XoX@@@@$$@@@@@o@@@o@X@@@o@X@@@@oo@@@@@@@@@&@X&&X@@@@oo@XoX%%%OO.   %O .%O%oX@XX@9XXX@XX@XXo@@o@@@@@@@@@@@@@oo@X@@ooXo@o@X@",
"o@@o@@X@@X@@@$@@@@@oX@@@@$@@o@oo@X@@o@o@@$$@@O@@X@&X@&@@$@o@@@@&+O.OO%%%%+%O+. .o@@Xo@&@o@ooooX@X@@@@@o@o@o@@o@@XX@oXX@XXX@X@o@@",
"@@X@@@@X@@@@@$o@oo@o@Xo@<9;@@oo@o@@X@o@@X@@@@@X@@X@@@X@@o@@@X&XX %% O%OO%O.%%%%OoXXXoXX@oX@oX@X@@Xo@@@@@@@@Xo@oX@@o@@oX@@@XX@X@X",
"X@@Xo@@X@oo@@o@oo@@XX@@&wt2@@X@@@o@oooo@@@@@&&@@X&X&&XX&@@@@&@X&%%O%%% O.%%%..%.@@X@@@XX@@XXX@XXoo@o@@ooo@o:&@X@@XX@@X$XX@o@@@o@",
"@o@X@@o@o@oo@@@@@@@@@@@$:2&X@@X@@@o@o@o@@@@@&$$@@@@&X@@@@@@&X@@@%+%+ %%%%. .%..%X@@o@X@@oXX@@Xo@o@ooXoo@@@@:&@@@@o@XXoo@XXoooooX",
"oo@oX@XXo@X@@o@@X@@@@o@o@@oo@X@@@@XoX@@@@@&&&&&%%%%@@@@@@@@@@@@&@@@o@@@@@oX@@o@o@o@@@o@@@XXXX@@XX@@X@@X@o@@@@o@@X@X@ooXX@&$@oo@o",
"@@@@@@o@X@@@@@o@@@@@@@@@@o@@@o@Xo@o@@@@@&&&%%%%%%%%%@@@@@@@@&X@Xoo@@@o@o@@@@@@o@oo@:@@@:@@@@XXXXoXXXXXX@@@o@@@o@@o@oXX@X@&@X@X@o",
"X@@XXXXXX@@oo@@@o@o@@@@@@@o@@oX@@X@@@@@%&&%%%%%%%%%%%%%%X@@@@@@@@o@@o@@@@@@@@@@o@oo$gng@@@oo@Xo@oX@@@oX@@o@@o@o@@XXoo@ooXXXXo@oo",
"@@@X@oo@ooo@@@o@@@@@X@@o@o@ooo@oX@X@@@%%&%%%%%%%%%%%%&&%@@@@@&X&@@oo@@o@@@@@@oooX@@$nJg@@X@o@oooooXoXoX@@oX@@X@Xo@o@oooXX@XXXoX@",
"XXXooXXo@XX@X@@@@@@@@oo@@o@oo@@Xo@@@@@&%&@%@%@@w%%%%%--%@@@@@@@Xo@@o@;<$@$$@o@@@@Xo&gMgoXo@XX@XXoXXXoXX@@o@X@X@Xo@oX@XXoXXXXXoo@",
"X@XXX@X@XX@o@X@@X@@Xo@@@@oo@@oX@@oX@@$&$@@@@@%&&&%%%%%%&@@@@@O@X@oo@@o;$@@@@@@@$@@@:&$$:@@@@o@XoXX@Xo@o@X@o@@@o@Xo@ooXX@oXXXXXXX",
"XoX@X@XX@X@XX@X@@@@@@oo@oo@oo@XoXX@@$$$$&%%@%@&&-&-%%&%&&&&@@O@@@@@@o@$$@@o@@@@@@@@@Xo@@@oX@@XXX@XX@X@X@oo@XX@@X@oXoX@XXooXXXoXX",
"o<oXXXX@@XXX@@X@@X@@o@@oo@o@@o@X@@@@@$$$%%%%%:&&&&-&-&-&&&&%@@@@@o@@@@$@@@@$@@@@@@@@@ooX@@oX&w@@oXX@XooXX@X@@X@XX@@XoXXXoXXXXXXX",
"X:XXX@XXX@@X@@@XX@@@XXX@oo@Xo@@oX&X@@@%%%@@@$&&&--&-&%%&&&&%&&@@o@@@@@$$@@@@@@@@@@$@oo@oo@XXX@Xo@Xo@@XX@X@X@@@X@Xo@XX@XXXoXXXXXX",
"XXXXXX@@XXXXXw&@@@o@X@X@@X@@@@X@&X&@&%%%%@@@$&&&&&&&%%%&-&&&&&%@@@@@o$$$@@@@@@@@@@$@@oo@@X@@oX@oXXXXoX@XXdoXX@@o@@XoXXX@@XoXXXXX",
"XoX@X@@X@XX@OX@X$X@$@@Xo@X@XX@@o@@@@&%%%%%@%&&&&&&&&&%&-&%&&%&%%@$$@@$$$$@@$$@@@@@@@@o@X@@@X@@XXXXX@o@X@X@@XXX@XX@@XXXXXXooXoXXX",
"oXoXXXXXX@@XO@O@X@:&oXo@o@@X@oo@@@@:@@&&%%@&&&&&%%%&&%&&&-&&%&%@@@$@@$$$$@@$$@@@@@@@@X@@X@o@Xoo@o@XXX@oXoX@X@oX@XXXXX@XXXXooXoXX",
"XoXo@XX@@XX@OX@O@X$$@oXXXX@X$$@@@@@@@@@@%%&@&&&&%%%%%%%-&&-%%%%@$@$&@$$$$$@$$$$@@@@@Xo@X@ooXX@@o@XX@X@@X@XX@XX@X@@XX@XX@oo;9o XX",
"oXXoXX@XX@X@X@X@XX@X@o@@@@@@ooo@@@@@$@@@@%%@&&%%%%%%%-&&--&&%%%@@@@X@$&&$$$@$$$$@@@o@@o@o@@@oooXoXoXXXXX@X@XX@X@oXX@XXXXXooXXoXX",
"oXoXX@@XXXXXXXX&X@@XXo@XoXX@oo@@$@@@$$$@@%%%@%%%%%%%%%-%&&&&%%%%@$@@@@@@@$$@@@@@@@X@@@@o@o@o@X@@@@XX@XX@XXoX@@XX<$XoXXX@ooooXooX",
"XoXooXXX@XXX@@XX@Xo@X@XX@@@X@o@$$@@@$$$@@@%&%%%%%%%%-&&&--&%%%%&&$@@@@@@@@@@@@@@@@@@@@@ooooX@ooXoXo@X@@XXoX@XX@X::ooXXXXXXoXoXoX",
"oXoXXoXXoXoX@XXo@X@Xoo@X@o@@o@@@$&@@@&@@@@@&&%%%%%&%%%&&&&&&&&&-$%@@@@@@@@s&%@@@@@@@@oo@oo@ooo@@X@@oX@@X@XX@@@@oX@XXXXXXXXXXXoXo",
"oXXXXXXoXXXooX@ooXoX@X@XXoX@@@o@%&@&@@&$%%@&%%@@@%&$%%&&&&&&&&&%&&@@@@@@&@@@@@@@@@@@$$@@@o@X@X@XooXo@XX@XXXXX@XXoXXoXXXXXXX XXoX",
"XXXXXXoXXXXXX@XXoo@@oo@Xo@@oo@o@@@@$@@@&%%&@@%%%@@@$%%&&&&@@%%%%%%%@@@@@&%%@@@@@@$$@@@@o@@Xo@@X@@o@XXoXXooXXXX@XoXoXXXXXXX X oXX",
"X XXXX o@XX@oXX@oooo@o@ooo@@@@@@@@@$@@@&%%&@&&&%@@@$%&&&&$@@%%&&&&%&@@%@%%%%@&X@@@$@@o@@@XX@XX@Xoo@XX@@XXoX@XoXooX@XXoXXX X   X ",
" XXXXX oX@XXoXX@X@@oXo@@o@@@@@@%@@@@@$@&%&%@&%&&%%%%%&&-$$@@&&$$&&%%%%@@%&$$@@X&$@$@X@o@oXXo@XX@@o@X@X@X@ooXXoXoo@XoXoXXX X X X ",
"XXXXoXXXooXo@X@XoXoX@oX@o@@@X@@&&@@&:@@&%%%@%%%$@%%%&&%&@@o@@&&@&&%%@@@@@&$$@@@@o@@@@@@@@@@Xo@@XXoX@X@X@XoX@X@@XooX@oXXX X X XXX",
"XoooXXXXXX@oX@@oo@o@o@@@@@@w:@@X222w&@@@%%&@i&$$@@%%%%%%@Xo@@$@@%&%&%@@@@@@$@@X&@@@o@oo@@Xo@oo@X@X@@X@@@@@@XXo@o@@XXXoXX  X XXXX",
"XXXoooXo@XXX@XX@X@@o@o@@@@@@@@@@:AHi@@@@%%%@@&@@@@%%%%%Oo@o@@@@@%%%&%@@@@&@@@@@@@o@@@@@@@=&@@oX@XX@@@@@@X@o@@Xoooo@ooXoXX  X$:XX",
"XXoooX@X@oo@o@@o@X@@@$@@@@@@@@@@:AHi$@@$$$$&$$$$@&%@$$@o@@o@@X@@&&&&$@@@@@$$$@@@o@@@@oo@&=$@X&X@@@o@$@@@o@@@Xoo@X@o@XXXXXXX @;XX",
"XoXoXXXXXoXXX@o@@@@@$$$@@@@o@%@@222w&@o$$$$@$$$$@@@@@oo@o@@o@@@@>&&$@$$@@@o@$@@@@@@@@@@@@o$o@X&@@@@o@:@@@@@XX@X$@@XoXXXXXXXXXXXX",
"XXooX@X$$oooo@X@X@@@$$@@o@o$%%&&&@&%;$@o@@@@$$$@@@@@X@o@@@@oX@@X@@$$@@@&@@@@@@@@@@@@@@@@@@X@@@@@@@@@@@o$o@@@@@o&@XooXXXXXXXXXXXX",
"XoXooX@>qoX@oo@Xo@@X$o@@@@$$&&&&&@@@@o@@o@@@$o@@X@@XX@@@@o@@@@@@@@$$o@@$@@@@@o@oo@o@X@X@@X@X@@@@@@@@@@@$@@X@@o@$$oX@XXX@XXXXXXXX",
"X@oo@Xo@o@@Xo@@@@@@@@oo@@@$@$$$$&@@o$o@@@@@@@@@ooo@Xo@X@o@@@o@@@@@X&@@@@@@@@oo@oo@@o@@@@@X&&&$&%@@@@@$$&@@ooX@@@$oX@oXXXXXXXXXXX",
"XXX@@oo@@XX@X@X@@@$@@@@@@@@@&$$$@@@@@$o@@@$@@@@oooXXoXX@X@o@@@@@@@&X@@@@@o@o@@o@@o@@@@@@@@&2&@&&$@@@o@@@@o@@$@@@w@XXXXXoXXXXXXXX",
"XXooX@@Xo@XXoo@X@@@$$@@@o@@o&$@@@@@@@o@@@$@@@@o@ooo@@@XooX@@@@$@X&@@@o@o@@@@@@@@@@@@@@@@@o@@@@@$@@@X@@@&@@o@@@@@$X@XXXoXoXXXXXXX",
"XX@XX@X@@@@Xo@@@@@@$@@$@$$@@@@@@@@X&o@o@oo@ooo@o@@@$w@@o@@oXX@$@@X&X@o@@@@@@@@@@@$@@o@@$@@o@@@@@@$@@@@@@@@@@@oX@$@oXXXXoXXXXXXXX",
"XXX@@Xo@@@X@@w&@@@@@@@$@@@@%$$$@@@@@@@o@@XX@@o@o@o$o@o$o@@@o@X@X@@X@o@@o$$@@@@@@%%%%%@%%%%%@@@%%%%%@@@@@@@@@@@o@X@XXXXXoXXXXXXXX",
"XX@X@X@XX@@o@X@Xo@@@@$@@@@@&$$$$o@o@XX@X@@@@@@o@o$o@o@@@oo@oX@X@X@X@@@@@@@@@@@@@%%%%&%%&%%@@%%%%%%@@@@@@@@@oo@@X@X@XXXXXoXXXXXXX",
"XXXXXX@@@@@XX@X@@o@o@@$$@@&&$$$$@@@X@@@@X@@o@o@o@o$o@@@oo$@@@@@@X@@@o@o@@@@@@@@@%%&&&&&&@@@@&%@@%&%@@@@@@oo@@@X@oXXXXXXXXX $oXXX",
"XX@@X@X@@XX@XX@@o@@o@@o@@@:&@$$$$o@X@XXX@@@@o@oX@oo@ooo@$o@o@XX@@@X@@@@@@@@@o@@@%%%&&&&&@X@@&$@@@@@@@@@@@@@@o@oo@@XXXXXXXXXo   X",
"XX:&XX@@@@X@X@oXo@@oo@@@X@@$@@@$@@o@X@X@@@@@oo@@oo@o@o@oo$o$X@@XX@X@@@@@@@@@@o@@%%%%&--&@@@@X&@@@@@@@@@Xo@@oX@@XX@XXXXXXXX XXXXX",
"XXXX@@XoXXXXo@@@@o@@@@o$&@@@@@@@@@;$@o@@X@@Xo@@o@oo@o@o@$o@o&XX&@@@@@oo@@@o@@@$$%%%%&&&&@@@&@@@@@o@&@@@&@@o@@o@@@XXXXXXXXXX XXXX",
"XXXoXXXoXXoo@o@o@o@o@oo@o@@o@@@@@@2$@Xo@@@X@@o@Xo@@oXoo@o@o@X&X&o@ooo@X@@wo@@$$$%%%&-%%%@@@XX@@@@@@XX@@@@o@o@@X@@@XXX X X  XXXXX",
"XXXX@X@@o@&oX@o@oo@@@@o@@@@@@o@@@@@$oo@@o@X@@o@@@@X@@X@o@o@o&X&X@o@@@@@@$$@@@$$$%%%-&%-%&&@@&@X&@o@@&@@@@@o@@@@o@XXXXX XXXX XXXX",
"XXXoo@XX@o@oo@@@o@@@@@@@@@@o1aX@@o@@Xo@@@@Xo@@o@@@o@Xo@oX@@XX&X@o@X@oo@o@@@$@@$$%%&&&%%%&$@@@@o@o@@@@@@@@o$@@@o@OO OOO.O  X XXXX",
"XXooXoXXXoX@oXX@X@o@@o@oo@@@@@@X@@@oo@o@@@@@o@@@@X@@@oX@@XX@XX@X@o@@@@@@@oo@@@$$%&&&&%%-&@@@@@@@@o@o@$@o@@$&@@@XOOO   ..X    oXX",
"XXXXXX@Xo@XX@@oo@@o@@@@@@@@@Xo@@X@o@o@@@@X&X@$@@@X@@@o@@@@@@&@@@@t@@@@@@@@o@@@@@%&&&&%%%&&$@@@@@@@@o@oo@$2;<$@@@OOOOO O.X   X   ",
"XXXXXX@XX@@@Xoo@X@@o@@o@@@o@@@@@@@@X@o@o@@X@=q@o@@@@$@o@@X@&@&@@@%&$@oo@@o@$@@@@%&&&&&-%&&@@o@o@o@@@@@$@@2Sw@o@@OOOO....XX   X X",
"XXoX@XXo@XoooX@@@@o@@@@o@@@oo@X@@@@XX@X@@O@@@&@@@@@:2$$@O@XX@@2:&w2&o@@@@o@o@o@@@%%%%%&&&%%%@o@@@@@@@@@@@2g2&@oXOOOO..OO.O OXX X",
"XXXXXX@Xoo@Xo@@$@$&$X@@@o@o@@@@Xoo@@o@X@@O@X@o@@@@X@$&@@@@@@X@:ZDc@%@@@Xo@@@@@o@%%%@%&&&&%@@@@@@o@@@@@o@&&@&@@@XOOO.OO.... . X  ",
"XXXXXoXX@Xo@@o;&;q<@o@o@o@o@@@@@@@@Xo@@@@@X@@@@XX@X@@@o@@@@&@X:HPM@X@o@o@@@XX@@@%%%%%%&&%%@O@@&&&@@@@@@@@o@@@XXXOO.O...OOO+O.   ",
"XXXXXXoXXoXoo@&xmi&@@oo@@@@@@oo@o@@@oo@@O@&@X@o@X@@@@@@@%%&&@&2AAM@@o@@@o@@@@@@@%%%%%%%%%%%@@@&2w:@@@o@o@@@oXX@XO.O.OO...%+..   ",
"XXXXXXXooXo@X@@zGw&i@X$@o@o$@o@@@o@@@@@$@@@o@@@@%%%%%%&%&&&&@:2&&&2&&@@@$@@@@@@@$$%%%%%%&&%@@@$wa<@@$o@@@%@XX@XX.OOOOO  .O.. . .",
" XXXX@X@@@oo@o$tt2&@@&o@@@$@@@@o@@o@o@o$@@@@@@@$%%%%%%&&&&%&@:&&%&&&%@%Xo@@@o@@@&$&&@&%%$$@@@@$:2;o@@@@X@X@@&XOXO.O..O.O..O O   ",
" XXXXXX::XooX@$$@@:@@X&$@@o$@o@@@@@@o@@@@$@@%&$$%%%%%&&&%%%%%%%%%@@&@@@@$@@@$$$$&@$$@%%%$$$o@@@@$@o@@@@@XX@XOXXO.O.OO .OOO. O   ",
" XXXXXXXXXXoo@o$XX@@X&X&@o$o@@ooo@o@@o@@@$$$%&&$%%%%%%%%%%%%@%%%@@@XX&X@$$o@$;o$%@@@@%%%$@@@@@X&@@@@@o@@X@XX@XXOO.OOOO.....     ",
" XXXXX@X@XoXoXX@XX@XX@@@@oo@@oX@o@@$@o@$%%&&%%%%%%%%%%%%%%%%%%%%%%%&&&X&@@@$->X@@@@@@%%%@@o@&X&Xoo@@@X@X@@XXX% XOO.O.%%..OO . O ",
" XXXXXXXXooXX@XX@oX@o@Xoo@@@@@@@@@o@@@o$%&-&%%%%%%%%&&&%%%&-&%2%%%%&@XX@o@o$&@%@@@@@@&%@@@$@@@@@$@@@@@XXXXX@OOXXO.OOO..O.... . .",
" XXXXXXXXX@XX@@XXoX@@X@o@@@@@w:@o@@@@@@@%%&&%%%&%-%--%%&&&-&--%%%%&&&$&@@o@o%@@@@@@@@@@@o@$o@@@@@@o@@XXXXXXXOO.O.O.O.O%.O.  . . ",
" X XXX@XXoXXXXoo@oXXooX@o@o@o$@@@@$@@@@$%&&&%&&&%-5-&%-&%&&&-%%-%%&&&&$@@@@@@@%%@@@@@@@@@@@@@@@@o@ooXX&@XX@X.%..OOO..O .O. ... O",
" o XXXXo@XXXXXXoX@XX@XXXX@@@@@@%%%%%%%%%%%%-&-&&%%52%%&&-&&%&%-&&&&&&%&&%%%@%%%%@&%@&&%@@@X%@@X&@o@oXo@XOO .O%.%..OOOOOO........",
"  X  XXXXXX@@Xoo@XXoXX@oX%X@@@@%@%%%%%&%%%%%&----&%&%&--&&-%-&--&&%%@%%&&%%%%&%%&&%&@X%@@@&XX@&Xo@o@@ooXO.% % .OO%.......O. ....",
"XX XX XXX@XX@X@X@XX@XXXXX%X@%%%%@%&-&&----&%%&%%&&&%%%%%&-&-%&&&-&%&%@@%%%%%%%&&&&@@@@O@@&X&X@X&@o@oo@o@.%O  .O.%.OO.OO... O O. ",
"XXXX X XXXXXXX@oX@Xo@Xo@XX@@@%%%@%&-&&&-&&&%-&&%%%%%%--%&%%&&--&%&&&%@@%@&@%%&&%%@@@@@@@XX&X&X&Xo@o@@X@o %OO.%.%%.OO.OO.O . ....",
"XXXX@XXXXX@2$X@X@XooXXXo%&X&%%%%%%&&&%%&-&%%%%%%%%%%%%&%-%&-%%%%%%%%%%%%&%%%@&%%%%%%@@@O&X&X&XX&@o@@XX@o iO.OOO..O%.OOOO... .O..",
"XXXXXXXXXXX@@XXXXooXXX@XXX@XO%%%%&-&--&&%%%%%%%%%%%%&-&--&%%%%-%%%%%%%%&%%%&@%%%%%%@@@@OX&X@@@&X@@@X@@@oO .%OO  .O%OOO.7OO.O...O",
"XXXXXXXXXXXoXX@X@XX@$$@XXXXX%%%%&-&-&&%%&&%&&%&&&&%%%&&---&-22&%%%%%%%%&&&&%@&&&&&&:%%@@&XXXXX&@o@X@oX@X %%O@@ %OO %OOO+.....O.O",
"XXXXXXXXXXXX@@o@XX@@$X@X&@X&OO%%&&&&&%%----&--&--&&-&%%-%-%%-5%%%%%%%%%%%@@&&&&&&&&&%%@@X&&@@@@@@o@@X@@@%O  % OOO%O .+...OO.... ",
"XXXXXXXXXoX@X@@X@X@o@o@@X@@@@X&@%&%&&&%-&&&-&-&%-&-%&%%%&-%&-%%%%%%%%%%&%%%%%-&&&&&%&$@@@@@@@@@@ooo@@@@oX@X@XX@X@@@X@XXXXXX XXXX",
"XXXXXXXXXo@Xooo@@X@oooX@@@:;@X@@%%&&&-----&-&-&----&---&%--%-%%%%%%%%%%@%&%%&---%%&%&@@@oo@@@@X@X@X@@XX@@@@oX@X@@X@Xoo@XXXX XXX ",
"XXXXXXXXXX@X@@@X@XXoo@@oX$<$@&@@%%%&--&&-&---&&&%---%--%&&:&%%%%&%%%%%@@%%%%----%%&&%%$@@@@&@@@ooX@o@@@@@X@@@o@X@o@XX@XXXXXXXXXX",
"XXXXXXXo@XX@XoX@@@o@@oX@@@$$XX@@%%%%%------&&%--%%%%--&-&%@&%%%%%%%%&@@@%%%r2%&&%%@@%%@@$$@&&@X@@@@@@X@oX@X@X@@@@@X@@X@@XXXXXXo ",
"XXXXXXXX@XoX@oooX@@@X@Xo@oo@&@@@%r%%&&&@%---%&&&-&%%%---:@&&&@@@@@@@@X%@%%%%%%%%%%@@$$$%$$@$@@$:@@o@@@o@&X&X%X@Xo@@X@XXooXXXXX X",
"XXXXXXooXX@XXo@o@XX@@X@@oo@oX&@@%-%&&@::&-&%&-&&--&&%%%%&&%%%@@@@@@@@@@@%%%%%&%&%&%@@@&&$$@@@@$&XX@@oo@oX&X@@@@@@oo@@o@XooXXXXo ",
"XXXXXXX$X@@Xo@o@@X@o@X@X@oo@@$X&%%%&&-&&-&%%-&>>%-&-%%%-&&@@@@@@@@@@%%&&%%%%&&&&&&%%@@$$@@@@@o@o@@@@$$o@@X&XX@@@o@o@Xo@@oX XXXXX",
"XXXXX&6X@XX@XXo@X@o@o@o@@oo@oo@@%%%%&-@:------&&----&-&&&&&@@&@XX@@@%%&&%%%%&&&&%%%%@@&$$@@@@ooo@X$;@$$@@X@@:@@X@o@o@ooXoooXXXXX",
"XXXXXX@XX@XXX@XoX@X@X@@@@oX@@@o@@@@&&&&&-&--&---&-&-&&--&%%%@X@@@@@@@@$$&$&&&&6t%%@&@@@@$@@$o@@@@@o:zs$@@@@@2&%@X@@@@X@Xo@XXXXoX",
"@XXoXoX@@XX@@XX@@o@X@@X@@@@Xo@@@@@@@&;&&&2&---&&--&-&l&&&&%%@%@X@XX@@@&$@@@&%%%%%%@$@@@@$@o$@o@o@o@;KN@@@o@o%%O@&@@&@@@XoX@XoXoo",
"@o@XXX@o@o@X@XX@@X@@o@@o@X@@@X@@@@@@&&&:--&&-&---&--%&%%@@OO@XX@Xo@o@@@@@@@@%%%%%@@$@@@@$@@@o@$@@o@<:6:@$$@$&&@@@@&&@@@@@@XoX@oo",
"XX@X@XXXXX@@X@Xoo@@o@@@@o@X@o@o@@@@@&&:$-&&%---&---&%%@O@O@@X@X@@oX@@@@@@@@@%%%%@@&@@@$@@o@@@o@@@@@@@@$@@$$$&&@@@@&$$@@@ooooXoX@",
"X@ooo@X@o@@oX@@o@@o@@@o@@@o@@@@@@@@%%%%----&&&:>-&&%%%%@O@%@XOXXoXXX@@@@@@@@$@$$$$$$@$$$@@oo@XX@@o@@@o@$$&&%&&%@@@@@$$$@@XX@@o@X",
"@X@XoXo@XXoXX@o$X@@o@@@X@X@@@oo@@@@X%%%&-&-&&&$&-%%%%%%%O@%OOO@XoX@@@@@@@@@@@@@@@@@@o$@$@X@@X@@@@@o@@@$&%&@@%%@@@@&@$@$$X@@XX@o@",
"o@@Xo@oo@o@@@o@X@oo@@o@@X@@X@@@@@@%&&&%%%--&&:&&%%%OO%O%@@@@OOOOX$X@X@@@o@@oooo@@@@o@@@@@@X@@@@@@@@@@$$$&&%%@@@@@@@&@o@o@@@X@X@X",
"@XX@@X@X@X@Xo@s@@@@oo@o@@XX@o@X@O%%&i5%%%&&-&&&$%%O@%O%O@OOXOOOXXXXXX@X@@@@@o@X@o@@@@@@@@X@@XXo@o@o@&$$$&%%@@@@@@@@@@@@@@X@oX@@@",
"@XX@X@X@@@X@@X@oo@o@@o@o@o@@o@@@@o@$<2&%%@@@@$$@@@X@X@X@@@%XOOOOXXoXX@o@@oo@X@@o$@@$$$i@@o@o@X@o@Xo@@&%&@@@@@@@@@@@@@@@&@@&X@@X@",
"X@@o@o@oXX@@@@X@@o@o@;2@o@X@@X@X@@@@$$&@@@@$@@@@X@&@%@%@@@O%OOOXXoXoXXX@X@@@@Xo@$oo$@@@oooX@o@@@@@@@@@@&$@@@@@@@@o@@@@@X@@X@@@@X",
"@@o@X@o@@X@XX@X@@oo@@o@X@o@o@@X@@o@@&&&@@@@@@o@@&oX&@@@@ %OOOOOOoXoXX$ooX@XooX@@$@@@o@o@@oo@@X@@o@@@@@@&$@@@@@@@@@@$>%@@&&@@@@@X",
"o@@@@o@o@@X@@X@oX@X@o@o@o@X@X@XXXo@@&&@@X@XXX@XXoo&XXXX@% OXOXXOXoXooXXXoXXoX@Xo@oo@@XooXX@X@oXooX@@@$$$@@@$@@@@@@@@&66t>@X@@@@&",
"@X@@@oo@Xo@XX@o@@o@@X@@@@X@@@oX@XX@o@@@@oXo@X@@X@ooo@XXX %..5OXXoXXXXXXXXoXX@X@Xo@@oXXoXX@Xo@o@X@@@@@@@@@@o6&$$@@@@o$tFb:X@@@@X@",
"@@@@@@@o@@@@@@@XX@X@@X@&&@XXX@XXX@X@o@XoooXXoX@Xoo@oXOX%O .O%OOOX@@XXXXX@Xo@XXoXXXXXX$XoXXX@@XX@o@@@@@@@@@@@$$$$@@@@$tVx&@@@@@@@",
"&$@@$@@oX@@@@oX@@@XX@X@&:@X@o@@XXX$oXoXoXXXXXoXX@XXXOOO..O.OOXO XX@XXXX  XXXXoX@X@Xo@XoXo$oXX@XXX@@@@@@@@$$$$$$@@@@$;>c&:$@@@@@@",
"&$$@$@@@@@@@@@@X@X@@X@@X@X@@oX@XoXXoX@@o@XX@oX@XXXX@O OO.. OXOOOooXXoX XXXXX@XXXoXoXXXXoXoXooXXo@X@o@@@@$$$$$@@@@@@$;$@@&;&@@@@@",
"%%%%@$$@@X@@@@@@X@@XX@@X@@@XX@XXXXXXo$@oXX$XoXooXoXoXXXX XXXXOOOOOOXXXXXXXXXoX@XXoXXXXXXXoXXoXXXo@X@@@@@@@@@@@@@@%&&@@@&&%&&&&&&",
"%%%%@$@>>@@X@@X@@X@@@X@@@XX@@XX@@XXXoo@XXXXoXoXo@XoXoXXXX X OX OOXXXXXX X XXXXXXooXXXXXXoXXXXX@@@@@@@o@@@@@@@@@@%%%@@@@&&&$@&&%&",
"%%%%&$@>&@@@X@XXX@@XX@@XXXXXX@@X@XXXXXXXXXXXXXXXXXXoXXXXXXXXXXXOXOX  X    XXXXXXX$XXXXXXXXXXXoo@o@@@@oX@@@@@@@@@@@@@@@$$&&&=&&&&",
"%%%%&$@@@@@@@@X@XXX@XXX@X@X@oX@XX@XXXXXXXXXXXXXXXXoXXXXXXXXXXXO OXX   XX   XXXXXXqXXXXXXXXXXoo@@@Xo@@@@oo@oo@o@@@@@&@$=&&&%&&&&&",
"&2%%%@@@@@@@@X@X@@@X@XoXX@XX@@X@X@XX$@XXXXXXXXXXX$XXXX XXXXXXXOXXXX%2X XX  XXXXXXXXXXXXoXXXXX@@o$;to@@@@@X@@@@@@@%%%&&&&$t:&&&&&",
"&i%%%%$@@@@@@@@@@XX@X@@XXX@@XXXXX@@X<@XXXXXXXXXXXXXXX XXXX XXXXXOXXXXXXXXX XXXXXXoXXXXX XX XX@X@@X@@@XX@@@@@%%&%%%%&&&&&&&@&&&&&",
"&&&%%%&@@@@@@@@XX@@oX@X@@X@XX@@X@XoXoXXXXXXXXXXXXXXXX XXXX XXX XX   XXX  X  XXXXX    Xo X XX@oo@o@@@@@@@@@@%%%%%&&&&&&&&&&&&&&&&",
"&&%%%&&$@@@@@@@X@@X@@o@XX@XX@XX@XX@@oXXXXXXXXXXXXXXX XXXXXX X X XX X X X X     X  oo X X XoooX@oo@X@@X@@@@@%%%%%%$@=&&&&&&&&&&&&"
};
