/* XPM */
static char * crosshair_xpm[] = {
"80 80 3 1",
" 	c None",
".	c #DCA823",
"+	c #DCA824",
"                                       ..                                       ",
"                                       ++                                       ",
"                                       ++                                       ",
"                                       ++                                       ",
"                                       ++                                       ",
"                                       ++                                       ",
"                                       ++                                       ",
"                                       ++                                       ",
"                                       ++                                       ",
"                                       ++                                       ",
"                                       ++                                       ",
"                                       ++                                       ",
"                                       ++                                       ",
"                                       ++                                       ",
"                                       ++                                       ",
"                                       ++                                       ",
"                                       ++                                       ",
"                                       ++                                       ",
"                                       ++                                       ",
"                                       ++                                       ",
"                                       ++                                       ",
"                                       ++                                       ",
"                                       ++                                       ",
"                                       ++                                       ",
"                                       ++                                       ",
"                                       ++                                       ",
"                                       ++                                       ",
"                                                                                ",
"                                                                                ",
"                                                                                ",
"                                                                                ",
"                                                                                ",
"                                                                                ",
"                                                                                ",
"                                                                                ",
"                                                                                ",
"                                                                                ",
"                                                                                ",
"                                                                                ",
".++++++++++++++++++++++++++                          ++++++++++++++++++++++++++.",
".++++++++++++++++++++++++++                          ++++++++++++++++++++++++++.",
"                                                                                ",
"                                                                                ",
"                                                                                ",
"                                                                                ",
"                                                                                ",
"                                                                                ",
"                                                                                ",
"                                                                                ",
"                                                                                ",
"                                                                                ",
"                                                                                ",
"                                                                                ",
"                                       ++                                       ",
"                                       ++                                       ",
"                                       ++                                       ",
"                                       ++                                       ",
"                                       ++                                       ",
"                                       ++                                       ",
"                                       ++                                       ",
"                                       ++                                       ",
"                                       ++                                       ",
"                                       ++                                       ",
"                                       ++                                       ",
"                                       ++                                       ",
"                                       ++                                       ",
"                                       ++                                       ",
"                                       ++                                       ",
"                                       ++                                       ",
"                                       ++                                       ",
"                                       ++                                       ",
"                                       ++                                       ",
"                                       ++                                       ",
"                                       ++                                       ",
"                                       ++                                       ",
"                                       ++                                       ",
"                                       ++                                       ",
"                                       ++                                       ",
"                                       ++                                       ",
"                                       ..                                       "};
